<svg width="751" height="726" viewBox="0 0 751 726" fill="none" xmlns="http://www.w3.org/2000/svg">
<rect width="751" height="726" fill="#F5F5F5"/>
<rect width="1920" height="1080" transform="translate(-1030 -107)" fill="white"/>
<rect x="-13" y="78" width="296" height="493" fill="#23346F"/>
<g clip-path="url(#clip0_0_1)">
<path d="M693.14 447.432C690.482 446.046 687.533 445.307 684.535 445.277C681.537 445.246 678.574 445.925 675.888 447.258C672.326 449.243 671.287 452.173 672.822 454.701C673.266 455.431 673.709 456.161 674.152 456.889C674.461 457.4 674.771 457.911 675.081 458.422C675.215 458.641 675.348 458.859 675.479 459.079C674.296 457.13 675.097 454.872 677.842 453.343C679.912 452.317 682.194 451.794 684.505 451.817C686.815 451.841 689.086 452.41 691.134 453.479C693.664 455 694.352 457.158 693.229 459.029C694.107 457.565 694.985 456.101 695.861 454.638C697.319 452.207 696.426 449.408 693.14 447.432Z" fill="#A8CC9D"/>
<path d="M691.134 453.479C694.727 455.638 694.604 459.082 690.857 461.171C688.788 462.197 686.506 462.72 684.196 462.696C681.886 462.673 679.614 462.104 677.566 461.036C673.973 458.874 674.096 455.431 677.843 453.343C679.912 452.316 682.195 451.794 684.505 451.817C686.815 451.841 689.087 452.41 691.134 453.479Z" fill="#AD836D"/>
<path d="M696.458 445.585C702.881 449.448 702.659 455.601 695.965 459.33C689.27 463.06 678.638 462.952 672.216 459.091C665.793 455.228 666.012 449.075 672.706 445.346C679.4 441.616 690.036 441.724 696.458 445.585ZM693.14 447.432C690.482 446.046 687.534 445.307 684.535 445.277C681.537 445.246 678.574 445.925 675.888 447.258C671.027 449.967 670.867 454.437 675.531 457.242C678.189 458.629 681.137 459.368 684.136 459.398C687.134 459.428 690.097 458.749 692.783 457.416C697.646 454.707 697.807 450.237 693.14 447.432Z" fill="#E5F2E1"/>
<path d="M660.202 488.539C662.685 476.108 665.168 463.678 667.649 451.247C667.096 454.027 668.607 456.92 672.216 459.091C678.638 462.952 689.27 463.06 695.965 459.33C699.923 457.125 701.617 454.075 701.015 451.15C703.568 463.568 706.121 475.984 708.674 488.4C709.549 492.647 707.085 497.081 701.337 500.283C691.611 505.7 676.165 505.544 666.833 499.934C661.592 496.782 659.397 492.578 660.202 488.539Z" fill="#D9EBD3"/>
<path d="M697.64 391.637C696.045 386.234 698.026 385.922 695.516 380.588C692.745 375.345 689.755 373.585 686.722 368.637C683.529 373.481 680.486 375.144 677.541 380.293C674.859 385.543 676.829 385.919 675.058 391.266C673.55 396.672 671.099 396.481 669.876 402.129C668.917 407.819 671.806 407.81 671.716 413.381C671.886 418.952 668.587 419.259 669.097 425.003C669.873 430.723 673.532 430.116 675.124 435.513C676.973 440.854 673.005 441.847 675.263 447.272C677.792 452.613 682.016 451.243 685.292 456.071C688.722 451.353 692.897 452.858 695.602 447.602C698.04 442.256 694.102 441.132 696.125 435.857C697.893 430.515 701.53 431.242 702.492 425.548C703.191 419.827 699.904 419.41 700.256 413.845C700.35 408.277 703.238 408.382 702.461 402.662C701.423 396.979 698.973 397.089 697.64 391.637Z" fill="#5F9C48"/>
<path d="M724.041 420.686C725.513 416.576 726.898 417.283 727.764 412.796C728.424 408.248 727.357 405.78 727.72 401.298C723.506 402.874 720.838 402.526 716.64 404.408C712.558 406.473 713.621 407.606 710.067 410.149C706.648 412.846 705.202 411.608 701.853 414.587C698.65 417.713 700.465 419.025 697.861 422.474C695.419 426.043 693.215 424.729 690.906 428.559C688.777 432.497 691.348 433.786 689.875 437.892C688.591 442.083 685.651 440.891 684.587 445.323C683.728 449.821 686.999 450.891 686.844 455.409C691.15 454.02 693.077 456.871 697.173 454.812C701.145 452.575 699.192 450.073 702.872 447.693C706.424 445.154 708.368 447.269 711.575 444.142C714.629 440.877 712.76 439.117 715.525 435.789C718.13 432.346 719.89 433.73 722.02 429.793C723.968 425.758 722.385 424.711 724.041 420.686Z" fill="#75BC5B"/>
<path d="M651.498 427.129C650.279 423.719 649.13 424.307 648.412 420.585C647.865 416.812 648.748 414.766 648.449 411.05C651.943 412.358 654.155 412.068 657.636 413.63C661.022 415.342 660.139 416.282 663.088 418.391C665.923 420.627 667.121 419.6 669.899 422.072C672.556 424.664 671.051 425.752 673.209 428.611C675.233 431.57 677.063 430.481 678.976 433.658C680.743 436.922 678.611 437.992 679.832 441.397C680.897 444.872 683.335 443.885 684.216 447.558C684.93 451.289 682.217 452.176 682.346 455.923C678.774 454.772 677.176 457.135 673.778 455.426C670.485 453.573 672.106 451.499 669.055 449.524C666.109 447.418 664.496 449.173 661.836 446.581C659.304 443.873 660.854 442.411 658.562 439.653C656.402 436.797 654.941 437.945 653.174 434.68C651.56 431.334 652.874 430.466 651.498 427.129Z" fill="#75BC5B"/>
<path d="M501.631 174.417L499.966 175.481L461.895 192.11L463.559 191.044L501.631 174.417Z" fill="#D45990"/>
<path d="M463.559 191.044L461.895 192.11L469.319 151.907L470.986 150.841L463.559 191.044Z" fill="#D45990"/>
<path d="M472.503 185.794L505.493 261.001L539.089 264.033L572.718 322.604L605.755 328.417L606.529 331.417L572.083 325.353L538.53 266.922L504.626 263.858L470.552 186.19L472.503 185.794Z" fill="#D45990"/>
<path d="M524.175 250.154L492.669 178.331L501.632 174.417L470.986 150.841L463.56 191.044L472.999 186.923L505.493 261.001L524.175 250.154Z" fill="#FA8BBD"/>
<path d="M470.552 186.19L489.235 175.344L491.186 174.948L472.503 185.794L470.552 186.19Z" fill="#FC8CBE"/>
<path d="M539.089 264.033L557.77 253.188L591.399 311.758L572.718 322.604L539.089 264.033Z" fill="#FC8CBE"/>
<path d="M505.493 261.001L524.174 250.154L557.77 253.188L539.088 264.033L505.493 261.001Z" fill="#E86FA5"/>
<path d="M605.755 328.417L624.435 317.569L625.212 320.573L606.529 331.417L605.755 328.417Z" fill="#FC8CBE"/>
<path d="M572.718 322.604L591.399 311.758L624.435 317.569L605.755 328.416L572.718 322.604Z" fill="#E86FA5"/>
<path d="M416.39 102.36C416.381 99.3626 414.26 98.139 411.648 99.6446L266.095 183.604L264.638 176.395C264.149 174.006 261.658 173.333 259.034 174.847L189.817 214.772C186.974 216.599 184.97 219.474 184.241 222.77L182.83 231.632L173.151 237.214C171.777 238.109 170.634 239.315 169.815 240.734C168.997 242.153 168.525 243.746 168.44 245.382V390.602C168.448 393.605 170.569 394.81 173.182 393.306L411.68 255.735C413.053 254.844 414.196 253.641 415.014 252.225C415.833 250.808 416.304 249.218 416.39 247.585V102.36Z" fill="#242B3D"/>
<path d="M287.312 207.353L287.307 205.665L182.365 266.197L182.37 267.885L287.312 207.353Z" fill="#C1CDE3"/>
<path d="M287.29 199.933L287.287 198.245L201.87 247.516L201.875 249.202L287.29 199.933Z" fill="#C1CDE3"/>
<path d="M182.413 282.722L287.355 222.19L287.35 220.502L182.406 281.034L182.413 282.722Z" fill="#C1CDE3"/>
<path d="M182.39 275.303L287.333 214.771L287.328 213.083L182.386 273.616L182.39 275.303Z" fill="#C1CDE3"/>
<path d="M182.429 288.454L182.433 290.142L257.74 246.703L257.735 245.015L182.429 288.454Z" fill="#C1CDE3"/>
<path d="M287.307 253.429L182.365 313.963L182.37 315.651L287.312 255.118L287.307 253.429Z" fill="#C1CDE3"/>
<path d="M287.29 247.7L287.287 246.011L201.87 295.282L201.875 296.969L287.29 247.7Z" fill="#C1CDE3"/>
<path d="M182.386 321.383L182.39 323.069L287.333 262.537L287.328 260.849L182.386 321.383Z" fill="#C1CDE3"/>
<path d="M370.407 265.41L370.349 243.426L368.163 244.684L368.227 266.67L370.407 265.41Z" fill="#69D3FF"/>
<path d="M364.565 268.782L364.53 255.866L362.348 257.117L362.386 270.04L364.565 268.782Z" fill="#69D3FF"/>
<path d="M358.723 272.151L358.659 248.175L356.475 249.432L356.541 273.411L358.723 272.151Z" fill="#69D3FF"/>
<path d="M352.877 275.524L352.789 244.532L350.611 245.791L350.695 276.782L352.877 275.524Z" fill="#69D3FF"/>
<path d="M347.033 278.897L347.026 274.591L344.843 275.844L344.854 280.153L347.033 278.897Z" fill="#69D3FF"/>
<path d="M195.101 366.532L194.987 326.906L192.807 328.162L192.919 367.79L195.101 366.532Z" fill="#69D3FF"/>
<path d="M200.944 363.161L200.873 339.183L198.696 340.437L198.765 364.419L200.944 363.161Z" fill="#69D3FF"/>
<path d="M206.785 359.791L206.745 345.912L204.572 347.172L204.605 361.048L206.785 359.791Z" fill="#69D3FF"/>
<path d="M212.628 356.422L212.56 332.44L210.38 333.699L210.449 357.675L212.628 356.422Z" fill="#69D3FF"/>
<path d="M218.474 353.052L218.426 336.668L216.246 337.926L216.294 354.308L218.474 353.052Z" fill="#69D3FF"/>
<path d="M224.315 349.679L224.231 318.688L222.052 319.943L222.133 350.933L224.315 349.679Z" fill="#69D3FF"/>
<path d="M230.165 346.308L230.103 326.498L227.925 327.756L227.978 347.567L230.165 346.308Z" fill="#69D3FF"/>
<path d="M236.001 342.94L235.896 306.613L233.718 307.871L233.824 344.199L236.001 342.94Z" fill="#69D3FF"/>
<path d="M241.849 339.573L241.799 323.188L239.617 324.444L239.667 340.826L241.849 339.573Z" fill="#69D3FF"/>
<path d="M247.691 336.197L247.633 316.389L245.457 317.645L245.508 337.453L247.691 336.197Z" fill="#69D3FF"/>
<path d="M253.544 332.824L253.47 306.97L251.276 308.235L251.351 334.083L253.544 332.824Z" fill="#69D3FF"/>
<path d="M259.389 329.451L259.349 315.573L257.156 316.834L257.197 330.717L259.389 329.451Z" fill="#69D3FF"/>
<path d="M265.231 326.081L265.14 295.089L262.95 296.351L263.038 327.342L265.231 326.081Z" fill="#69D3FF"/>
<path d="M271.071 322.71L271.04 310.726L268.853 311.992L268.881 323.976L271.071 322.71Z" fill="#69D3FF"/>
<path d="M276.915 319.343L276.882 306.419L274.686 307.685L274.724 320.603L276.915 319.343Z" fill="#69D3FF"/>
<path d="M282.755 315.971L282.712 299.587L280.522 300.85L280.568 317.235L282.755 315.971Z" fill="#69D3FF"/>
<path d="M288.601 312.599L288.54 290.617L286.347 291.878L286.411 313.862L288.601 312.599Z" fill="#69D3FF"/>
<path d="M294.446 309.229L294.365 281.583L292.181 282.846L292.256 310.492L294.446 309.229Z" fill="#69D3FF"/>
<path d="M300.285 305.86L300.241 289.476L298.061 290.736L298.105 307.113L300.285 305.86Z" fill="#69D3FF"/>
<path d="M306.13 302.488L306.106 292.59L303.921 293.847L303.955 303.746L306.13 302.488Z" fill="#69D3FF"/>
<path d="M311.979 299.114L311.931 283.624L309.751 284.887L309.794 300.373L311.979 299.114Z" fill="#69D3FF"/>
<path d="M317.815 295.746L317.774 279.818L315.594 281.075L315.642 297.005L317.815 295.746Z" fill="#69D3FF"/>
<path d="M323.66 292.376L323.625 279.455L321.443 280.715L321.478 293.637L323.66 292.376Z" fill="#69D3FF"/>
<path d="M329.502 289.005L329.458 271.622L327.276 272.878L327.324 290.264L329.502 289.005Z" fill="#69D3FF"/>
<path d="M335.349 285.638L335.283 263.166L333.107 264.424L333.169 286.894L335.349 285.638Z" fill="#69D3FF"/>
<path d="M341.19 282.269L341.155 269.219L338.972 270.478L339.008 283.523L341.19 282.269Z" fill="#69D3FF"/>
<path fill-rule="evenodd" clip-rule="evenodd" d="M156.415 500.582C156.415 500.582 164.559 509.044 167.595 511.472C170.629 513.903 173.867 516.857 174.625 519.088C175.176 520.291 175.362 521.63 175.158 522.938C174.345 524.081 173.294 525.034 172.077 525.732C170.86 526.431 169.506 526.858 168.108 526.985C164.697 527.554 161.199 526.77 158.358 524.8C155.664 523.31 146.702 518.199 144.79 516.858C142.881 515.509 140.312 514.132 140.15 511.934C140.385 508.095 140.83 504.272 141.483 500.481L156.415 500.582Z" fill="#252736"/>
<path fill-rule="evenodd" clip-rule="evenodd" d="M167.982 511.786C167.982 511.786 166.737 511.692 166.172 511.631C165.801 511.581 165.444 511.457 165.121 511.268C164.798 511.079 164.517 510.827 164.292 510.528C163.517 509.691 155.317 501.678 155.317 501.678L157.7 501.26L167.982 511.786Z" fill="#393C52"/>
<path fill-rule="evenodd" clip-rule="evenodd" d="M168.419 512.145C171.195 514.43 173.936 517.058 174.625 519.088C174.794 519.58 174.938 520.081 175.055 520.588C173.496 522.479 168.714 525.463 165.436 524.703C162.731 523.949 160.2 522.675 157.983 520.953C161.466 512.209 168.419 512.145 168.419 512.145Z" fill="url(#paint0_linear_0_1)"/>
<path fill-rule="evenodd" clip-rule="evenodd" d="M157.724 521.638C157.724 521.638 159.431 517.43 160.984 514.608C161.799 513.121 160.689 511.97 158.834 510.121C156.567 507.858 151.199 502.495 151.199 502.495L141.299 501.105C140.809 503.751 140.485 506.424 140.33 509.109C140.33 509.109 140.619 513.59 157.724 521.638Z" fill="#393C52"/>
<path fill-rule="evenodd" clip-rule="evenodd" d="M144.79 513.221C146.702 514.569 155.664 519.676 158.358 521.163C161.198 523.136 164.697 523.92 168.108 523.348C170.714 523.042 173.116 521.792 174.861 519.835C175.326 520.886 175.431 522.061 175.159 523.177C174.345 524.319 173.293 525.272 172.076 525.971C170.859 526.669 169.506 527.097 168.108 527.224C164.697 527.793 161.199 527.009 158.358 525.039C155.664 523.549 146.702 518.435 144.79 517.093C142.881 515.752 140.312 514.372 140.15 512.174C140.138 511.149 140.198 510.125 140.33 509.109C140.965 510.852 143.125 512.048 144.79 513.221Z" fill="white"/>
<path fill-rule="evenodd" clip-rule="evenodd" d="M158.712 512.144C159.326 511.258 160.124 510.516 161.053 509.969C161.982 509.421 163.018 509.081 164.091 508.973L165.559 510.354C164.459 510.473 163.398 510.823 162.443 511.38C161.488 511.938 160.663 512.691 160.019 513.589L158.712 512.144Z" fill="white"/>
<path fill-rule="evenodd" clip-rule="evenodd" d="M156.532 509.943C157.144 509.056 157.942 508.312 158.87 507.764C159.799 507.216 160.836 506.876 161.909 506.769L163.378 508.149C162.278 508.269 161.216 508.619 160.26 509.177C159.305 509.735 158.479 510.489 157.836 511.388L156.532 509.943Z" fill="white"/>
<path fill-rule="evenodd" clip-rule="evenodd" d="M154.351 507.739C154.964 506.852 155.762 506.109 156.69 505.56C157.619 505.012 158.656 504.672 159.729 504.564L161.194 505.944C160.095 506.064 159.033 506.414 158.079 506.973C157.124 507.531 156.299 508.284 155.656 509.184L154.351 507.739Z" fill="white"/>
<path fill-rule="evenodd" clip-rule="evenodd" d="M152.168 505.534C152.78 504.646 153.579 503.903 154.508 503.354C155.437 502.806 156.474 502.467 157.547 502.36L159.013 503.74C157.913 503.859 156.851 504.209 155.896 504.768C154.941 505.326 154.115 506.079 153.472 506.979L152.168 505.534Z" fill="white"/>
<path d="M157.908 375.667C158.928 377.91 158.67 442.175 158.722 445.597C158.813 451.958 158.557 501.897 158.557 501.897C155.823 503.736 152.604 504.722 149.308 504.729C143.114 505.052 141.003 502.773 141.003 502.773C141.003 502.773 137.963 470.723 136.814 461.468C136.322 457.483 135.659 442.925 135.552 439.999C135.552 439.999 128.779 411.971 126.86 390.81C126.652 388.547 125.723 376.543 128.656 371.965C138.257 374.178 148.058 375.418 157.908 375.667Z" fill="#B5836B"/>
<path fill-rule="evenodd" clip-rule="evenodd" d="M134.174 513.331C134.174 513.331 142.321 521.787 145.354 524.221C148.387 526.646 151.628 529.603 152.387 531.837C152.937 533.041 153.122 534.38 152.917 535.687C152.103 536.828 151.052 537.781 149.835 538.479C148.619 539.177 147.266 539.604 145.869 539.731C142.458 540.297 138.961 539.515 136.118 537.549C133.423 536.056 124.462 530.945 122.552 529.603C120.639 528.259 118.071 526.879 117.909 524.68C118.146 520.841 118.592 517.018 119.243 513.228L134.174 513.331Z" fill="#252736"/>
<path fill-rule="evenodd" clip-rule="evenodd" d="M145.744 524.535C145.744 524.535 144.498 524.435 143.929 524.373C143.559 524.324 143.202 524.202 142.88 524.014C142.558 523.826 142.276 523.576 142.052 523.277C141.276 522.44 133.074 514.427 133.074 514.427L135.46 514.01L145.744 524.535Z" fill="#393C52"/>
<path fill-rule="evenodd" clip-rule="evenodd" d="M146.179 524.887C148.954 527.176 151.694 529.804 152.387 531.837C152.555 532.328 152.697 532.828 152.814 533.334C151.254 535.228 146.472 538.209 143.195 537.449C140.49 536.697 137.959 535.424 135.743 533.702C139.225 524.958 146.179 524.887 146.179 524.887Z" fill="url(#paint1_linear_0_1)"/>
<path fill-rule="evenodd" clip-rule="evenodd" d="M135.484 534.384C135.484 534.384 137.189 530.176 138.741 527.357C139.559 525.867 138.448 524.719 136.594 522.867C134.326 520.604 128.961 515.241 128.961 515.241L119.057 513.848C118.567 516.495 118.244 519.171 118.088 521.858C118.088 521.858 118.32 526.788 135.484 534.384Z" fill="#393C52"/>
<path fill-rule="evenodd" clip-rule="evenodd" d="M122.552 525.967C124.463 527.315 133.423 532.422 136.119 533.909C138.959 535.881 142.458 536.665 145.869 536.094C148.473 535.787 150.875 534.537 152.62 532.581C153.088 533.632 153.193 534.809 152.917 535.926C152.103 537.067 151.051 538.019 149.835 538.717C148.618 539.415 147.266 539.842 145.869 539.97C142.458 540.539 138.959 539.755 136.119 537.785C133.423 536.295 124.463 531.184 122.552 529.839C120.64 528.498 118.071 527.121 117.909 524.92C117.896 523.896 117.956 522.873 118.088 521.858C118.723 523.604 120.886 524.794 122.552 525.967Z" fill="white"/>
<path fill-rule="evenodd" clip-rule="evenodd" d="M136.474 524.891C137.087 524.004 137.886 523.262 138.814 522.715C139.742 522.167 140.779 521.828 141.852 521.719L143.321 523.103C142.22 523.22 141.158 523.57 140.202 524.127C139.247 524.685 138.421 525.439 137.778 526.339L136.474 524.891Z" fill="white"/>
<path fill-rule="evenodd" clip-rule="evenodd" d="M134.293 522.689C134.906 521.802 135.704 521.059 136.632 520.512C137.561 519.964 138.598 519.625 139.671 519.518L141.137 520.895C140.037 521.014 138.974 521.363 138.019 521.921C137.064 522.479 136.238 523.232 135.594 524.131L134.293 522.689Z" fill="white"/>
<path fill-rule="evenodd" clip-rule="evenodd" d="M132.111 520.481C132.724 519.595 133.522 518.852 134.45 518.305C135.378 517.757 136.415 517.418 137.487 517.31L138.953 518.694C137.853 518.811 136.791 519.161 135.836 519.718C134.881 520.276 134.056 521.03 133.414 521.93L132.111 520.481Z" fill="white"/>
<path fill-rule="evenodd" clip-rule="evenodd" d="M129.929 518.28C130.541 517.393 131.339 516.649 132.267 516.101C133.196 515.553 134.233 515.213 135.306 515.106L136.772 516.483C135.672 516.603 134.61 516.954 133.656 517.513C132.701 518.072 131.875 518.825 131.233 519.725L129.929 518.28Z" fill="white"/>
<path d="M142.255 388.551C143.159 390.845 139.548 455.007 139.415 458.427C139.179 464.788 136.314 514.643 136.314 514.643C133.488 516.337 130.222 517.154 126.931 516.99C120.73 516.99 118.74 514.604 118.74 514.604C118.74 514.604 117.378 482.434 116.712 473.138C116.43 469.133 116.529 454.56 116.572 451.632C116.572 451.632 111.273 423.288 110.457 402.055C110.373 399.782 110.069 387.748 113.24 383.327C122.711 386.039 132.432 387.789 142.255 388.551Z" fill="#D9A78D"/>
<path d="M140.838 294.18C140.838 294.18 148.87 291.844 154.666 303.221C160.461 314.598 167.579 325.469 167.579 325.469C167.579 325.469 181.306 300.173 182.832 297.228C184.357 294.282 186.187 290.523 188.628 289.71C191.068 288.898 197.576 287.781 198.794 287.069C200.016 286.358 201.337 285.444 201.337 287.069C201.174 287.947 200.781 288.767 200.198 289.445C199.615 290.123 198.864 290.635 198.019 290.929C200.248 291.032 202.482 290.93 204.693 290.625C208.556 290.117 214.964 287.984 215.37 288.999C215.776 290.015 210.795 296.555 206.828 298.11C203.832 299.326 200.601 299.858 197.372 299.666C194.117 299.666 191.984 298.142 190.558 300.072C189.136 302.002 179.171 331.97 177.339 336.948C175.511 341.926 171.748 346.599 166.969 346.395C162.191 346.192 159.851 340.402 155.884 335.119C151.919 329.837 141.854 317.24 138.904 311.754C135.957 306.269 133.11 298.751 140.838 294.18Z" fill="#FDDDC8"/>
<path fill-rule="evenodd" clip-rule="evenodd" d="M155.905 305.608L139.86 313.382C143.602 319.427 152.27 330.304 155.884 335.119C156.627 336.108 157.313 337.114 157.966 338.098C161.929 334.286 165 329.647 166.963 324.513C165.28 321.886 160.391 314.107 155.905 305.608Z" fill="url(#paint2_linear_0_1)"/>
<path fill-rule="evenodd" clip-rule="evenodd" d="M167.353 319.829C164.128 314.157 159.895 308.234 157.64 305.028C152.489 297.709 146.556 289.601 138.699 293.181C131.797 296.327 131.024 303.188 137.049 317.338C140.08 324.459 142.696 328.986 145.796 335.159C149.561 333.489 162.533 325.079 167.353 319.829Z" fill="#6275D1"/>
<path fill-rule="evenodd" clip-rule="evenodd" d="M122.332 297.209C117.045 300.256 111.925 303.584 106.994 307.178C101.565 311.8 100.002 315.765 100.798 324.98C101.59 334.2 110.098 357.954 110.817 365.344C111.532 372.732 110.389 385.842 111.163 387.748C111.93 389.658 121.313 398.317 134.671 395.374C148.032 392.439 158.261 385.683 158.314 380.518C158.371 375.354 155.668 346.036 155.668 337.852C155.668 329.669 154.794 308.694 152.804 302.655C150.816 296.618 147.954 292.884 140.639 294.473C133.32 296.062 122.332 297.209 122.332 297.209Z" fill="#8599FF"/>
<path fill-rule="evenodd" clip-rule="evenodd" d="M100.88 325.752L122.724 326.5L154.54 386.527C150.389 390.093 143.171 393.507 134.671 395.375C121.313 398.317 111.93 389.658 111.163 387.748C110.39 385.842 111.532 372.732 110.817 365.344C110.118 358.151 102.042 335.46 100.88 325.752Z" fill="#6275D1"/>
<path d="M109.451 309.294C101.979 310.602 99.4212 316.473 104.166 331.1C108.909 345.729 114.023 359.629 115.649 363.014C117.277 366.4 119.177 367.078 128.394 368.432C137.612 369.786 161.442 369.279 169.372 369.279C177.304 369.279 186.048 370.481 188.895 369.372C191.574 368.348 193.83 366.455 195.302 363.995C196.115 362.167 195.606 360.238 196.42 358.916C197.232 357.596 198.047 354.447 196.927 354.244C195.81 354.041 192.351 356.885 189.709 356.986C187.459 356.968 185.215 356.765 182.998 356.377C183.287 355.61 183.626 354.864 184.014 354.142C184.624 353.024 185.844 350.484 185.03 349.57C184.217 348.656 183.405 348.961 182.795 349.978C180.896 351.991 178.702 353.704 176.286 355.056C174.066 356.183 172.041 357.658 170.288 359.425C168.456 361.354 168.356 361.456 164.797 360.948C161.238 360.44 145.782 357.799 140.293 356.072C134.8 354.346 129.716 352.719 129.716 352.719C129.716 352.719 123.925 331.507 122.096 323.989C120.266 316.473 117.958 307.805 109.451 309.294Z" fill="#FDDDC8"/>
<path fill-rule="evenodd" clip-rule="evenodd" d="M109.39 313.202C107.599 313.415 105.915 314.165 104.558 315.351C103.201 316.538 102.235 318.107 101.786 319.852C102.084 323.689 102.884 327.471 104.166 331.1C106.918 339.589 109.791 347.816 112.038 353.902C117.616 352.18 123.046 350.014 128.277 347.424C126.439 340.633 123.345 329.121 122.096 323.989C121.741 322.533 121.368 321.035 120.936 319.574C118.122 315.276 114.448 312.317 109.39 313.202Z" fill="url(#paint3_linear_0_1)"/>
<path fill-rule="evenodd" clip-rule="evenodd" d="M129.678 340.891C127.988 334.592 126.295 327.803 124.92 324.134C121.78 315.755 117.171 306.405 108.665 307.893C101.192 309.202 98.7157 315.647 100.979 330.857C102.118 338.512 103.509 343.551 104.952 350.304C109.016 349.635 123.691 344.76 129.678 340.891Z" fill="#8599FF"/>
<path fill-rule="evenodd" clip-rule="evenodd" d="M124.409 286.161C124.558 288.367 124.5 290.581 124.235 292.776C123.754 294.78 122.855 296.661 121.594 298.293C120.954 299.157 120.931 303.193 123.877 305.638C127.379 308.549 132.509 311.481 137.028 311.262C138.704 311.063 142.014 310.976 142.211 308.392C142.249 307.781 142.199 307.168 142.062 306.571C141.245 302.523 140.996 298.38 141.323 294.263L124.409 286.161Z" fill="#FDDDC8"/>
<path fill-rule="evenodd" clip-rule="evenodd" d="M124.29 292.393C124.491 290.322 124.532 288.238 124.412 286.161L141.082 294.459C140.763 298.381 141.064 302.328 141.973 306.157C141.773 306.65 141.422 307.068 140.97 307.351C140.519 307.634 139.99 307.769 139.458 307.735C136.154 307.687 129.397 301.663 124.29 292.393Z" fill="url(#paint4_linear_0_1)"/>
<path fill-rule="evenodd" clip-rule="evenodd" d="M141.651 256.275C143.938 257.782 145.833 259.811 147.181 262.194C148.529 264.577 149.291 267.246 149.403 269.981C149.373 272.821 149.552 275.66 149.941 278.473C150.435 281.682 150.435 284.947 149.941 288.156C149.392 291.051 148.532 293.879 147.375 296.59C146.716 297.209 145.926 297.671 145.064 297.944C144.203 298.217 143.29 298.293 142.395 298.166C137.262 297.028 132.335 295.108 127.785 292.474C125.428 290.688 123.637 286.068 123.637 286.068C119.833 283.146 117.156 278.999 116.061 274.331C114.094 266.345 119.58 255.741 126.502 254.427C133.42 253.118 139.561 254.904 141.651 256.275Z" fill="#FDDDC8"/>
<path fill-rule="evenodd" clip-rule="evenodd" d="M124.532 278.598L125.412 282.285L126.849 281.514L127.095 276.693L128.908 275.799L128.818 270.281C132.679 274.002 138.058 275.987 138.027 275.533C137.995 275.078 137.092 271.73 137.092 271.73C142.355 274.827 147.035 276.456 146.836 275.686C146.372 274.489 145.843 273.318 145.249 272.179C146.829 273.539 148.563 274.709 150.415 275.667C150.478 275.47 150.436 266.201 149.3 263.829C148.165 261.457 145.049 256.003 139.731 254.205C134.415 252.409 125.428 253.891 122.097 255.802C121.039 256.538 120.138 257.477 119.445 258.563C118.753 259.65 118.283 260.862 118.063 262.132C118.063 262.132 115.749 263.443 115.545 268.214C115.702 272.704 116.792 277.111 118.745 281.157C119.257 282.114 119.989 282.937 120.881 283.557C120.34 281.825 120.214 279.991 120.512 278.201C121.131 275.997 123.411 276.272 124.532 278.598Z" fill="#8F5D62"/>
<path d="M85.0197 210.357L118.48 191.561C121.803 189.644 124.518 191.199 124.529 195.005V242.597C124.534 243.712 124.267 244.382 123.811 244.644C123.642 244.727 123.458 244.772 123.27 244.773C123.082 244.775 122.897 244.735 122.727 244.655L115.919 242.104L85.0585 259.464C81.7341 261.381 79.0113 259.829 79 256.026V220.763C79.1148 218.678 79.7196 216.65 80.7655 214.842C81.8113 213.034 83.2688 211.497 85.0197 210.357Z" fill="#FC8CBE"/>
<path d="M646.425 432.359C646.4 422.698 642.972 415.89 637.45 412.685C594.916 387.991 482.791 321.66 440.258 296.966C445.781 300.172 449.208 306.975 449.237 316.64L449.659 414.168L646.849 529.891L646.425 432.359Z" fill="#ABBAD6"/>
<path d="M448.58 282.635C440.844 278.145 430.141 278.763 418.342 285.57L185.977 419.604C162.53 433.127 143.523 466.02 143.601 492.933L144.023 590.465L341.213 706.186L340.789 608.651C340.715 581.737 359.722 548.846 383.167 535.322L615.532 401.29C627.331 394.486 638.036 393.863 645.772 398.354C603.237 373.66 491.113 307.329 448.58 282.635Z" fill="#C1CDE3"/>
<path d="M596.585 376.647C605.114 381.569 605.169 389.549 596.697 394.467L371.563 525.102C363.085 530.019 349.3 530.014 340.767 525.092L196.185 441.535C187.654 436.615 187.611 428.643 196.084 423.723L421.217 293.089C429.689 288.17 443.471 288.17 452.006 293.089L596.585 376.647Z" fill="#242B3D"/>
<path d="M454.284 441.49L350.652 501.654L352.481 502.708L456.11 442.544L454.284 441.49Z" fill="#DAE3F2"/>
<path d="M356.333 504.933L358.17 505.99L423.933 467.805L422.096 466.749L356.333 504.933Z" fill="#DAE3F2"/>
<path d="M448.603 438.214L344.977 498.38L346.802 499.435L450.432 439.269L448.603 438.214Z" fill="#DAE3F2"/>
<path d="M442.92 434.932L339.29 495.102L341.125 496.161L444.754 435.995L442.92 434.932Z" fill="#DAE3F2"/>
<path d="M439.073 432.718L437.241 431.659L357.981 477.677L359.82 478.737L439.073 432.718Z" fill="#DAE3F2"/>
<path d="M565.427 376.741L461.797 436.905L463.626 437.959L567.253 377.793L565.427 376.741Z" fill="#FC8CBE"/>
<path d="M467.476 440.184L469.311 441.24L535.076 403.056L533.241 401.999L467.476 440.184Z" fill="#FC8CBE"/>
<path d="M559.746 373.465L456.12 433.631L457.945 434.686L561.575 374.518L559.746 373.465Z" fill="#FC8CBE"/>
<path d="M554.063 370.185L450.433 430.353L452.266 431.412L555.897 371.246L554.063 370.185Z" fill="#FC8CBE"/>
<path d="M550.218 367.967L548.384 366.91L469.124 412.928L470.963 413.988L550.218 367.967Z" fill="#FC8CBE"/>
<path d="M480.941 331.041L460.589 347.105L419.832 350.958L423.738 380.7L393.051 390.714L380.208 410.841L354.222 423.476L337.206 441.394L295.448 444.651L307.028 478.591L305.757 478.735L293.911 444.01L336.378 440.697L353.205 422.991L379.106 410.386L392 390.195L422.382 380.279L418.44 350.328L459.85 346.412L479.892 330.598L480.941 331.041Z" fill="#FC8CBE"/>
<path d="M513.594 349.283L514.265 349.929L484.252 360.321L440.695 362.504L440.874 389.953L431.112 412.142L395.614 419.497L355.548 424.034L320.055 430.659L334.131 466.493L279.856 463.217L279.982 462.472L332.468 465.639L318.524 430.159L355.221 423.312L395.255 418.776L430.022 411.568L439.603 389.807L439.395 361.811L483.835 359.586L513.594 349.283Z" fill="#69D3FF"/>
<path d="M494.339 342.819L494.506 343.564L452.51 346.721L434.885 363.891L413.819 379.321L399.777 398.87L371.994 410.419L359.078 430.676L318.528 434.822L310.215 457.646L263.457 458.552L263.413 457.804L309.145 456.915L317.436 434.171L358.124 430.012L370.919 409.941L398.717 398.384L412.753 378.897L433.819 363.466L451.712 346.023L494.339 342.819Z" fill="#CEA4F5"/>
<path d="M540.012 359.177L312.829 491.08L234.838 446.092L235.759 445.558L312.831 490.014L539.092 358.648L540.012 359.177Z" fill="#DAE3F2"/>
<g style="mix-blend-mode:overlay" opacity="0.2">
<path d="M565.173 412.759L596.697 394.467C605.169 389.549 605.114 381.569 596.585 376.647L452.007 293.089C443.471 288.17 429.689 288.17 421.217 293.089L271.216 380.128L565.173 412.759Z" fill="white"/>
</g>
<path d="M615.532 401.29C638.979 387.767 658.11 398.663 658.185 425.576L658.609 523.106L646.849 529.891L646.425 432.359C646.372 412.906 632.532 405.025 615.571 414.808L383.206 548.84C366.261 558.615 352.51 582.41 352.565 601.863L352.986 699.395L341.213 706.186L340.789 608.651C340.715 581.737 359.722 548.846 383.167 535.321L615.532 401.29Z" fill="#DAE3F2"/>
<path fill-rule="evenodd" clip-rule="evenodd" d="M625.864 579.99C625.864 579.99 627.257 588.815 627.257 590.508C627.292 591.387 627.137 592.263 626.803 593.076C626.468 593.889 625.963 594.621 625.32 595.222C624.131 596.111 622.766 596.739 621.316 597.062C619.865 597.385 618.363 597.397 616.908 597.096C613.218 596.191 599.992 588.556 598.42 587.47C597.638 586.913 597.076 586.1 596.833 585.172C596.59 584.244 596.68 583.26 597.088 582.392C598.085 580.706 599.581 579.37 601.369 578.569C603.157 577.768 605.15 577.54 607.073 577.918C613.124 578.765 612.31 576.483 616.183 577.026C619.5 577.691 622.743 578.684 625.864 579.99Z" fill="#7485DE"/>
<path fill-rule="evenodd" clip-rule="evenodd" d="M611.409 537.156L613.944 579.567C614.677 580.589 615.638 581.427 616.751 582.014C617.864 582.601 619.098 582.922 620.357 582.951C624.472 582.89 625.863 581.076 625.863 579.99V537.156H611.409Z" fill="#FDDDC8"/>
<path d="M606.932 427.025C606.932 427.025 603.441 466.781 605.853 496.882C607.537 517.887 610.278 555.901 610.278 555.901C610.278 555.901 617.548 561.041 627.256 554.796V517.46C627.256 510.219 627.619 503.648 627.497 495.486C627.376 487.323 631.676 473.188 633.081 468.769C636.206 458.935 636.187 437.656 629.408 427.59L606.932 427.025Z" fill="#CDD2E6"/>
<path fill-rule="evenodd" clip-rule="evenodd" d="M609.009 587.393C609.009 587.393 610.401 596.221 610.401 597.915C610.436 598.793 610.281 599.669 609.947 600.482C609.613 601.296 609.107 602.027 608.464 602.628C607.275 603.517 605.91 604.144 604.46 604.468C603.01 604.791 601.508 604.803 600.053 604.502C596.362 603.597 583.136 595.962 581.564 594.876C580.782 594.319 580.22 593.506 579.977 592.578C579.734 591.65 579.824 590.666 580.232 589.798C581.229 588.112 582.724 586.777 584.512 585.975C586.3 585.174 588.293 584.946 590.216 585.324C596.268 586.171 595.454 583.889 599.327 584.432C602.644 585.097 605.888 586.089 609.009 587.393Z" fill="#8599FF"/>
<path fill-rule="evenodd" clip-rule="evenodd" d="M594.555 555.145L597.088 586.972C597.822 587.995 598.783 588.832 599.896 589.42C601.009 590.007 602.244 590.328 603.503 590.357C607.617 590.295 609.009 588.482 609.009 587.393V555.145H594.555Z" fill="#FDDDC8"/>
<path d="M590.077 434.43C590.077 434.43 586.585 474.186 588.997 504.288C590.682 525.293 594.011 563.178 594.011 563.178C594.011 563.178 604.504 567.248 610.501 562.163C610.501 562.163 611.751 537.56 610.991 525.079C610.535 517.59 610.763 511.053 610.642 502.891C610.522 494.729 617.305 479.41 618.517 474.937C619.727 470.463 624.925 447.732 619.848 433.825L590.077 434.43Z" fill="#E3E6F2"/>
<path fill-rule="evenodd" clip-rule="evenodd" d="M572.201 383.686C573.366 383.22 574.566 382.844 575.789 382.561C576.752 382.4 577.699 382.149 578.615 381.811C579.721 381.456 580.886 381.32 582.045 381.411L574.957 386.289L572.201 383.686Z" fill="url(#paint5_linear_0_1)"/>
<path fill-rule="evenodd" clip-rule="evenodd" d="M617.514 397.86L617.972 408.239C617.972 408.239 612.929 405.247 608.586 403.12C604.24 400.99 592.204 393.654 590.059 391.39C587.912 389.125 584.039 383.502 583.662 383C583.29 382.498 582.337 381.218 581.659 381.365C578.365 382.329 575.492 384.374 573.506 387.171C573.816 388.846 576.208 391.325 577.439 392.917C579.429 394.85 581.868 396.26 584.537 397.021C586.948 397.729 594.809 406.12 601.469 412.593C606.251 417.405 611.344 421.898 616.717 426.042C619.75 428.177 621.552 428.053 623.684 426.59C625.815 425.124 627.408 413.495 630.542 408.863L617.514 397.86Z" fill="#FDDDC8"/>
<path fill-rule="evenodd" clip-rule="evenodd" d="M577.324 386.082C577.324 386.082 574.532 383.754 573.846 383.172C573.173 382.553 572.364 382.1 571.484 381.85C570.625 381.66 568.169 381.049 567.481 380.767C566.794 380.486 565.443 379.71 565.191 379.893C565.014 380.55 565.089 381.249 565.402 381.854C565.715 382.458 566.242 382.924 566.881 383.159C568.936 384.132 570.08 384.11 570.859 384.638C571.642 385.165 574.439 387.995 574.439 387.995L577.324 386.082Z" fill="#FDDDC8"/>
<path fill-rule="evenodd" clip-rule="evenodd" d="M573.665 387.672C574.667 389.525 575.901 391.243 577.335 392.786C579.333 391.703 581.037 390.391 579.958 389.434C578.098 388.198 575.896 387.582 573.665 387.672Z" fill="url(#paint6_linear_0_1)"/>
<path fill-rule="evenodd" clip-rule="evenodd" d="M580.417 395.141C580.417 395.141 577.274 393.856 575.308 393.261C574.101 393.002 572.976 392.45 572.034 391.653C571.298 391.027 570.448 389.421 569.887 388.968C569.322 388.516 567.971 387.656 568.169 387.165C568.368 386.68 570.537 386.282 572.144 387.478C573.749 388.673 574.084 389.204 574.928 389.272C575.774 389.335 577.715 388.264 579.742 389.301C581.769 390.342 582.252 394.215 580.417 395.141Z" fill="#FDDDC8"/>
<path fill-rule="evenodd" clip-rule="evenodd" d="M604.26 367.283C604.26 367.283 593.455 377.09 589.866 381.359C585.936 386.304 584.065 392.572 584.641 398.86C585.541 404.554 588.44 418.476 589.231 424.642C590.022 430.81 588.341 431.382 588.043 432.643C587.832 433.491 587.939 434.387 588.343 435.161C588.748 435.936 589.423 436.536 590.24 436.847C593.053 438.351 596.757 441.221 612.59 439.046C626.957 437.071 631.068 433.806 631.911 432.384C632.367 431.748 632.667 431.014 632.786 430.241C632.906 429.467 632.841 428.677 632.598 427.933C632.018 426.349 629.759 426.583 630.243 424.397C631.194 420.097 639.513 390.969 639.437 380.218C639.361 369.463 636.123 362.014 630.005 360.467C623.883 358.919 616.94 360.818 612.53 362.644C609.621 363.902 606.85 365.457 604.26 367.283Z" fill="#8599FF"/>
<path fill-rule="evenodd" clip-rule="evenodd" d="M588.043 432.643C587.832 433.491 587.939 434.387 588.343 435.162C588.748 435.936 589.423 436.536 590.24 436.848C592.115 437.85 596.289 440.878 608.395 439.537C610.72 424.989 609.32 410.09 604.325 396.229L584.641 398.855V398.86C585.541 404.554 588.44 418.476 589.231 424.642C590.022 430.81 588.341 431.382 588.043 432.643Z" fill="#6275D1"/>
<path fill-rule="evenodd" clip-rule="evenodd" d="M603.944 367.572C604.524 366.172 605.557 365.006 606.879 364.262C609.779 362.606 612.898 361.365 616.144 360.574C618.431 359.922 620.673 359.123 622.856 358.182C623.553 359.685 624.085 361.258 624.445 362.875C624.657 364.545 618.868 367.498 614.195 368.18C610.779 368.809 607.261 368.601 603.944 367.572Z" fill="#C4EAFF"/>
<path fill-rule="evenodd" clip-rule="evenodd" d="M621.358 358.802C621.949 360.949 622.182 363.179 622.045 365.401C623.552 364.508 624.534 363.578 624.445 362.875C624.085 361.258 623.553 359.685 622.856 358.182C622.856 358.182 622.306 358.431 621.358 358.802Z" fill="#A3DEFF"/>
<path fill-rule="evenodd" clip-rule="evenodd" d="M605.027 313.586C598.869 315.186 595.618 319.948 594.475 325.394C593.065 332.118 593.665 332.6 592.751 336.464C591.81 339.586 591.63 342.888 592.225 346.094C593.017 349.67 594.074 353.182 595.389 356.601C595.846 357.936 596.337 358.465 598.45 358.36C600.251 358.164 602.029 357.799 603.761 357.27C604.255 357.163 604.606 358.288 604.606 359.132C604.606 359.976 604.219 368.18 604.219 368.18H624.005C624.005 368.18 621.893 360.167 623.37 353.789C624.849 347.411 631.134 344.178 631.815 332.176C632.5 320.052 625.042 308.385 605.027 313.586Z" fill="#FDDDC8"/>
<path fill-rule="evenodd" clip-rule="evenodd" d="M625.627 348.73H606.224C603.957 354.623 598.47 358.343 596.74 358.217C597.297 358.365 597.876 358.414 598.45 358.359C600.251 358.163 602.029 357.799 603.761 357.27C604.255 357.163 604.606 358.288 604.606 359.132C604.606 359.976 604.219 368.18 604.219 368.18H624.005C624.005 368.18 621.893 360.166 623.37 353.789C623.841 351.99 624.603 350.282 625.627 348.73Z" fill="url(#paint7_linear_0_1)"/>
<path fill-rule="evenodd" clip-rule="evenodd" d="M619.889 311.671C615.033 311.11 610.128 311.11 605.272 311.671C601.105 312.037 593.612 311.619 591.872 312.936C590.132 314.255 587.491 333.02 605.169 340.611C605.736 346.091 606.723 351.518 608.123 356.847C608.44 357.269 615.748 359.258 623.121 355.099C626.54 349.255 633.723 344.195 634.4 331.756C635.138 318.207 626.54 312.884 619.889 311.671Z" fill="#444A63"/>
<path fill-rule="evenodd" clip-rule="evenodd" d="M632.679 340.248C630.321 348.458 630.947 357.236 634.446 365.03C637.759 372.043 642.842 377.231 642.721 385.186C642.599 393.141 633.645 405.793 619.727 399.013C605.81 392.233 600.828 369.508 606.224 348.73C606.224 348.73 622.516 347.466 632.679 340.248Z" fill="#444A63"/>
<path fill-rule="evenodd" clip-rule="evenodd" d="M603.426 341.77C603.426 341.77 604.085 337.371 606.594 336.868C609.098 336.367 610.153 339.847 609.889 342.299C609.421 344.792 608.131 347.056 606.223 348.73C605.246 349.15 602.74 346.46 603.426 341.77Z" fill="#FDDDC8"/>
<path fill-rule="evenodd" clip-rule="evenodd" d="M606.62 346.797C606.62 347.379 606.303 347.85 605.91 347.85C605.522 347.85 605.205 347.379 605.205 346.797C605.205 346.213 605.522 345.741 605.91 345.741C606.303 345.741 606.62 346.213 606.62 346.797Z" fill="#301D19"/>
<path fill-rule="evenodd" clip-rule="evenodd" d="M600.681 335.234C600.681 335.234 602.584 342.64 600.681 347.359C602.088 346.073 603.183 344.484 603.883 342.711C604.582 340.939 604.868 339.031 604.719 337.132L600.681 335.234Z" fill="#444A63"/>
<path d="M596.153 389.234C602.527 390.35 604.708 395.356 600.66 407.832C596.616 420.309 592.254 432.164 590.868 435.052C589.48 437.938 587.857 438.519 579.998 439.673C572.136 440.827 551.812 440.395 545.048 440.395C538.284 440.395 530.826 441.422 528.397 440.474C526.112 439.601 524.188 437.985 522.933 435.887C522.239 434.329 522.674 432.684 521.98 431.556C521.288 430.43 520.592 427.745 521.546 427.571C522.501 427.399 525.45 429.823 527.704 429.91C529.622 429.895 531.536 429.721 533.426 429.391C533.18 428.737 532.89 428.1 532.56 427.484C532.039 426.53 530.999 424.364 531.693 423.585C532.387 422.805 533.079 423.065 533.6 423.933C535.22 425.65 537.091 427.11 539.151 428.264C541.045 429.225 542.772 430.483 544.268 431.989C545.829 433.634 545.915 433.723 548.95 433.289C551.986 432.856 565.168 430.602 569.85 429.13C574.533 427.658 578.87 426.272 578.87 426.272C578.87 426.272 583.808 408.179 585.369 401.767C586.93 395.356 588.899 387.964 596.153 389.234Z" fill="#FDDDC8"/>
<path fill-rule="evenodd" clip-rule="evenodd" d="M582.575 409.579C582.575 409.579 582.255 412.782 582.096 413.482C581.938 414.179 582.714 416.568 588.706 418.725C594.689 420.886 597.141 419.855 597.446 419.406C597.747 418.953 598.979 414.651 598.979 414.651L582.575 409.579Z" fill="#A8B7FF"/>
<path fill-rule="evenodd" clip-rule="evenodd" d="M593.156 382.29C587.076 381.875 584.963 389.233 583.983 395.588C583.001 401.943 582.481 404.58 581.448 405.666C580.414 406.752 581.275 409.7 582.192 410.631C584.669 413.383 587.974 415.256 591.609 415.97C597.669 417.398 601.422 415.982 601.972 413.597C602.827 409.905 602.81 409.31 602.88 403.217C602.948 397.124 605.941 383.158 593.156 382.29Z" fill="#8599FF"/>
<path fill-rule="evenodd" clip-rule="evenodd" d="M485.58 390.156C487.97 390.795 490.121 392.117 491.769 393.961C493.417 395.805 494.489 398.09 494.855 400.534C496.095 406.445 495.569 406.862 496.372 410.261C497.197 413.006 497.355 415.908 496.835 418.727C496.138 421.869 495.208 424.956 494.052 427.96C493.649 429.137 493.217 429.599 491.363 429.505C489.78 429.335 488.216 429.013 486.694 428.545C486.261 428.455 485.954 429.444 485.954 430.181C485.954 430.924 486.293 438.136 486.293 438.136H468.902C469.949 434.002 470.138 429.698 469.459 425.488C468.163 419.881 462.637 417.043 462.038 406.492C461.438 395.838 467.99 385.582 485.58 390.156Z" fill="#FDDDC8"/>
<path fill-rule="evenodd" clip-rule="evenodd" d="M467.477 421.042H484.53C486.521 426.222 491.34 429.492 492.864 429.379C492.376 429.512 491.867 429.555 491.363 429.505C489.78 429.335 488.216 429.013 486.694 428.545C486.261 428.454 485.953 429.444 485.953 430.181C485.953 430.924 486.293 438.136 486.293 438.136H468.902C469.948 434.002 470.138 429.698 469.458 425.488C469.045 423.908 468.375 422.406 467.477 421.042Z" fill="url(#paint8_linear_0_1)"/>
<path fill-rule="evenodd" clip-rule="evenodd" d="M472.519 388.474C476.787 387.98 481.097 387.98 485.365 388.474C489.027 388.795 489.467 389.933 490.996 391.089C492.525 392.249 494.672 407.626 485.458 413.909C484.959 418.724 484.091 423.494 482.863 428.176C482.582 428.545 476.159 430.297 469.679 426.642C466.676 421.505 460.367 417.057 459.768 406.127C459.119 394.218 466.676 389.537 472.519 388.474Z" fill="#DBB58F"/>
<path fill-rule="evenodd" clip-rule="evenodd" d="M481.589 399.375L492.062 402.17C491.832 404.476 491.126 406.71 489.99 408.73C488.853 410.75 487.31 412.514 485.458 413.909C484.924 418.549 482.871 419.597 481.778 417.108C476.758 405.681 481.589 399.375 481.589 399.375Z" fill="#C78C71"/>
<path fill-rule="evenodd" clip-rule="evenodd" d="M486.987 414.926C486.987 414.926 486.409 411.058 484.204 410.618C482.003 410.177 481.076 413.233 481.307 415.39C481.717 417.581 482.852 419.571 484.53 421.042C485.389 421.412 487.59 419.05 486.987 414.926Z" fill="#FDDDC8"/>
<path fill-rule="evenodd" clip-rule="evenodd" d="M484.184 419.341C484.184 419.855 484.46 420.271 484.805 420.271C485.148 420.271 485.429 419.855 485.429 419.341C485.429 418.832 485.148 418.417 484.805 418.417C484.46 418.417 484.184 418.832 484.184 419.341Z" fill="white"/>
<path fill-rule="evenodd" clip-rule="evenodd" d="M489.401 409.181C489.401 409.181 487.73 415.69 489.401 419.837C488.165 418.708 487.202 417.312 486.587 415.755C485.972 414.198 485.721 412.521 485.852 410.853L489.401 409.181Z" fill="#C78C71"/>
<path fill-rule="evenodd" clip-rule="evenodd" d="M485.365 388.474C485.365 388.474 493.026 388.337 494.269 388.474C495.508 388.605 498.96 395.825 497.666 403.746C497.666 403.746 496.425 402.723 496.262 402.021C495.883 407.4 491.248 413.5 491.033 413.174C490.855 412.469 490.764 411.746 490.762 411.019C490.762 411.019 486.017 416.647 484.561 415.826C483.106 415.008 483.376 407.355 483.376 407.355C483.376 407.355 481.492 408.811 481.272 408.218C480.61 401.375 482.037 394.492 485.365 388.474Z" fill="#DBB58F"/>
<path fill-rule="evenodd" clip-rule="evenodd" d="M489.032 653.1C489.032 653.1 490.425 661.925 490.425 663.619C490.46 664.497 490.305 665.373 489.971 666.186C489.637 666.999 489.131 667.731 488.489 668.332C487.299 669.221 485.934 669.849 484.484 670.172C483.034 670.495 481.531 670.507 480.076 670.207C476.386 669.302 463.161 661.666 461.588 660.58C460.806 660.023 460.245 659.21 460.002 658.282C459.758 657.354 459.849 656.37 460.257 655.502C461.254 653.816 462.749 652.48 464.537 651.679C466.326 650.878 468.319 650.651 470.242 651.028C476.292 651.875 475.478 649.593 479.351 650.136C482.669 650.802 485.911 651.794 489.032 653.1Z" fill="#7485DE"/>
<path fill-rule="evenodd" clip-rule="evenodd" d="M474.578 594.149L477.113 652.677C477.846 653.699 478.807 654.536 479.92 655.124C481.033 655.711 482.267 656.032 483.525 656.061C487.641 656 489.032 654.186 489.032 653.1V594.149H474.578Z" fill="#FDDDC8"/>
<path fill-rule="evenodd" clip-rule="evenodd" d="M472.178 660.503C472.178 660.503 473.569 669.331 473.569 671.025C473.605 671.903 473.45 672.779 473.116 673.592C472.782 674.405 472.276 675.137 471.633 675.737C470.75 676.553 469.664 677.117 468.488 677.37C467.313 677.624 466.091 677.557 464.95 677.178C461.258 676.272 446.853 668.555 445.281 667.469C443.707 666.379 442.494 664.54 443.401 662.908C444.398 661.222 445.893 659.886 447.681 659.085C449.469 658.284 451.462 658.056 453.384 658.434C459.437 659.281 458.623 656.999 462.496 657.542C465.813 658.207 469.056 659.199 472.178 660.503Z" fill="#7485DE"/>
<path fill-rule="evenodd" clip-rule="evenodd" d="M457.723 598.01L460.257 660.083C460.99 661.105 461.951 661.943 463.065 662.53C464.178 663.117 465.412 663.438 466.671 663.467C470.785 663.406 472.178 661.592 472.178 660.503V598.01H457.723Z" fill="#FDDDC8"/>
<path fill-rule="evenodd" clip-rule="evenodd" d="M453.289 507.259C451.497 520.892 450.437 534.612 450.113 548.358C450.113 565.599 451.768 594.288 451.7 595.39C451.632 596.492 456.002 603.528 472.178 603.252C488.354 602.975 491.667 595.666 491.667 593.735C491.667 591.804 491.337 565.468 493.711 555.258C496.084 545.048 500.073 530.205 497.943 518.975C497.021 513.404 495.605 507.925 493.711 502.605L453.289 507.259Z" fill="#E3E6F2"/>
<path fill-rule="evenodd" clip-rule="evenodd" d="M434.131 431.592C435.297 431.125 436.496 430.749 437.72 430.467C438.683 430.306 439.629 430.055 440.546 429.717C441.652 429.361 442.817 429.225 443.975 429.316L436.888 434.194L434.131 431.592Z" fill="url(#paint9_linear_0_1)"/>
<path fill-rule="evenodd" clip-rule="evenodd" d="M479.445 445.763L479.903 456.143C479.903 456.143 474.86 453.153 470.516 451.026C466.171 448.895 454.135 441.558 451.99 439.295C449.843 437.029 445.97 431.407 445.593 430.903C445.221 430.402 444.268 429.122 443.59 429.271C440.296 430.234 437.423 432.279 435.437 435.076C435.747 436.751 438.138 439.23 439.369 440.821C441.359 442.755 443.798 444.165 446.468 444.926C448.879 445.634 456.739 454.025 463.4 460.497C468.181 465.31 473.275 469.803 478.647 473.947C481.681 476.081 483.483 475.958 485.615 474.494C487.746 473.029 489.339 461.399 492.473 456.767L479.445 445.763Z" fill="#FDDDC8"/>
<path fill-rule="evenodd" clip-rule="evenodd" d="M439.255 433.987C439.255 433.987 436.463 431.659 435.777 431.078C435.104 430.459 434.295 430.006 433.415 429.755C432.556 429.565 430.1 428.954 429.412 428.673C428.725 428.391 427.374 427.616 427.121 427.797C426.945 428.454 427.02 429.153 427.333 429.758C427.646 430.363 428.173 430.829 428.812 431.065C430.867 432.038 432.01 432.015 432.79 432.542C433.573 433.069 436.37 435.901 436.37 435.901L439.255 433.987Z" fill="#FDDDC8"/>
<path fill-rule="evenodd" clip-rule="evenodd" d="M435.595 435.577C436.598 437.43 437.831 439.148 439.266 440.691C441.264 439.608 442.967 438.296 441.888 437.339C440.029 436.103 437.826 435.486 435.595 435.577Z" fill="url(#paint10_linear_0_1)"/>
<path fill-rule="evenodd" clip-rule="evenodd" d="M442.348 443.044C442.348 443.044 439.204 441.761 437.239 441.166C436.032 440.907 434.907 440.354 433.964 439.557C433.228 438.933 432.379 437.326 431.818 436.874C431.253 436.421 429.902 435.561 430.1 435.07C430.299 434.585 432.468 434.187 434.074 435.383C435.679 436.576 436.014 437.11 436.859 437.177C437.705 437.239 439.646 436.169 441.673 437.207C443.7 438.247 444.182 442.12 442.348 443.044Z" fill="#FDDDC8"/>
<path fill-rule="evenodd" clip-rule="evenodd" d="M467.429 440.392C467.429 440.392 456.624 450.2 453.035 454.47C449.105 459.415 447.234 465.683 447.81 471.971C448.709 477.663 451.608 491.586 452.4 497.753C453.191 503.921 451.51 504.493 451.212 505.754C451.001 506.602 451.107 507.498 451.512 508.272C451.917 509.047 452.592 509.646 453.409 509.958C456.222 511.461 459.925 514.331 475.759 512.156C490.126 510.181 494.237 506.916 495.08 505.495C495.536 504.859 495.836 504.125 495.955 503.352C496.074 502.578 496.01 501.788 495.767 501.044C495.186 499.46 492.928 499.693 493.412 497.508C494.363 493.208 502.681 464.08 502.605 453.329C502.529 442.574 499.292 435.123 493.174 433.578C487.052 432.03 480.109 433.927 475.699 435.754C472.79 437.012 470.018 438.566 467.429 440.392Z" fill="#8599FF"/>
<path fill-rule="evenodd" clip-rule="evenodd" d="M451.212 505.754C451.001 506.602 451.108 507.498 451.512 508.272C451.917 509.047 452.592 509.646 453.409 509.958C455.284 510.96 459.458 513.989 471.564 512.647C473.889 498.099 472.489 483.2 467.493 469.339L447.81 471.964V471.971C448.709 477.663 451.608 491.586 452.4 497.753C453.191 503.921 451.51 504.493 451.212 505.754Z" fill="#6275D1"/>
<path fill-rule="evenodd" clip-rule="evenodd" d="M467.113 440.683C467.693 439.283 468.727 438.117 470.048 437.373C472.949 435.717 476.067 434.476 479.313 433.685C481.6 433.033 483.842 432.234 486.025 431.293C486.722 432.796 487.254 434.369 487.614 435.986C487.826 437.654 482.037 440.609 477.363 441.291C473.948 441.92 470.43 441.712 467.113 440.683Z" fill="#C4EAFF"/>
<path fill-rule="evenodd" clip-rule="evenodd" d="M484.527 431.913C485.118 434.06 485.351 436.289 485.215 438.511C486.721 437.619 487.703 436.688 487.614 435.986C487.254 434.369 486.722 432.796 486.025 431.293C486.025 431.293 485.475 431.541 484.527 431.913Z" fill="#A3DEFF"/>
<path fill-rule="evenodd" clip-rule="evenodd" d="M412.115 441.721C412.115 441.721 413.547 438.939 414.581 437.345C415.274 436.444 415.732 435.384 415.912 434.262C416.061 433.378 415.696 431.744 415.815 431.086C415.942 430.43 416.37 429.021 415.948 428.792C415.514 428.568 413.748 429.591 413.337 431.389C412.924 433.189 413.007 433.761 412.454 434.313C411.899 434.866 409.891 435.273 409.092 437.213C408.286 439.156 410.268 442.17 412.115 441.721Z" fill="url(#paint11_linear_0_1)"/>
<path fill-rule="evenodd" clip-rule="evenodd" d="M450.934 459.912C444.333 462.765 428.581 473.432 428.581 473.432C428.581 473.432 424.452 466.43 421.88 462.782C419.305 459.138 412.808 447.872 412.075 445.084C411.337 442.303 412.992 434.607 412.91 434.031C412.848 433.493 412.725 432.964 412.542 432.454H412.544C412.544 432.454 411.518 429.264 411.28 428.465C411.061 427.65 410.654 426.898 410.091 426.268C409.517 425.693 407.912 424.003 407.514 423.438C407.124 422.878 406.456 421.606 406.167 421.624C405.703 422.049 405.414 422.631 405.357 423.257C405.3 423.883 405.479 424.508 405.859 425.009C406.98 426.784 407.88 427.33 408.228 428.13C408.569 429.176 408.853 430.24 409.077 431.317C408.655 430.24 408.127 428.891 407.936 428.393C407.631 427.491 407.117 426.673 406.435 426.007C405.743 425.4 403.81 423.612 403.316 423.013C402.831 422.406 401.988 421.028 401.663 421.066C401.171 421.579 400.889 422.256 400.872 422.966C400.855 423.675 401.104 424.365 401.571 424.9C402.964 426.817 404.021 427.367 404.47 428.239C404.999 429.573 405.455 430.935 405.835 432.319L405.801 432.328C405.303 431.353 404.643 430.06 404.41 429.6C404.047 428.79 403.497 428.079 402.805 427.523C402.111 427.026 400.158 425.549 399.652 425.039C399.142 424.525 398.238 423.326 397.944 423.387C397.535 423.905 397.335 424.558 397.383 425.216C397.432 425.875 397.725 426.491 398.206 426.944C399.666 428.591 400.7 429.008 401.195 429.769C401.641 430.605 402.038 431.467 402.384 432.349C402.365 432.315 402.333 432.265 402.316 432.237C401.912 431.509 401.342 430.886 400.652 430.417C399.958 430.007 398.007 428.77 397.491 428.332C396.973 427.888 396.023 426.829 395.753 426.913C395.413 427.434 395.28 428.062 395.378 428.676C395.477 429.289 395.801 429.844 396.287 430.232C397.783 431.664 398.788 431.976 399.311 432.662C399.737 433.31 400.123 433.983 400.469 434.677C400.427 436.721 400.665 438.761 401.178 440.74C401.928 443.188 403.278 445.411 405.105 447.206C406.739 448.844 409.386 459.123 411.913 467.314C414.062 474.136 416.654 480.811 419.673 487.296C421.178 490.367 422.697 491.064 425.072 490.816C427.448 490.574 452.33 478.387 457.033 476.242C460.249 474.777 465.807 472.139 464.811 465.189C463.479 455.907 453.956 458.606 450.934 459.912Z" fill="#FDDDC8"/>
<path fill-rule="evenodd" clip-rule="evenodd" d="M437.222 467.388C437.222 467.388 434.552 469.191 433.912 469.516C433.274 469.84 431.932 471.963 434.101 477.946C436.262 483.923 438.623 485.15 439.165 485.095C439.705 485.038 443.804 483.234 443.804 483.234L437.222 467.388Z" fill="#A8B7FF"/>
<path fill-rule="evenodd" clip-rule="evenodd" d="M464.989 458.072C461.423 453.135 454.409 456.217 448.889 459.525C443.371 462.834 441.012 464.12 439.512 464.019C438.017 463.92 436.298 466.466 436.168 467.765C435.632 471.428 436.301 475.165 438.076 478.415C440.852 483.984 444.341 485.961 446.529 484.859C449.916 483.157 450.363 482.762 455.098 478.92C459.833 475.079 472.497 468.449 464.989 458.072Z" fill="#8599FF"/>
<path d="M197.435 532.205L197.432 657.029L177.896 668.377V543.545L197.435 532.205Z" fill="#FC8CBE"/>
<path d="M177.895 543.545V668.377L158.218 657.025V532.195L177.895 543.545Z" fill="#E86FA5"/>
<g style="mix-blend-mode:overlay" opacity="0.7">
<path d="M177.895 543.545L158.218 532.195V532.857L177.895 544.207L197.432 532.859L197.435 532.205L177.895 543.545Z" fill="white"/>
</g>
<path d="M197.435 532.205L177.895 543.545L158.218 532.195L177.756 520.853L197.435 532.205Z" fill="#FCAED0"/>
<path d="M230.484 611.639V676.241L210.949 687.584V622.983L230.484 611.639Z" fill="#69D3FF"/>
<path d="M210.949 622.983V687.584L191.271 676.234L191.272 611.636L210.949 622.983Z" fill="#50B5DE"/>
<g style="mix-blend-mode:overlay" opacity="0.7">
<path d="M210.949 622.983L191.272 611.636L191.271 612.323L210.949 623.671L230.484 612.328V611.639L210.949 622.983Z" fill="white"/>
</g>
<path d="M230.484 611.639L210.949 622.983L191.272 611.636L210.812 600.29L230.484 611.639Z" fill="#94E0FF"/>
<path d="M263.531 599.784L263.528 695.444L243.995 706.79V611.126L263.531 599.784Z" fill="#CEA4F5"/>
<path d="M243.995 611.126V706.79L224.328 695.444V599.784L243.995 611.126Z" fill="#B17DE0"/>
<g style="mix-blend-mode:overlay" opacity="0.7">
<path d="M243.995 611.126L224.328 599.784V600.8L243.995 612.142L263.528 600.8L263.532 599.784L243.995 611.126Z" fill="white"/>
</g>
<path d="M263.532 599.784L243.995 611.126L224.328 599.784L243.866 588.437L263.532 599.784Z" fill="#DDC4F5"/>
<path d="M296.581 671.666V714.661L277.044 726V683.008L296.581 671.666Z" fill="#FCD665"/>
<path d="M277.044 683.008V726L257.367 714.654V671.658L277.044 683.008Z" fill="#FCB365"/>
<g style="mix-blend-mode:overlay" opacity="0.7">
<path d="M277.044 683.008L257.367 671.658V672.328L277.044 683.68L296.581 672.338V671.666L277.044 683.008Z" fill="white"/>
</g>
<path d="M296.581 671.666L277.044 683.008L257.367 671.658L276.905 660.316L296.581 671.666Z" fill="#FCDF8B"/>
<path fill-rule="evenodd" clip-rule="evenodd" d="M459.749 405.68C459.57 411.472 461.572 419.126 458.604 425.402C455.635 431.678 453.327 439.815 460.244 444.573C467.162 449.332 480.413 450.366 486.073 446.091C491.734 441.816 493.171 433.177 490.382 428.359C487.593 423.541 485.195 423.645 484.53 421.041L476.826 420.851L459.749 405.68Z" fill="#DBB58F"/>
<path d="M743.066 281.041L633.182 217.66C628.803 215.134 625.226 217.184 625.212 222.198V295.287C625.205 296.757 625.558 297.639 626.158 297.986C626.379 298.095 626.623 298.154 626.87 298.156C627.118 298.159 627.362 298.106 627.586 298.001L636.557 294.638L743.014 356.126C747.395 358.654 750.983 356.609 751 351.595V294.755C750.848 292.007 750.051 289.333 748.673 286.951C747.295 284.568 745.374 282.543 743.066 281.041Z" fill="#8599FF"/>
<path d="M637.602 269.541L730.151 322.923L730.157 319.732L637.612 266.352L637.602 269.541Z" fill="white"/>
<path d="M637.578 279.467L730.122 332.849L730.129 329.658L637.585 276.279L637.578 279.467Z" fill="white"/>
<path d="M637.633 259.628L730.179 313.01L730.185 309.819L637.639 256.44L637.633 259.628Z" fill="white"/>
<path d="M659.785 259.268L659.775 262.458L730.209 303.082L730.215 299.892L659.785 259.268Z" fill="white"/>
</g>
<defs>
<linearGradient id="paint0_linear_0_1" x1="157.983" y1="518.484" x2="175.055" y2="518.484" gradientUnits="userSpaceOnUse">
<stop stop-color="white"/>
<stop offset="0.01422" stop-color="#FEFEFF"/>
<stop offset="0.61161" stop-color="#E9ECFB"/>
<stop offset="1" stop-color="#E1E5FA"/>
</linearGradient>
<linearGradient id="paint1_linear_0_1" x1="135.743" y1="531.229" x2="152.814" y2="531.229" gradientUnits="userSpaceOnUse">
<stop stop-color="white"/>
<stop offset="0.01422" stop-color="#FEFEFF"/>
<stop offset="0.61161" stop-color="#E9ECFB"/>
<stop offset="1" stop-color="#E1E5FA"/>
</linearGradient>
<linearGradient id="paint2_linear_0_1" x1="139.86" y1="321.853" x2="166.963" y2="321.853" gradientUnits="userSpaceOnUse">
<stop stop-color="#FBD1BE"/>
<stop offset="1" stop-color="#F8B4A8"/>
</linearGradient>
<linearGradient id="paint3_linear_0_1" x1="101.786" y1="333.474" x2="128.277" y2="333.474" gradientUnits="userSpaceOnUse">
<stop stop-color="#FBD1BE"/>
<stop offset="1" stop-color="#F8B4A8"/>
</linearGradient>
<linearGradient id="paint4_linear_0_1" x1="122.37" y1="298.313" x2="137.875" y2="296.13" gradientUnits="userSpaceOnUse">
<stop stop-color="#FBD1BE"/>
<stop offset="1" stop-color="#F8B4A8"/>
</linearGradient>
<linearGradient id="paint5_linear_0_1" x1="570.575" y1="384.195" x2="580.09" y2="383.742" gradientUnits="userSpaceOnUse">
<stop stop-color="#FBD1BE"/>
<stop offset="1" stop-color="#F8B4A8"/>
</linearGradient>
<linearGradient id="paint6_linear_0_1" x1="572.203" y1="389.659" x2="578.762" y2="390.631" gradientUnits="userSpaceOnUse">
<stop stop-color="#FBD1BE"/>
<stop offset="1" stop-color="#F8B4A8"/>
</linearGradient>
<linearGradient id="paint7_linear_0_1" x1="602.199" y1="366.697" x2="621.765" y2="354.187" gradientUnits="userSpaceOnUse">
<stop stop-color="#FBD1BE"/>
<stop offset="1" stop-color="#F8B4A8"/>
</linearGradient>
<linearGradient id="paint8_linear_0_1" x1="488.066" y1="436.833" x2="470.871" y2="425.838" gradientUnits="userSpaceOnUse">
<stop stop-color="#FBD1BE"/>
<stop offset="1" stop-color="#F8B4A8"/>
</linearGradient>
<linearGradient id="paint9_linear_0_1" x1="432.498" y1="432.102" x2="442.014" y2="431.65" gradientUnits="userSpaceOnUse">
<stop stop-color="#FBD1BE"/>
<stop offset="1" stop-color="#F8B4A8"/>
</linearGradient>
<linearGradient id="paint10_linear_0_1" x1="434.134" y1="437.565" x2="440.693" y2="438.536" gradientUnits="userSpaceOnUse">
<stop stop-color="#FBD1BE"/>
<stop offset="1" stop-color="#F8B4A8"/>
</linearGradient>
<linearGradient id="paint11_linear_0_1" x1="410.54" y1="433.026" x2="414.798" y2="436.247" gradientUnits="userSpaceOnUse">
<stop stop-color="#FBD1BE"/>
<stop offset="1" stop-color="#F8B4A8"/>
</linearGradient>
<clipPath id="clip0_0_1">
<rect width="672" height="627" fill="white" transform="translate(79 99)"/>
</clipPath>
</defs>
</svg>
