<svg width="47" height="98" viewBox="0 0 47 98" fill="none" xmlns="http://www.w3.org/2000/svg">
<path d="M44.6832 17.1714L15.3861 0.257593C14.8357 -0.0603011 14.3398 -0.0693838 13.9529 0.150417L11.0627 1.82163L14.4651 4.46651L15.2971 4.25579V73.682C15.2971 75.3096 16.2871 77.2025 17.5078 77.9073L43.1955 96.7103V97.8692L46.1855 96.1235V96.1126C46.6196 95.8256 46.8939 95.2225 46.8939 94.3706V21.3966C46.8939 19.769 45.9039 17.8762 44.6832 17.1714Z" fill="#989898"/>
<path d="M40.2037 23.3694V20.0924L37.3226 22.2577L24.7304 16.9806L15.2971 10.1141V4.25579L14.4615 4.46469L11.0664 1.82345L13.9547 0.150418C14.3434 -0.0657501 14.8357 -0.0584839 15.3879 0.25396L44.6832 17.175C45.4898 17.6382 46.191 18.6155 46.5724 19.6909L40.2055 23.3712L40.2037 23.3694Z" fill="#E6E6E5"/>
<path d="M41.7769 97.7366L12.4798 80.8228C11.2591 80.118 10.269 78.227 10.269 76.5975V3.62362C10.269 1.99601 11.2591 1.24759 12.4798 1.95241L41.7769 18.8662C42.9976 19.571 43.9876 21.462 43.9876 23.0915V96.0636C43.9876 97.6912 42.9976 98.4396 41.7769 97.7348V97.7366Z" fill="#CCCCCC"/>
<path d="M10.9138 77.028V3.93967C10.9138 2.75348 11.635 2.2067 12.5251 2.72078L41.7296 19.5819C42.6197 20.096 43.3408 21.4747 43.3408 22.6609V95.7493C43.3408 96.9355 42.6197 97.4822 41.7296 96.9682L12.5251 80.1071C11.635 79.593 10.9138 78.2142 10.9138 77.028Z" fill="#333333"/>
<path d="M42.4834 23.4366V94.2343C42.4834 95.2879 41.7404 95.7039 40.8285 95.1771L13.4279 79.3569C12.5105 78.8264 11.7676 77.544 11.7676 76.4922V5.70356C11.7676 4.64997 12.5105 4.22672 13.4279 4.75714L18.4343 7.64725C18.6432 7.76715 18.8266 8.03236 18.8848 8.29576L19.1173 9.35298C19.2917 10.3666 20.0873 11.4929 21.0174 12.0306L33.2336 19.0842C34.1637 19.6219 34.9666 19.4166 35.1337 18.601L35.3662 17.8108C35.4243 17.6146 35.6078 17.5619 35.8167 17.6818L40.8285 20.5755C41.7404 21.1023 42.4834 22.383 42.4834 23.4366Z" fill="white"/>
<path d="M36.3399 41.0097C36.8195 41.2877 37.2064 41.9562 37.2046 42.5102L37.1955 45.5075C37.1955 46.0597 36.8049 46.2831 36.3254 46.0052L18.7595 35.8635C18.2799 35.5856 17.893 34.9153 17.8948 34.363L17.9039 31.3657C17.9039 30.8117 18.2944 30.5901 18.774 30.868L36.3399 41.0097Z" fill="#6CADDF"/>
<path d="M36.3399 51.4931C36.8195 51.771 37.2064 52.4413 37.2046 52.9935L37.1955 55.9926C37.1955 56.5448 36.8049 56.7665 36.3254 56.4885L18.7595 46.3468C18.2799 46.0689 17.893 45.4004 17.8948 44.8482L17.9039 41.8491C17.9039 41.2968 18.2944 41.0734 18.774 41.3513L36.3399 51.4931Z" fill="#6CADDF"/>
<g style="mix-blend-mode:multiply">
<path d="M11.7712 49.3985V54.4721L10.2671 53.6038V48.5302L11.7712 49.3985Z" fill="#B4B4B4"/>
</g>
<path d="M37.2081 65.4185L37.2008 67.8109C37.1935 68.5466 36.6722 68.8463 36.031 68.4794L11.7693 54.4703V49.3967L36.0437 63.4058C36.6849 63.78 37.2063 64.6756 37.2063 65.4167L37.2081 65.4185Z" fill="#6CADDF"/>
<path d="M23.0937 69.3387C23.5569 69.6057 23.9311 70.2542 23.9293 70.7864L23.9057 79.0008C23.9057 79.5331 23.5279 79.7456 23.0646 79.4786L15.9166 75.3514C15.4533 75.0844 15.081 74.4395 15.0828 73.9072L15.1064 65.6929C15.1064 65.1606 15.4824 64.9463 15.9456 65.2133L23.0937 69.3405V69.3387Z" fill="#6CADDF"/>
<path d="M36.3707 76.99C36.8339 77.257 37.2063 77.9037 37.2045 78.4359L37.1808 86.6503C37.1808 87.1825 36.8048 87.3951 36.3416 87.1281L29.1935 83.0009C28.7303 82.7338 28.3561 82.0872 28.3579 81.5567L28.3815 73.3423C28.3815 72.8101 28.7594 72.5957 29.2226 72.8628L36.3707 76.99Z" fill="#6CADDF"/>
<path d="M35.8585 24.6301C36.6051 25.0606 37.2082 26.1051 37.2046 26.9643L37.1846 33.9961C37.1828 34.8535 36.5742 35.1987 35.8294 34.7682L15.5424 23.0551C14.7958 22.6246 14.1927 21.5801 14.1963 20.7227L14.2163 13.6909C14.2181 12.8317 14.8266 12.4865 15.5714 12.9171L35.8585 24.6301Z" fill="#6CADDF"/>
<g style="mix-blend-mode:multiply">
<path d="M11.7712 27.4512V41.226L10.2671 40.3559V26.5811L11.7712 27.4512Z" fill="#B4B4B4"/>
</g>
<path d="M14.0165 30.0906L13.9838 41.1643C13.9838 41.9 13.4624 42.1942 12.8139 41.8255L11.7712 41.2242V27.4494L12.8539 28.0779C13.5024 28.4521 14.0165 29.3549 14.0165 30.0888V30.0906Z" fill="#6CADDF"/>
<path d="M22.1345 11.0042C22.1345 11.5674 21.7367 11.7944 21.2462 11.511C20.7557 11.2277 20.3579 10.541 20.3579 9.97789C20.3579 9.41476 20.7557 9.18769 21.2462 9.47107C21.7367 9.75445 22.1345 10.4411 22.1345 11.0042Z" fill="#676767"/>
<path d="M21.7332 10.7717C21.7332 11.0805 21.5152 11.204 21.2464 11.0496C20.9775 10.8934 20.7595 10.5173 20.7595 10.2103C20.7595 9.90335 20.9775 9.77801 21.2464 9.93242C21.5152 10.0868 21.7332 10.4647 21.7332 10.7717Z" fill="#333333"/>
<path d="M31.3972 15.0987L22.7051 10.0796C22.5616 9.99607 22.4453 9.77445 22.4453 9.58371V9.2313C22.4453 9.04057 22.5616 8.95337 22.7051 9.03512L31.3972 14.0542C31.5407 14.1378 31.657 14.3594 31.657 14.5501V14.9025C31.657 15.0933 31.5407 15.1805 31.3972 15.0987Z" fill="#010101"/>
<path d="M46.0837 32.6428C45.9112 32.5429 45.6732 32.5574 45.408 32.71C44.883 33.0134 44.4616 33.7454 44.4634 34.3467L44.4888 43.0207C44.4888 43.3186 44.596 43.5293 44.7667 43.6274L45.2935 43.9326C45.1228 43.8327 45.0174 43.6219 45.0156 43.3259L44.9902 34.6519C44.9902 34.0488 45.4116 33.3167 45.9348 33.0152C46.1982 32.8626 46.438 32.8481 46.6105 32.948L46.0837 32.6428Z" fill="#E6E6E5"/>
<path d="M45.9348 33.0152C46.4598 32.7118 46.8849 32.9552 46.8867 33.5565L46.9121 42.2305C46.9121 42.8281 46.4907 43.5656 45.9675 43.8672C45.4426 44.1705 45.0175 43.9217 45.0157 43.3258L44.9902 34.6519C44.9902 34.0488 45.4117 33.3167 45.9348 33.0152Z" fill="#C0BFBF"/>
<path d="M46.0891 33.9907C46.5197 33.7418 46.8684 33.9416 46.8702 34.4357L46.8902 41.5511C46.8902 42.0416 46.5451 42.6465 46.1146 42.8935C45.6841 43.1424 45.3353 42.9389 45.3335 42.4485L45.3135 35.3331C45.3135 34.839 45.6586 34.2377 46.0891 33.9907Z" fill="#CCCCCC"/>
<path d="M9.35341 10.1723L2.20533 6.04508C1.97282 5.91066 1.7621 5.89794 1.61133 5.98695L0.26709 6.76806C0.419679 6.67905 0.628581 6.69177 0.861097 6.82619L8.00917 10.9534C8.47239 11.2204 8.84659 11.8689 8.84478 12.4011L8.82116 20.6155C8.82116 20.8789 8.7267 21.0642 8.57775 21.1514L9.92198 20.3703C10.0728 20.2831 10.1654 20.0978 10.1654 19.8344L10.189 11.62C10.189 11.0878 9.81663 10.4411 9.35341 10.1723Z" fill="#61AEE0"/>
<path d="M8.01093 10.9534C8.47414 11.2204 8.84835 11.8689 8.84654 12.4012L8.82292 20.6156C8.82292 21.1478 8.44508 21.3603 7.98186 21.0933L0.833791 16.9643C0.370574 16.6973 0 16.0524 0 15.5202L0.023615 7.30579C0.023615 6.77354 0.399638 6.55919 0.862855 6.82622L8.01093 10.9534Z" fill="url(#paint0_linear_88_180)"/>
<path d="M3.91099 14.3866L3.23887 16.1886L0.441406 14.5737L2.17802 12.1232C2.42143 11.7799 3.03179 12.1323 3.2752 12.7572L3.91099 14.3866Z" fill="white"/>
<path d="M5.01366 17.2131L3.24072 16.1886L3.91102 14.3866L5.01366 17.2131Z" fill="#E6E6E5"/>
<path d="M7.81099 18.828L5.01353 17.2131L3.91089 14.3866L4.75921 12.1105C5.01353 11.4293 6.03442 12.0178 6.28874 12.9933L7.80918 18.828H7.81099Z" fill="white"/>
<path d="M3.92361 11.1822C3.92361 11.5782 3.64386 11.7381 3.29872 11.5383C2.95357 11.3385 2.67383 10.8571 2.67383 10.4611C2.67383 10.0651 2.95357 9.90522 3.29872 10.105C3.64386 10.3049 3.92361 10.7862 3.92361 11.1822Z" fill="#E6E6E5"/>
<path d="M35.6513 41.4276L18.0854 31.2859C17.8438 31.146 17.6258 31.1333 17.4678 31.2241L16.1235 32.0052C16.2816 31.9144 16.4996 31.9271 16.7412 32.067L34.3071 42.2087C34.7866 42.4866 35.1736 43.1551 35.1717 43.7092L35.1627 46.7064C35.1627 46.9807 35.0646 47.1733 34.9083 47.2641L36.2526 46.483C36.4088 46.3922 36.5051 46.1996 36.5069 45.9253L36.516 42.928C36.516 42.374 36.1309 41.7055 35.6513 41.4276Z" fill="#61AEE0"/>
<path d="M34.3072 42.2087C34.7868 42.4866 35.1737 43.1551 35.1719 43.7091L35.1628 46.7064C35.1628 47.2586 34.7722 47.4821 34.2927 47.2041L16.7267 37.0624C16.2472 36.7845 15.8603 36.1142 15.8621 35.5619L15.8712 32.5647C15.8712 32.0106 16.2617 31.789 16.7413 32.0669L34.3072 42.2087Z" fill="url(#paint1_linear_88_180)"/>
<path d="M33.7239 44.0434L17.6131 34.6955C17.4278 34.5883 17.2788 34.7027 17.2788 34.948C17.2788 35.1932 17.4278 35.4802 17.6131 35.5856L33.7239 44.9335C33.9092 45.0407 34.0582 44.9262 34.0582 44.681C34.0582 44.4357 33.9092 44.1487 33.7239 44.0434Z" fill="white"/>
<path d="M35.6513 51.9108L18.0854 41.7691C17.8438 41.6292 17.6258 41.6165 17.4678 41.7091L16.1235 42.4903C16.2816 42.3994 16.4996 42.4121 16.7412 42.5502L34.3071 52.6919C34.7866 52.9699 35.1736 53.6402 35.1717 54.1924L35.1627 57.1915C35.1627 57.4658 35.0646 57.6583 34.9102 57.7492L36.2544 56.968C36.4106 56.8772 36.5069 56.6847 36.5069 56.4104L36.516 53.4113C36.516 52.859 36.1309 52.1887 35.6513 51.9108Z" fill="#61AEE0"/>
<path d="M34.3072 52.6919C34.7868 52.9698 35.1737 53.6401 35.1719 54.1924L35.1628 57.1915C35.1628 57.7437 34.7722 57.9653 34.2927 57.6874L16.7267 47.5457C16.2472 47.2677 15.8603 46.5992 15.8621 46.047L15.8712 43.0479C15.8712 42.4957 16.2617 42.2723 16.7413 42.5502L34.3072 52.6919Z" fill="url(#paint2_linear_88_180)"/>
<path d="M33.7239 54.3577L17.6131 45.0098C17.4278 44.9026 17.2788 45.0171 17.2788 45.2623C17.2788 45.5075 17.4278 45.7945 17.6131 45.8999L33.7239 55.2478C33.9092 55.355 34.0582 55.2405 34.0582 54.9953C34.0582 54.7501 33.9092 54.4631 33.7239 54.3577Z" fill="white"/>
<path d="M9.35341 62.2342L2.20533 58.107C1.97282 57.9726 1.7621 57.9599 1.61133 58.0489L0.26709 58.83C0.419679 58.741 0.628581 58.7537 0.861097 58.8881L8.00917 63.0153C8.47239 63.2823 8.84659 63.9309 8.84478 64.4631L8.82116 72.6775C8.82116 72.9409 8.7267 73.1262 8.57775 73.2134L9.92198 72.4322C10.0728 72.345 10.1654 72.1598 10.1654 71.8964L10.189 63.682C10.189 63.1497 9.81663 62.5031 9.35341 62.236V62.2342Z" fill="#61AEE0"/>
<path d="M8.01093 63.0153C8.47414 63.2824 8.84835 63.9309 8.84654 64.4631L8.82292 72.6775C8.82292 73.2098 8.44508 73.4223 7.98186 73.1553L0.833791 69.0281C0.370574 68.7592 0 68.1125 0 67.5821L0.023615 59.3677C0.023615 58.8355 0.399638 58.6211 0.862855 58.8882L8.01093 63.0153Z" fill="url(#paint3_linear_88_180)"/>
<path d="M7.7767 65.8055V65.8164L4.37069 66.1016L0.913818 61.8418C0.913818 61.7074 1.00828 61.6547 1.12454 61.7219L7.56416 65.4404C7.68042 65.5076 7.77488 65.6711 7.77488 65.8037L7.7767 65.8055Z" fill="white"/>
<path d="M4.37058 66.3723L7.77659 66.0852V70.2306C7.77659 70.365 7.68213 70.4177 7.56587 70.3505L1.12625 66.632C1.00999 66.5648 0.915527 66.4013 0.915527 66.2687V62.1107L4.32153 66.3087L4.3724 66.3723H4.37058Z" fill="white"/>
<path d="M35.3552 63.8255L3.55124 45.4639C3.2279 45.2768 2.93543 45.2605 2.7229 45.3822L1.37866 46.1633C1.5912 46.0398 1.88366 46.0579 2.207 46.245L34.0109 64.6066C34.654 64.9772 35.1717 65.8764 35.1699 66.6157L35.1626 69.0099C35.1626 69.3768 35.0318 69.6366 34.8229 69.7583L36.1672 68.9772C36.3761 68.8555 36.505 68.5975 36.5069 68.2288L36.5141 65.8346C36.5159 65.0953 35.9982 64.1979 35.3552 63.8255Z" fill="#61AEE0"/>
<path d="M34.0128 64.6066C34.6559 64.9772 35.1736 65.8763 35.1718 66.6157L35.1645 69.0099C35.1627 69.7492 34.6413 70.0489 33.9983 69.6765L2.19436 51.3132C1.55312 50.9426 1.03359 50.0416 1.03541 49.3023L1.04267 46.9081C1.04449 46.1687 1.56765 45.8726 2.20889 46.2432L34.0128 64.6048V64.6066Z" fill="url(#paint4_linear_88_180)"/>
<path d="M33.1736 66.4123L2.56129 48.6302C2.37601 48.523 2.22705 48.6374 2.22705 48.8827C2.22705 49.1279 2.37601 49.4149 2.56129 49.5203L33.1736 67.3024C33.3589 67.4095 33.5078 67.2951 33.5078 67.0499C33.5078 66.8046 33.3589 66.5176 33.1736 66.4123Z" fill="white"/>
<path d="M22.4037 69.7547L15.2556 65.6275C15.0231 65.4931 14.8124 65.4803 14.6616 65.5694L13.3174 66.3505C13.47 66.2615 13.6789 66.2742 13.9114 66.4086L21.0595 70.5358C21.5227 70.8028 21.8969 71.4513 21.8951 71.9835L21.8715 80.1979C21.8715 80.4613 21.777 80.6466 21.628 80.7338L22.9723 79.9527C23.123 79.8655 23.2157 79.6802 23.2157 79.4168L23.2393 71.2024C23.2393 70.6702 22.8669 70.0217 22.4037 69.7547Z" fill="#61AEE0"/>
<path d="M21.061 70.5358C21.5242 70.8028 21.8984 71.4513 21.8966 71.9836L21.873 80.198C21.873 80.7302 21.4951 80.9427 21.0319 80.6757L13.8838 76.5485C13.4206 76.2815 13.0482 75.6366 13.0501 75.1044L13.0737 66.89C13.0737 66.3578 13.4497 66.1434 13.9129 66.4104L21.061 70.5376V70.5358Z" fill="url(#paint5_linear_88_180)"/>
<path d="M20.4198 77.9182L14.5161 74.5104C14.16 74.3051 13.8694 73.8055 13.8694 73.3968V70.1434C13.8694 69.7347 14.16 69.5694 14.5161 69.7747L20.4198 73.1825C20.7759 73.3877 21.0665 73.8873 21.0665 74.296V77.5494C21.0665 77.9582 20.7777 78.1235 20.4198 77.9182ZM14.5161 70.0835C14.309 69.9636 14.14 70.0599 14.14 70.2978V73.5512C14.14 73.7892 14.309 74.0817 14.5161 74.2016L20.4198 77.6094C20.6269 77.7293 20.7958 77.633 20.7958 77.395V74.1416C20.7958 73.9036 20.6269 73.6112 20.4198 73.4913L14.5161 70.0835Z" fill="white"/>
<path d="M17.4679 75.6838C16.6014 75.1843 15.8984 73.969 15.8984 72.9754C15.8984 71.9817 16.6033 71.5803 17.4679 72.0798C18.3344 72.5794 19.0374 73.7946 19.0374 74.7883C19.0374 75.7819 18.3326 76.1834 17.4679 75.6838ZM17.4679 72.3886C16.7504 71.9745 16.1673 72.3069 16.1673 73.1298C16.1673 73.9527 16.7504 74.959 17.4679 75.3732C18.1855 75.7874 18.7686 75.4549 18.7686 74.6321C18.7686 73.8092 18.1855 72.8028 17.4679 72.3886Z" fill="white"/>
<path d="M19.3318 72.8064L15.6042 70.6539V69.8746C15.6042 69.6057 15.795 69.4985 16.0275 69.633L18.9067 71.2951C19.141 71.4295 19.33 71.7583 19.33 72.0272V72.8064H19.3318ZM15.8731 70.5013L19.0629 72.3432V71.8728C19.0629 71.7747 18.9939 71.6548 18.9085 71.6057L16.0293 69.9436C15.9439 69.8945 15.8749 69.9345 15.8749 70.0326V70.5031L15.8731 70.5013Z" fill="white"/>
<path d="M35.6824 77.4059L28.5343 73.2787C28.3018 73.1443 28.0911 73.1316 27.9385 73.2206L26.5942 74.0017C26.7468 73.9127 26.9575 73.9254 27.1901 74.0598L34.3381 78.187C34.8014 78.454 35.1737 79.1007 35.1719 79.633L35.1483 87.8474C35.1483 88.1108 35.0539 88.2979 34.9049 88.385L36.2491 87.6039C36.3999 87.5167 36.4925 87.3315 36.4925 87.0662L36.5162 78.8519C36.5162 78.3196 36.1456 77.6729 35.6824 77.4059Z" fill="#61AEE0"/>
<path d="M34.3382 78.187C34.8014 78.4541 35.1738 79.1008 35.172 79.633L35.1484 87.8474C35.1484 88.3796 34.7723 88.5922 34.3091 88.3251L27.1611 84.198C26.6978 83.9309 26.3236 83.2842 26.3254 82.7538L26.3491 74.5394C26.3491 74.0072 26.7269 73.7928 27.1901 74.0599L34.3382 78.187Z" fill="url(#paint6_linear_88_180)"/>
<path d="M30.7796 78.009C29.1465 77.0662 27.8223 77.5585 27.8223 79.1098C27.8223 80.1144 28.3799 81.3151 29.2155 82.2942C29.1774 82.5558 29.0066 83.1062 28.2601 82.683C28.2601 82.683 29.2918 83.8201 30.2691 83.286C30.4363 83.4096 30.607 83.5258 30.7814 83.6276C32.4145 84.5703 33.7387 84.0781 33.7387 82.5267C33.7387 80.9754 32.4145 78.9536 30.7814 78.0108L30.7796 78.009Z" fill="white"/>
<path d="M35.1684 25.0479L14.8814 13.3348C14.5053 13.1187 14.1656 13.0987 13.9204 13.2404L12.5762 14.0215C12.8214 13.878 13.1611 13.8998 13.5371 14.1159L33.8242 25.829C34.5708 26.2595 35.1739 27.304 35.1703 28.1632L35.1503 35.1932C35.1503 35.6183 34.9995 35.918 34.7561 36.0597L36.1003 35.2786C36.3419 35.1369 36.4927 34.8372 36.4945 34.4121L36.5145 27.3821C36.5163 26.5229 35.9132 25.4784 35.1684 25.0479Z" fill="#61AEE0"/>
<path d="M33.8258 25.8272C34.5724 26.2577 35.1755 27.3022 35.1718 28.1615L35.1519 35.1915C35.1501 36.0489 34.5415 36.394 33.7967 35.9635L13.5096 24.2505C12.763 23.8199 12.16 22.7754 12.1636 21.918L12.1836 14.8862C12.1854 14.027 12.7939 13.6818 13.5387 14.1124L33.8258 25.8254V25.8272Z" fill="url(#paint7_linear_88_180)"/>
<path d="M33.3155 27.5147L14.1856 16.4248C14.0003 16.3176 13.8513 16.4321 13.8513 16.6773C13.8513 16.9225 14.0003 17.2095 14.1856 17.3149L33.3155 28.4048C33.5008 28.512 33.6498 28.3976 33.6498 28.1523C33.6498 27.9071 33.5008 27.6201 33.3155 27.5147Z" fill="white"/>
<path d="M33.3155 30.1705L14.1856 19.0805C14.0003 18.9734 13.8513 19.0878 13.8513 19.333C13.8513 19.5783 14.0003 19.8653 14.1856 19.9706L33.3155 31.0606C33.5008 31.1678 33.6498 31.0533 33.6498 30.8081C33.6498 30.5629 33.5008 30.2759 33.3155 30.1705Z" fill="white"/>
<path d="M33.3155 32.8263L14.1856 21.7363C14.0003 21.6291 13.8513 21.7436 13.8513 21.9888C13.8513 22.234 14.0003 22.5211 14.1856 22.6264L33.3155 33.7164C33.5008 33.8235 33.6498 33.7091 33.6498 33.4639C33.6498 33.2186 33.5008 32.9316 33.3155 32.8263Z" fill="white"/>
<defs>
<linearGradient id="paint0_linear_88_180" x1="0" y1="13.9598" x2="8.84654" y2="13.9598" gradientUnits="userSpaceOnUse">
<stop stop-color="#61AEE0"/>
<stop offset="0.05" stop-color="#5CA4D6"/>
<stop offset="0.34" stop-color="#416EA0"/>
<stop offset="0.48" stop-color="#37598C"/>
<stop offset="0.6" stop-color="#304C82"/>
<stop offset="0.83" stop-color="#273A74"/>
<stop offset="1" stop-color="#24346F"/>
</linearGradient>
<linearGradient id="paint1_linear_88_180" x1="15.8621" y1="39.6346" x2="35.1719" y2="39.6346" gradientUnits="userSpaceOnUse">
<stop stop-color="#61AEE0"/>
<stop offset="0.05" stop-color="#5CA4D6"/>
<stop offset="0.34" stop-color="#416EA0"/>
<stop offset="0.48" stop-color="#37598C"/>
<stop offset="0.6" stop-color="#304C82"/>
<stop offset="0.83" stop-color="#273A74"/>
<stop offset="1" stop-color="#24346F"/>
</linearGradient>
<linearGradient id="paint2_linear_88_180" x1="15.8621" y1="50.1179" x2="35.1719" y2="50.1179" gradientUnits="userSpaceOnUse">
<stop stop-color="#61AEE0"/>
<stop offset="0.05" stop-color="#5CA4D6"/>
<stop offset="0.34" stop-color="#416EA0"/>
<stop offset="0.48" stop-color="#37598C"/>
<stop offset="0.6" stop-color="#304C82"/>
<stop offset="0.83" stop-color="#273A74"/>
<stop offset="1" stop-color="#24346F"/>
</linearGradient>
<linearGradient id="paint3_linear_88_180" x1="0" y1="66.0199" x2="0.181654" y2="66.0199" gradientUnits="userSpaceOnUse">
<stop stop-color="#61AEE0"/>
<stop offset="0.05" stop-color="#5CA4D6"/>
<stop offset="0.34" stop-color="#416EA0"/>
<stop offset="0.48" stop-color="#37598C"/>
<stop offset="0.6" stop-color="#304C82"/>
<stop offset="0.83" stop-color="#273A74"/>
<stop offset="1" stop-color="#24346F"/>
</linearGradient>
<linearGradient id="paint4_linear_88_180" x1="1.03541" y1="57.9599" x2="35.1718" y2="57.9599" gradientUnits="userSpaceOnUse">
<stop stop-color="#61AEE0"/>
<stop offset="0.05" stop-color="#5CA4D6"/>
<stop offset="0.34" stop-color="#416EA0"/>
<stop offset="0.48" stop-color="#37598C"/>
<stop offset="0.6" stop-color="#304C82"/>
<stop offset="0.83" stop-color="#273A74"/>
<stop offset="1" stop-color="#24346F"/>
</linearGradient>
<linearGradient id="paint5_linear_88_180" x1="13.0501" y1="73.5404" x2="21.8966" y2="73.5404" gradientUnits="userSpaceOnUse">
<stop stop-color="#61AEE0"/>
<stop offset="0.05" stop-color="#5CA4D6"/>
<stop offset="0.34" stop-color="#416EA0"/>
<stop offset="0.48" stop-color="#37598C"/>
<stop offset="0.6" stop-color="#304C82"/>
<stop offset="0.83" stop-color="#273A74"/>
<stop offset="1" stop-color="#24346F"/>
</linearGradient>
<linearGradient id="paint6_linear_88_180" x1="26.3254" y1="81.1934" x2="35.172" y2="81.1934" gradientUnits="userSpaceOnUse">
<stop stop-color="#61AEE0"/>
<stop offset="0.05" stop-color="#5CA4D6"/>
<stop offset="0.34" stop-color="#416EA0"/>
<stop offset="0.48" stop-color="#37598C"/>
<stop offset="0.6" stop-color="#304C82"/>
<stop offset="0.83" stop-color="#273A74"/>
<stop offset="1" stop-color="#24346F"/>
</linearGradient>
<linearGradient id="paint7_linear_88_180" x1="12.1618" y1="25.0406" x2="35.1718" y2="25.0406" gradientUnits="userSpaceOnUse">
<stop stop-color="#61AEE0"/>
<stop offset="0.05" stop-color="#5CA4D6"/>
<stop offset="0.34" stop-color="#416EA0"/>
<stop offset="0.48" stop-color="#37598C"/>
<stop offset="0.6" stop-color="#304C82"/>
<stop offset="0.83" stop-color="#273A74"/>
<stop offset="1" stop-color="#24346F"/>
</linearGradient>
</defs>
</svg>
