<svg width="71" height="79" viewBox="0 0 71 79" fill="none" xmlns="http://www.w3.org/2000/svg">
<g clip-path="url(#clip0_88_1876)">
<path d="M67.0524 67.0032L23.2249 41.7241C22.6959 41.4226 22.7642 40.8879 23.3728 40.5353L24.7607 39.7332C25.3694 39.3805 26.2909 39.3464 26.8142 39.6479L70.6417 64.927C71.1707 65.2284 71.1024 65.7631 70.4938 66.1158L69.1059 66.9179C68.4972 67.2706 67.5757 67.3047 67.0524 67.0032Z" fill="#F3F3F3"/>
<path d="M70.34 25.609L26.1427 0.0910379C25.955 -0.0170411 25.7901 -0.0284178 25.6706 0.0455309L24.2258 0.887409C24.3453 0.819148 24.5159 0.824837 24.6979 0.932916L68.8952 26.4509C69.2592 26.6614 69.555 27.1733 69.555 27.5886L69.464 60.5356C69.464 60.7461 69.3901 60.8883 69.2706 60.9565L70.7154 60.1147C70.8349 60.0464 70.9088 59.8985 70.9088 59.6937L70.9998 26.7524C70.9998 26.3315 70.704 25.8252 70.34 25.6147V25.609Z" fill="#E6E6E5"/>
<path d="M69.5551 27.5886V30.9789L69.4584 60.5299C69.4584 60.9509 69.1626 61.1158 68.7986 60.9054L24.6013 35.3874C24.2316 35.1712 23.9358 34.6649 23.9415 34.244L24.0211 4.69295V1.30269C24.0325 0.881748 24.3283 0.716785 24.6923 0.927255L68.8953 26.4453C69.2536 26.6614 69.5494 27.1677 69.5494 27.5886H69.5551Z" fill="#C0BFBF"/>
<path d="M68.7473 27.7024V30.9732L68.6563 59.4776C68.6563 59.8814 68.3718 60.0464 68.0192 59.8416L25.3862 35.2281C25.0278 35.0233 24.7434 34.5284 24.7491 34.1302L24.8287 5.62583V2.35502C24.8401 1.95114 25.1245 1.78618 25.4772 1.99096L68.1102 26.6045C68.4572 26.8093 68.7416 27.3042 68.7416 27.7024H68.7473Z" fill="#1F2225"/>
<path d="M69.5551 27.5886V30.9789L24.0269 4.69295V1.30269C24.0382 0.881748 24.334 0.716785 24.6981 0.927255L68.901 26.4453C69.2593 26.6614 69.5551 27.1677 69.5551 27.5886Z" fill="#C0BFBF"/>
<path d="M28.6457 11.6327L27.4113 10.9217C27.2122 10.8079 27.053 10.5007 27.053 10.2391C27.053 9.9774 27.2122 9.85225 27.4113 9.96602L28.6457 10.6771C28.8448 10.7908 29.004 11.098 29.004 11.3597C29.004 11.6213 28.8448 11.7465 28.6457 11.6327Z" fill="#426DB5"/>
<path d="M28.6457 28.402L27.4113 27.691C27.2122 27.5772 27.053 27.27 27.053 27.0083C27.053 26.7467 27.2122 26.6215 27.4113 26.7353L28.6457 27.4464C28.8448 27.5601 29.004 27.8673 29.004 28.129C29.004 28.3906 28.8448 28.5158 28.6457 28.402Z" fill="#426DB5"/>
<path d="M32.1097 30.4043L29.6411 28.9822C29.442 28.8684 29.2827 28.5613 29.2827 28.2996C29.2827 28.0379 29.442 27.9128 29.6411 28.0266L32.1097 29.4487C32.3088 29.5624 32.4681 29.8696 32.4681 30.1313C32.4681 30.3929 32.3088 30.5181 32.1097 30.4043Z" fill="#B7D2EE"/>
<path d="M41.0117 35.5409L33.1279 30.9902C32.9288 30.8764 32.7695 30.5693 32.7695 30.3076C32.7695 30.0459 32.9288 29.9208 33.1279 30.0346L41.0117 34.5853C41.2108 34.699 41.3701 35.0062 41.3701 35.2679C41.3701 35.5295 41.2108 35.6547 41.0117 35.5409Z" fill="#FAAC67"/>
<path d="M33.5091 14.4428L29.7719 12.2869C29.5728 12.1731 29.4136 11.866 29.4136 11.6043C29.4136 11.3426 29.5728 11.2175 29.7719 11.3313L33.5091 13.4871C33.7082 13.6009 33.8674 13.9081 33.8674 14.1697C33.8674 14.4314 33.7082 14.5566 33.5091 14.4428Z" fill="#B7D2EE"/>
<path d="M45.8923 21.593L34.6582 15.1083C34.4591 14.9945 34.2998 14.6874 34.2998 14.4257C34.2998 14.164 34.4591 14.0389 34.6582 14.1527L45.8923 20.6374C46.0914 20.7512 46.2507 21.0583 46.2507 21.32C46.2507 21.5817 46.0914 21.7068 45.8923 21.593Z" fill="#FAAC67"/>
<path d="M29.8061 13.9422L28.5717 13.2311C28.3726 13.1173 28.2134 12.8102 28.2134 12.5485C28.2134 12.2868 28.3726 12.1617 28.5717 12.2755L29.8061 12.9865C30.0052 13.1003 30.1644 13.4075 30.1644 13.6691C30.1644 13.9308 30.0052 14.0559 29.8061 13.9422Z" fill="#426DB5"/>
<path d="M34.6695 16.7522L30.9323 14.5963C30.7332 14.4826 30.574 14.1754 30.574 13.9137C30.574 13.6521 30.7332 13.5269 30.9323 13.6407L34.6695 15.7966C34.8686 15.9104 35.0278 16.2175 35.0278 16.4792C35.0278 16.7409 34.8686 16.866 34.6695 16.7522Z" fill="#B7D2EE"/>
<path d="M47.0527 23.9025L35.8186 17.4178C35.6195 17.304 35.4602 16.9968 35.4602 16.7352C35.4602 16.4735 35.6195 16.3483 35.8186 16.4621L47.0527 22.9468C47.2518 23.0606 47.4111 23.3678 47.4111 23.6295C47.4111 23.8911 47.2518 24.0163 47.0527 23.9025Z" fill="#FAAC67"/>
<path d="M29.8061 15.7169L28.5717 15.0059C28.3726 14.8921 28.2134 14.585 28.2134 14.3233C28.2134 14.0616 28.3726 13.9365 28.5717 14.0502L29.8061 14.7613C30.0052 14.8751 30.1644 15.1822 30.1644 15.4439C30.1644 15.7056 30.0052 15.8307 29.8061 15.7169Z" fill="#426DB5"/>
<path d="M29.8061 17.4064L28.5717 16.6953C28.3726 16.5816 28.2134 16.2744 28.2134 16.0127C28.2134 15.7511 28.3726 15.6259 28.5717 15.7397L29.8061 16.4507C30.0052 16.5645 30.1644 16.8717 30.1644 17.1334C30.1644 17.395 30.0052 17.5202 29.8061 17.4064Z" fill="#426DB5"/>
<path d="M29.8061 24.1983L28.5717 23.4873C28.3726 23.3735 28.2134 23.0663 28.2134 22.8047C28.2134 22.543 28.3726 22.4179 28.5717 22.5316L29.8061 23.2427C30.0052 23.3564 30.1644 23.6636 30.1644 23.9253C30.1644 24.1869 30.0052 24.3121 29.8061 24.1983Z" fill="#426DB5"/>
<path d="M29.8061 25.8536L28.5717 25.1426C28.3726 25.0288 28.2134 24.7216 28.2134 24.4599C28.2134 24.1983 28.3726 24.0731 28.5717 24.1869L29.8061 24.898C30.0052 25.0117 30.1644 25.3189 30.1644 25.5806C30.1644 25.8422 30.0052 25.9674 29.8061 25.8536Z" fill="#426DB5"/>
<path d="M29.8061 30.575L28.5717 29.8639C28.3726 29.7502 28.2134 29.443 28.2134 29.1813C28.2134 28.9197 28.3726 28.7945 28.5717 28.9083L29.8061 29.6193C30.0052 29.7331 30.1644 30.0403 30.1644 30.3019C30.1644 30.5636 30.0052 30.6887 29.8061 30.575Z" fill="#426DB5"/>
<path d="M33.1735 32.5204L30.7788 31.1381C30.5797 31.0243 30.4204 30.7172 30.4204 30.4555C30.4204 30.1938 30.5797 30.0687 30.7788 30.1825L33.1735 31.5647C33.3726 31.6785 33.5319 31.9857 33.5319 32.2473C33.5319 32.509 33.3726 32.6341 33.1735 32.5204Z" fill="#B7D2EE"/>
<path d="M42.4679 37.8845L34.2712 33.1518C34.0721 33.038 33.9128 32.7308 33.9128 32.4692C33.9128 32.2075 34.0721 32.0824 34.2712 32.1961L42.4679 36.9288C42.667 37.0426 42.8262 37.3498 42.8262 37.6114C42.8262 37.8731 42.667 37.9983 42.4679 37.8845Z" fill="#FAAC67"/>
<path d="M46.8593 35.7002L45.625 34.9891C45.4259 34.8753 45.2666 34.5682 45.2666 34.3065C45.2666 34.0448 45.4259 33.9197 45.625 34.0335L46.8593 34.7445C47.0584 34.8583 47.2177 35.1654 47.2177 35.4271C47.2177 35.6888 47.0584 35.8139 46.8593 35.7002Z" fill="#426DB5"/>
<path d="M29.1122 18.4929L27.8779 17.7818C27.6788 17.6681 27.5195 17.3609 27.5195 17.0992C27.5195 16.8376 27.6788 16.7124 27.8779 16.8262L29.1122 17.5372C29.3113 17.651 29.4706 17.9582 29.4706 18.2198C29.4706 18.4815 29.3113 18.6066 29.1122 18.4929Z" fill="#426DB5"/>
<path d="M32.5192 20.4611L30.1586 19.1015C29.9596 18.9878 29.8003 18.6806 29.8003 18.4189C29.8003 18.1573 29.9596 18.0321 30.1586 18.1459L32.5192 19.5054C32.7183 19.6192 32.8776 19.9263 32.8776 20.188C32.8776 20.4497 32.7183 20.5748 32.5192 20.4611Z" fill="#B7D2EE"/>
<path d="M45.1983 27.782L43.5373 26.8207C43.3382 26.7069 43.179 26.3997 43.179 26.138C43.179 25.8764 43.3382 25.7512 43.5373 25.865L45.1983 26.8263C45.3973 26.9401 45.5566 27.2473 45.5566 27.5089C45.5566 27.7706 45.3973 27.8958 45.1983 27.782Z" fill="#B7D2EE"/>
<path d="M37.4168 23.2882L33.583 21.0754C33.3839 20.9616 33.2246 20.6545 33.2246 20.3928C33.2246 20.1311 33.3839 20.006 33.583 20.1198L37.4168 22.3325C37.6159 22.4463 37.7752 22.7535 37.7752 23.0151C37.7752 23.2768 37.6159 23.402 37.4168 23.2882Z" fill="#FAAC67"/>
<path d="M29.1122 20.3359L27.8779 19.6249C27.6788 19.5111 27.5195 19.2039 27.5195 18.9422C27.5195 18.6806 27.6788 18.5554 27.8779 18.6692L29.1122 19.3803C29.3113 19.494 29.4706 19.8012 29.4706 20.0629C29.4706 20.3245 29.3113 20.4497 29.1122 20.3359Z" fill="#426DB5"/>
<path d="M29.1122 27.0653L27.8779 26.3542C27.6788 26.2405 27.5195 25.9333 27.5195 25.6716C27.5195 25.41 27.6788 25.2848 27.8779 25.3986L29.1122 26.1096C29.3113 26.2234 29.4706 26.5306 29.4706 26.7922C29.4706 27.0539 29.3113 27.179 29.1122 27.0653Z" fill="#426DB5"/>
<path d="M32.5192 22.3041L30.1586 20.9446C29.9596 20.8308 29.8003 20.5236 29.8003 20.2619C29.8003 20.0003 29.9596 19.8751 30.1586 19.9889L32.5192 21.3484C32.7183 21.4622 32.8776 21.7694 32.8776 22.031C32.8776 22.2927 32.7183 22.4178 32.5192 22.3041Z" fill="#B7D2EE"/>
<path d="M32.5193 27.4179L30.955 26.5135C30.7559 26.3997 30.5967 26.0925 30.5967 25.8309C30.5967 25.5692 30.7559 25.4441 30.955 25.5578L32.5193 26.4623C32.7184 26.576 32.8776 26.8832 32.8776 27.1449C32.8776 27.4065 32.7184 27.5317 32.5193 27.4179Z" fill="#B7D2EE"/>
<path d="M39.2144 31.286L37.6501 30.3816C37.451 30.2678 37.2917 29.9606 37.2917 29.699C37.2917 29.4373 37.451 29.3122 37.6501 29.4259L39.2144 30.3304C39.4134 30.4441 39.5727 30.7513 39.5727 31.013C39.5727 31.2746 39.4134 31.3998 39.2144 31.286Z" fill="#B7D2EE"/>
<path d="M49.9251 34.2326L29.1518 22.2415C28.9527 22.1277 28.7935 21.8206 28.7935 21.5589C28.7935 21.2972 28.9527 21.1721 29.1518 21.2858L49.9251 33.2769C50.1242 33.3907 50.2834 33.6979 50.2834 33.9595C50.2834 34.2212 50.1242 34.3463 49.9251 34.2326Z" fill="#F3F3F3"/>
<path d="M36.5465 24.6306L33.583 22.9184C33.3839 22.8047 33.2246 22.4975 33.2246 22.2358C33.2246 21.9742 33.3839 21.849 33.583 21.9628L36.5465 23.675C36.7456 23.7887 36.9049 24.0959 36.9049 24.3576C36.9049 24.6193 36.7456 24.7444 36.5465 24.6306Z" fill="#FAAC67"/>
<path d="M36.5465 29.7445L33.583 28.0323C33.3839 27.9185 33.2246 27.6113 33.2246 27.3497C33.2246 27.088 33.3839 26.9628 33.583 27.0766L36.5465 28.7888C36.7456 28.9026 36.9049 29.2098 36.9049 29.4714C36.9049 29.7331 36.7456 29.8582 36.5465 29.7445Z" fill="#FAAC67"/>
<path d="M44.5214 34.352L40.3405 31.9345C40.1414 31.8207 39.9822 31.5135 39.9822 31.2519C39.9822 30.9902 40.1414 30.8651 40.3405 30.9788L44.5214 33.3964C44.7204 33.5102 44.8797 33.8173 44.8797 34.079C44.8797 34.3407 44.7204 34.4658 44.5214 34.352Z" fill="#F3F3F3"/>
<path d="M42.5079 26.229L38.674 24.0163C38.4749 23.9025 38.3157 23.5953 38.3157 23.3337C38.3157 23.072 38.4749 22.9469 38.674 23.0606L42.5079 25.2734C42.707 25.3872 42.8662 25.6943 42.8662 25.956C42.8662 26.2177 42.707 26.3428 42.5079 26.229Z" fill="#F3F3F3"/>
<path d="M34.6695 18.527L30.9323 16.3711C30.7332 16.2574 30.574 15.9502 30.574 15.6885C30.574 15.4269 30.7332 15.3017 30.9323 15.4155L34.6695 17.5714C34.8686 17.6851 35.0278 17.9923 35.0278 18.254C35.0278 18.5156 34.8686 18.6408 34.6695 18.527Z" fill="#B7D2EE"/>
<path d="M42.7068 23.1687L38.9697 21.0128C38.7706 20.899 38.6113 20.5919 38.6113 20.3302C38.6113 20.0685 38.7706 19.9434 38.9697 20.0571L42.7068 22.213C42.9059 22.3268 43.0652 22.634 43.0652 22.8956C43.0652 23.1573 42.9059 23.2824 42.7068 23.1687Z" fill="#B7D2EE"/>
<path d="M37.7069 20.279L35.8127 19.1869C35.6136 19.0731 35.4543 18.7659 35.4543 18.5043C35.4543 18.2426 35.6136 18.1175 35.8127 18.2312L37.7069 19.3234C37.906 19.4372 38.0652 19.7443 38.0652 20.006C38.0652 20.2677 37.906 20.3928 37.7069 20.279Z" fill="#FAAC67"/>
<path d="M50.0731 27.4179L43.9697 23.8968C43.7706 23.7831 43.6113 23.4759 43.6113 23.2142C43.6113 22.9526 43.7706 22.8274 43.9697 22.9412L50.0731 26.4623C50.2722 26.576 50.4315 26.8832 50.4315 27.1449C50.4315 27.4065 50.2722 27.5317 50.0731 27.4179Z" fill="#FAAC67"/>
<path d="M29.8061 32.0767L28.5717 31.3656C28.3726 31.2519 28.2134 30.9447 28.2134 30.683C28.2134 30.4214 28.3726 30.2962 28.5717 30.41L29.8061 31.121C30.0052 31.2348 30.1644 31.542 30.1644 31.8036C30.1644 32.0653 30.0052 32.1904 29.8061 32.0767Z" fill="#426DB5"/>
<path d="M34.6695 34.8868L30.9323 32.7309C30.7332 32.6171 30.574 32.3099 30.574 32.0483C30.574 31.7866 30.7332 31.6615 30.9323 31.7752L34.6695 33.9311C34.8686 34.0449 35.0278 34.3521 35.0278 34.6137C35.0278 34.8754 34.8686 35.0005 34.6695 34.8868Z" fill="#B7D2EE"/>
<path d="M42.7068 39.5227L38.9697 37.3669C38.7706 37.2531 38.6113 36.9459 38.6113 36.6843C38.6113 36.4226 38.7706 36.2974 38.9697 36.4112L42.7068 38.5671C42.9059 38.6809 43.0652 38.988 43.0652 39.2497C43.0652 39.5114 42.9059 39.6365 42.7068 39.5227Z" fill="#B7D2EE"/>
<path d="M37.7069 36.6388L35.8127 35.5466C35.6136 35.4328 35.4543 35.1257 35.4543 34.864C35.4543 34.6023 35.6136 34.4772 35.8127 34.591L37.7069 35.6831C37.906 35.7969 38.0652 36.1041 38.0652 36.3657C38.0652 36.6274 37.906 36.7525 37.7069 36.6388Z" fill="#FAAC67"/>
<path d="M50.0731 43.7777L43.9697 40.2566C43.7706 40.1428 43.6113 39.8356 43.6113 39.574C43.6113 39.3123 43.7706 39.1872 43.9697 39.3009L50.0731 42.822C50.2722 42.9358 50.4315 43.243 50.4315 43.5046C50.4315 43.7663 50.2722 43.8914 50.0731 43.7777Z" fill="#FAAC67"/>
<path d="M65.7781 26.832C65.7781 27.4236 66.199 28.1517 66.7166 28.4475C67.2343 28.749 67.6552 28.5044 67.6552 27.9128C67.6552 27.3212 67.2343 26.5931 66.7166 26.2973C66.199 25.9959 65.7781 26.2405 65.7781 26.832Z" fill="#414141"/>
<path d="M63.1616 25.3247C63.1616 25.9163 63.5825 26.6444 64.1002 26.9402C64.6178 27.2416 65.0387 26.997 65.0387 26.4054C65.0387 25.8139 64.6178 25.0858 64.1002 24.79C63.5825 24.4885 63.1616 24.7331 63.1616 25.3247Z" fill="#414141"/>
<path d="M60.5393 23.8115C60.5393 24.4031 60.9602 25.1312 61.4779 25.427C61.9955 25.7285 62.4164 25.4839 62.4164 24.8923C62.4164 24.3007 61.9955 23.5726 61.4779 23.2768C60.9602 22.9754 60.5393 23.22 60.5393 23.8115Z" fill="#414141"/>
<path d="M47.4679 36.542L3.27068 11.024C3.08297 10.9159 2.91801 10.9046 2.79856 10.9785L1.35376 11.8204C1.47321 11.7521 1.64386 11.7578 1.82588 11.8659L46.0231 37.3839C46.3872 37.5944 46.683 38.1063 46.683 38.5216L46.5919 71.4629C46.5919 71.6734 46.518 71.8156 46.3985 71.8838L47.8433 71.042C47.9628 70.9737 48.0367 70.8258 48.0367 70.621L48.1278 37.6797C48.1278 37.2588 47.832 36.7525 47.4679 36.542Z" fill="#E6E6E5"/>
<path d="M46.683 38.5216V41.9119L46.5863 71.4629C46.5863 71.8839 46.2905 72.0488 45.9265 71.8383L1.72925 46.3203C1.35951 46.1042 1.06373 45.5979 1.06942 45.177L1.14905 15.6259V12.2357C1.16043 11.8147 1.45621 11.6498 1.82026 11.8602L46.0232 37.3782C46.3815 37.5944 46.6773 38.1007 46.6773 38.5216H46.683Z" fill="#C0BFBF"/>
<path d="M45.8752 38.6353V41.9062L45.7842 70.4105C45.7842 70.8144 45.4998 70.9794 45.1471 70.7746L2.51411 46.1611C2.15576 45.9563 1.87135 45.4671 1.87704 45.0632L1.95667 16.5588V13.288C1.96805 12.8841 2.25246 12.7192 2.60513 12.9239L45.2381 37.5375C45.5851 37.7423 45.8695 38.2372 45.8695 38.641L45.8752 38.6353Z" fill="#1F2225"/>
<path d="M7.08765 25.006L5.14798 23.8854C4.91476 23.7489 4.72705 23.3905 4.72705 23.0833V21.8262C4.72705 21.519 4.91476 21.3768 5.14798 21.5077L7.08765 22.6283C7.32087 22.7648 7.50858 23.1232 7.50858 23.4303V24.6875C7.50858 24.9946 7.32087 25.1368 7.08765 25.006Z" fill="#426DB5"/>
<path d="M5.94423 28.3508L4.96586 27.7876C4.82934 27.708 4.71558 27.4975 4.71558 27.3155V26.4167C4.71558 26.2347 4.82365 26.1494 4.96586 26.229L5.94423 26.7922C6.08074 26.8718 6.19451 27.0823 6.19451 27.2643V28.1631C6.19451 28.3451 6.08643 28.4304 5.94423 28.3508Z" fill="#FAAC67"/>
<path d="M17.7983 35.1939L16.0577 34.1871C15.8814 34.0847 15.7449 33.8173 15.7449 33.5841V32.8617C15.7449 32.6284 15.8871 32.5261 16.0577 32.6228L17.7983 33.6296C17.9746 33.732 18.1112 33.9993 18.1112 34.2326V34.955C18.1112 35.1882 17.969 35.2906 17.7983 35.1939Z" fill="#FAAC67"/>
<path d="M23.6003 46.4284L16.0066 42.0427C15.8587 41.9574 15.7393 41.7298 15.7393 41.5307V35.4783C15.7393 35.2792 15.8587 35.1882 16.0066 35.2735L23.6003 39.6593C23.7482 39.7446 23.8677 39.9721 23.8677 40.1712V46.2236C23.8677 46.4227 23.7482 46.5137 23.6003 46.4284Z" fill="#F3F3F3"/>
<path d="M33.1851 51.9575L25.5913 47.5717C25.4434 47.4864 25.324 47.2589 25.324 47.0598V41.0074C25.324 40.8083 25.4434 40.7173 25.5913 40.8026L33.1851 45.1883C33.3329 45.2736 33.4524 45.5012 33.4524 45.7003V51.7527C33.4524 51.9518 33.3329 52.0428 33.1851 51.9575Z" fill="white"/>
<path d="M42.7695 57.4922L35.1758 53.1065C35.0279 53.0212 34.9084 52.7937 34.9084 52.5946V46.5421C34.9084 46.3431 35.0279 46.252 35.1758 46.3374L42.7695 50.7231C42.9174 50.8084 43.0369 51.036 43.0369 51.235V57.2875C43.0369 57.4866 42.9174 57.5776 42.7695 57.4922Z" fill="#8C8C8C"/>
<path d="M23.6003 54.8074L16.0066 50.4216C15.8587 50.3363 15.7393 50.1088 15.7393 49.9097V43.8573C15.7393 43.6582 15.8587 43.5672 16.0066 43.6525L23.6003 48.0382C23.7482 48.1235 23.8677 48.3511 23.8677 48.5502V54.6026C23.8677 54.8017 23.7482 54.8927 23.6003 54.8074Z" fill="#8C8C8C"/>
<path d="M33.1851 60.3421L25.5913 55.9564C25.4434 55.871 25.324 55.6435 25.324 55.4444V49.392C25.324 49.1929 25.4434 49.1019 25.5913 49.1872L33.1851 53.5729C33.3329 53.6583 33.4524 53.8858 33.4524 54.0849V60.1373C33.4524 60.3364 33.3329 60.4274 33.1851 60.3421Z" fill="#C0BFBF"/>
<path d="M42.7695 65.8712L35.1758 61.4855C35.0279 61.4002 34.9084 61.1726 34.9084 60.9735V54.9211C34.9084 54.722 35.0279 54.631 35.1758 54.7163L42.7695 59.1021C42.9174 59.1874 43.0369 59.4149 43.0369 59.614V65.6664C43.0369 65.8655 42.9174 65.9565 42.7695 65.8712Z" fill="#F3F3F3"/>
<path d="M20.8244 36.9459L19.0838 35.9391C18.9075 35.8367 18.771 35.5693 18.771 35.3361V34.6137C18.771 34.3805 18.9132 34.2781 19.0838 34.3748L20.8244 35.3816C20.9951 35.484 21.1373 35.7514 21.1373 35.9846V36.707C21.1373 36.9402 20.9951 37.0426 20.8244 36.9459Z" fill="#FAAC67"/>
<path d="M23.8564 38.6922L22.1158 37.6853C21.9395 37.583 21.803 37.3156 21.803 37.0824V36.36C21.803 36.1267 21.9452 36.0243 22.1158 36.121L23.8564 37.1279C24.0271 37.2303 24.1693 37.4976 24.1693 37.7309V38.4533C24.1693 38.6865 24.0271 38.7889 23.8564 38.6922Z" fill="#FAAC67"/>
<path d="M26.8882 40.4442L25.1476 39.4374C24.9712 39.335 24.8347 39.0676 24.8347 38.8344V38.112C24.8347 37.8788 24.9769 37.7764 25.1476 37.8731L26.8882 38.8799C27.0645 38.9823 27.201 39.2496 27.201 39.4829V40.2053C27.201 40.4385 27.0588 40.5409 26.8882 40.4442Z" fill="#FAAC67"/>
<path d="M42.6557 49.5456L40.1529 48.1008C39.9482 47.9813 39.7832 47.6685 39.7832 47.4011V46.8209C39.7832 46.5479 39.9482 46.4284 40.1529 46.5422L42.6557 47.987C42.8605 48.1065 43.0255 48.4193 43.0255 48.6867V49.2669C43.0255 49.54 42.8605 49.6594 42.6557 49.5456Z" fill="#FAAC67"/>
<path d="M38.7766 47.3101L37.036 46.3033C36.8597 46.2009 36.7231 45.9335 36.7231 45.7003V44.9779C36.7231 44.7447 36.8654 44.6423 37.036 44.739L38.7766 45.7458C38.9529 45.8482 39.0894 46.1156 39.0894 46.3488V47.0712C39.0894 47.3044 38.9472 47.4068 38.7766 47.3101Z" fill="#FAAC67"/>
<path d="M35.8072 45.5922L34.6752 44.9381C34.533 44.8527 34.4136 44.6309 34.4136 44.4375V43.5785C34.4136 43.3851 34.533 43.2941 34.6752 43.3795L35.8072 44.0336C35.9494 44.1189 36.0688 44.3408 36.0688 44.5342V45.3931C36.0688 45.5865 35.9494 45.6776 35.8072 45.5922Z" fill="#FAAC67"/>
<path d="M33.2817 44.136L28.3557 41.2918C28.0827 41.1325 27.8608 40.7059 27.8608 40.3419V40.1086C27.8608 39.7446 28.0827 39.5739 28.3557 39.7332L33.2817 42.5774C33.5547 42.7367 33.7766 43.1633 33.7766 43.5273V43.7606C33.7766 44.1246 33.5547 44.2953 33.2817 44.136Z" fill="#FAAC67"/>
<path d="M5.94423 31.0584L4.96586 30.4953C4.82934 30.4156 4.71558 30.2052 4.71558 30.0232V29.1244C4.71558 28.9424 4.82365 28.857 4.96586 28.9367L5.94423 29.4998C6.08074 29.5795 6.19451 29.7899 6.19451 29.972V30.8707C6.19451 31.0527 6.08643 31.1381 5.94423 31.0584Z" fill="#FAAC67"/>
<path d="M5.94423 33.7661L4.96586 33.2029C4.82934 33.1233 4.71558 32.9128 4.71558 32.7308V31.832C4.71558 31.65 4.82365 31.5647 4.96586 31.6443L5.94423 32.2075C6.08074 32.2871 6.19451 32.4976 6.19451 32.6796V33.5784C6.19451 33.7604 6.08643 33.8457 5.94423 33.7661Z" fill="#FAAC67"/>
<path d="M5.94423 36.468L4.96586 35.9049C4.82934 35.8253 4.71558 35.6148 4.71558 35.4328V34.534C4.71558 34.352 4.82365 34.2666 4.96586 34.3463L5.94423 34.9094C6.08074 34.9891 6.19451 35.1995 6.19451 35.3816V36.2803C6.19451 36.4624 6.08643 36.5477 5.94423 36.468Z" fill="#FAAC67"/>
<path d="M5.94423 39.1757L4.96586 38.6126C4.82934 38.533 4.71558 38.3225 4.71558 38.1405V37.2417C4.71558 37.0597 4.82365 36.9743 4.96586 37.054L5.94423 37.6171C6.08074 37.6968 6.19451 37.9072 6.19451 38.0893V38.988C6.19451 39.1701 6.08643 39.2554 5.94423 39.1757Z" fill="#FAAC67"/>
<path d="M14.1579 29.0903L8.5835 25.8707C8.31046 25.7114 8.08862 25.2848 8.08862 24.9207V24.8354C8.08862 24.4713 8.31046 24.3007 8.5835 24.46L14.1579 27.6796C14.431 27.8388 14.6528 28.2655 14.6528 28.6295V28.7149C14.6528 29.0789 14.431 29.2496 14.1579 29.0903Z" fill="#F3F3F3"/>
<path d="M14.1579 33.0209L8.5835 29.8013C8.31046 29.642 8.08862 29.2154 8.08862 28.8513V28.766C8.08862 28.4019 8.31046 28.2313 8.5835 28.3906L14.1579 31.6102C14.431 31.7694 14.6528 32.1961 14.6528 32.5601V32.6455C14.6528 33.0095 14.431 33.1802 14.1579 33.0209Z" fill="#F3F3F3"/>
<path d="M14.1579 35.7229L8.5835 32.5033C8.31046 32.344 8.08862 31.9174 8.08862 31.5533V31.468C8.08862 31.104 8.31046 30.9333 8.5835 31.0926L14.1579 34.3122C14.431 34.4715 14.6528 34.8981 14.6528 35.2622V35.3475C14.6528 35.7115 14.431 35.8822 14.1579 35.7229Z" fill="#F3F3F3"/>
<path d="M14.1579 38.4306L8.5835 35.2109C8.31046 35.0517 8.08862 34.625 8.08862 34.261V34.1757C8.08862 33.8116 8.31046 33.641 8.5835 33.8002L14.1579 37.0198C14.431 37.1791 14.6528 37.6057 14.6528 37.9698V38.0551C14.6528 38.4192 14.431 38.5898 14.1579 38.4306Z" fill="#F3F3F3"/>
<path d="M14.1579 41.1382L8.5835 37.9186C8.31046 37.7593 8.08862 37.3327 8.08862 36.9686V36.8833C8.08862 36.5192 8.31046 36.3486 8.5835 36.5079L14.1579 39.7275C14.431 39.8868 14.6528 40.3134 14.6528 40.6774V40.7628C14.6528 41.1268 14.431 41.2975 14.1579 41.1382Z" fill="#F3F3F3"/>
<path d="M14.1579 43.8459L8.5835 40.6263C8.31046 40.467 8.08862 40.0404 8.08862 39.6763V39.591C8.08862 39.2269 8.31046 39.0563 8.5835 39.2156L14.1579 42.4352C14.431 42.5945 14.6528 43.0211 14.6528 43.3851V43.4705C14.6528 43.8345 14.431 44.0052 14.1579 43.8459Z" fill="#F3F3F3"/>
<path d="M5.94423 41.963L4.96586 41.3999C4.82934 41.3202 4.71558 41.1098 4.71558 40.9278V40.029C4.71558 39.847 4.82365 39.7616 4.96586 39.8413L5.94423 40.4044C6.08074 40.4841 6.19451 40.6945 6.19451 40.8766V41.7753C6.19451 41.9573 6.08643 42.0427 5.94423 41.963Z" fill="#FAAC67"/>
<path d="M14.1579 46.6275L8.5835 43.4078C8.31046 43.2486 8.08862 42.8219 8.08862 42.4579V42.3726C8.08862 42.0085 8.31046 41.8379 8.5835 41.9971L14.1579 45.2167C14.431 45.376 14.6528 45.8026 14.6528 46.1667V46.252C14.6528 46.6161 14.431 46.7867 14.1579 46.6275Z" fill="#F3F3F3"/>
<path d="M5.94423 44.7447L4.96586 44.1815C4.82934 44.1019 4.71558 43.8914 4.71558 43.7094V42.8106C4.71558 42.6286 4.82365 42.5433 4.96586 42.6229L5.94423 43.186C6.08074 43.2657 6.19451 43.4761 6.19451 43.6582V44.5569C6.19451 44.739 6.08643 44.8243 5.94423 44.7447Z" fill="#FAAC67"/>
<path d="M14.1579 49.4148L8.5835 46.1952C8.31046 46.0359 8.08862 45.6093 8.08862 45.2452V45.1599C8.08862 44.7959 8.31046 44.6252 8.5835 44.7845L14.1579 48.0041C14.431 48.1634 14.6528 48.59 14.6528 48.954V49.0394C14.6528 49.4034 14.431 49.5741 14.1579 49.4148Z" fill="#F3F3F3"/>
<path d="M46.6831 38.5216V41.9119L1.15479 15.6259V12.2357C1.16616 11.8147 1.46195 11.6498 1.82599 11.8602L46.0289 37.3782C46.3873 37.5944 46.6831 38.1007 46.6831 38.5216Z" fill="#C0BFBF"/>
<path d="M8.12842 17.7306C8.12842 18.3222 8.54934 19.0503 9.06697 19.3461C9.58459 19.6476 10.0055 19.403 10.0055 18.8114C10.0055 18.2198 9.58459 17.4917 9.06697 17.1959C8.54934 16.8944 8.12842 17.139 8.12842 17.7306Z" fill="#414141"/>
<path d="M5.51172 16.2175C5.51172 16.8091 5.93265 17.5372 6.45027 17.833C6.9679 18.1345 7.38882 17.8899 7.38882 17.2983C7.38882 16.7067 6.9679 15.9786 6.45027 15.6828C5.93265 15.387 5.51172 15.6259 5.51172 16.2175Z" fill="#414141"/>
<path d="M2.89526 14.7101C2.89526 15.3017 3.31619 16.0298 3.83381 16.3256C4.35144 16.6271 4.77237 16.3825 4.77237 15.7909C4.77237 15.1993 4.35144 14.4712 3.83381 14.1754C3.31619 13.8739 2.89526 14.1185 2.89526 14.7101Z" fill="#414141"/>
<path d="M44.1803 78.7952L0.358465 53.5161C-0.170537 53.2146 -0.102278 52.6799 0.506358 52.3272L1.89428 51.5252C2.50291 51.1725 3.4244 51.1384 3.94771 51.4399L47.7752 76.7189C48.3042 77.0204 48.236 77.5551 47.6273 77.9078L46.2394 78.7099C45.6308 79.0626 44.7093 79.0967 44.186 78.7952H44.1803Z" fill="#F3F3F3"/>
</g>
<defs>
<clipPath id="clip0_88_1876">
<rect width="71" height="79" fill="white"/>
</clipPath>
</defs>
</svg>
