<svg width="65" height="99" viewBox="0 0 65 99" fill="none" xmlns="http://www.w3.org/2000/svg">
<g clip-path="url(#clip0_88_5)">
<path d="M56.5668 98.7542L28.3135 82.5753C27.7107 82.2298 27.7844 81.6252 28.481 81.2265L30.0819 80.3096C30.7785 79.9109 31.8368 79.8644 32.4397 80.2099L60.693 96.3888C61.2958 96.7343 61.2221 97.3389 60.5255 97.7376L58.9246 98.6545C58.228 99.0532 57.1697 99.0997 56.5668 98.7542Z" fill="#F3F3F3"/>
<path d="M59.3466 19.2751L33.344 4.38525C32.855 4.10619 32.4129 4.09955 32.0713 4.29223L29.5059 5.76726L32.5268 8.09277L33.2636 7.90673V69.021C33.2636 70.4561 34.1411 72.1172 35.2262 72.7418L58.0204 89.2927V90.3159L60.6729 88.7811V88.7678C61.0547 88.5153 61.3025 87.9838 61.3025 87.233V22.9959C61.3025 21.5608 60.4251 19.8997 59.3399 19.2751H59.3466Z" fill="#989898"/>
<path d="M55.3679 24.7369V21.8532L52.8091 23.7601L41.6364 19.1158L33.2636 13.0695V7.9135L32.5201 8.09954L29.5059 5.77404L32.0713 4.29901C32.4129 4.10632 32.855 4.11297 33.344 4.39203L59.3399 19.2885C60.0567 19.6938 60.6796 20.5576 61.0145 21.5011L55.3612 24.7435L55.3679 24.7369Z" fill="#E6E6E5"/>
<path d="M56.7678 90.2029L30.7651 75.3131C29.68 74.6952 28.8025 73.0274 28.8025 71.5923V7.35522C28.8025 5.92006 29.68 5.26227 30.7651 5.88684L56.7678 20.7767C57.8529 21.3946 58.7304 23.0623 58.7304 24.4975V88.7346C58.7304 90.1697 57.8529 90.8275 56.7678 90.2029Z" fill="#CCCCCC"/>
<path d="M29.3787 71.971V7.62762C29.3787 6.58447 30.0217 6.09943 30.8121 6.55789L56.7277 21.4012C57.5181 21.8531 58.1611 23.069 58.1611 24.1121V88.4555C58.1611 89.4986 57.5181 89.9837 56.7277 89.5252L30.8121 74.6818C30.0217 74.23 29.3787 73.0141 29.3787 71.971Z" fill="#333333"/>
<path d="M57.3908 24.7965V87.12C57.3908 88.0502 56.7343 88.4156 55.9238 87.9505L31.6091 74.0241C30.7919 73.559 30.1355 72.4295 30.1355 71.4993V9.18241C30.1355 8.25886 30.7986 7.88013 31.6091 8.35188L36.0501 10.8966C36.2376 11.0029 36.3984 11.2355 36.452 11.4681L36.6596 12.3983C36.8137 13.2886 37.517 14.2786 38.3476 14.757L49.1921 20.9627C50.016 21.4345 50.7327 21.2551 50.88 20.5375L51.0877 19.8399C51.1413 19.6671 51.302 19.6206 51.4896 19.7269L55.9372 22.2717C56.7477 22.7368 57.4041 23.8663 57.4041 24.7899L57.3908 24.7965Z" fill="#8BC1E9"/>
<path d="M39.3323 13.8467C39.3323 14.345 38.9772 14.5443 38.5419 14.2919C38.1065 14.0394 37.7515 13.4414 37.7515 12.9431C37.7515 12.4447 38.1065 12.2454 38.5419 12.4979C38.9772 12.7504 39.3323 13.3484 39.3323 13.8467Z" fill="#676767"/>
<path d="M38.9772 13.6473C38.9772 13.9198 38.783 14.0261 38.5418 13.8932C38.3007 13.7537 38.1064 13.4281 38.1064 13.1557C38.1064 12.8833 38.3007 12.7769 38.5418 12.9098C38.783 13.0494 38.9772 13.3749 38.9772 13.6473Z" fill="#333333"/>
<path d="M47.5508 17.4545L39.8344 13.0361C39.7072 12.963 39.6067 12.7703 39.6067 12.5976V12.2853C39.6067 12.1192 39.7072 12.0394 39.8344 12.1125L47.5508 16.531C47.6781 16.6041 47.7786 16.7968 47.7786 16.9695V17.2818C47.7786 17.4479 47.6781 17.5276 47.5508 17.4545Z" fill="#010101"/>
<path d="M60.5858 32.8959C60.4317 32.8096 60.2241 32.8228 59.9896 32.9557C59.5274 33.2215 59.1523 33.866 59.1523 34.3975L59.1724 42.0318C59.1724 42.291 59.2662 42.477 59.4203 42.5634L59.8892 42.8358C59.7351 42.7494 59.6413 42.5634 59.6413 42.3042L59.6212 34.67C59.6212 34.1384 59.9963 33.4939 60.4585 33.2281C60.6929 33.0953 60.9073 33.082 61.0547 33.1683L60.5858 32.9026V32.8959Z" fill="#E6E6E5"/>
<path d="M60.4586 33.2281C60.9208 32.9624 61.3026 33.175 61.3026 33.7065L61.3227 41.3408C61.3227 41.8657 60.9476 42.5169 60.4854 42.7826C60.0232 43.0484 59.6414 42.8291 59.6414 42.3042L59.6213 34.6699C59.6213 34.1384 59.9964 33.4939 60.4586 33.2281Z" fill="#C0BFBF"/>
<path d="M60.5925 34.0852C60.9743 33.866 61.2824 34.0387 61.2824 34.4773L61.3025 40.7428C61.3025 41.1747 60.9944 41.7062 60.6126 41.9255C60.2308 42.1448 59.9227 41.9654 59.9227 41.5335L59.9026 35.2679C59.9026 34.836 60.2107 34.3045 60.5925 34.0852Z" fill="#CCCCCC"/>
<path d="M63.6538 33.6733L42.2997 21.4478C41.9246 21.2352 41.583 21.2152 41.3351 21.3548L40.2634 21.9727C40.5113 21.8332 40.8529 21.8531 41.228 22.0657L62.5821 34.2912C63.3323 34.7231 63.9351 35.7596 63.9284 36.6101L63.7944 84.263C63.7944 84.6882 63.6404 84.9805 63.3992 85.1201L64.471 84.5022C64.7121 84.3626 64.8595 84.0636 64.8662 83.645L65.0001 35.9921C65.0001 35.1417 64.404 34.1052 63.6538 33.6733Z" fill="#F3F3F3"/>
<path d="M63.9283 36.6101V39.7063L63.7944 84.263C63.7944 85.1134 63.1848 85.4523 62.4346 85.0271L41.0805 72.7949C40.3303 72.3697 39.7275 71.3332 39.7342 70.4827L39.8615 25.9261V22.8298C39.8748 21.9793 40.4777 21.6338 41.2279 22.0657L62.582 34.2912C63.3322 34.7231 63.935 35.7596 63.9283 36.6101Z" fill="#CCCCCC"/>
<path d="M63.3256 37.4539V40.3973L63.1983 82.7348C63.1983 83.5454 62.6223 83.8709 61.9122 83.459L41.6232 71.8381C40.9132 71.4328 40.3371 70.4495 40.3438 69.6455L40.4644 27.308V24.3646C40.4778 23.554 41.0538 23.2284 41.7638 23.6337L62.0529 35.248C62.7629 35.6533 63.339 36.6433 63.3323 37.4472L63.3256 37.4539Z" fill="#333333"/>
<path d="M47.6048 34.5836C47.9866 34.8028 48.2947 35.3344 48.2947 35.7663L48.2746 42.2843C48.2746 42.7162 47.9598 42.8956 47.578 42.6763L41.4892 39.1881C41.1074 38.9688 40.7993 38.4373 40.7993 38.0054L40.8194 31.4873C40.8194 31.0555 41.1342 30.8761 41.516 31.0953L47.6048 34.5836Z" fill="#CCCCCC"/>
<path d="M44.3426 34.6965C43.2709 34.0853 42.4001 34.5703 42.4001 35.7928C42.4001 37.0154 43.2709 38.4971 44.3426 39.115C45.4144 39.7263 46.2851 39.2346 46.2851 38.0187C46.2851 36.8028 45.4144 35.3145 44.3426 34.6965ZM43.8671 37.6533V35.6666L45.3742 37.527L43.8671 37.6533Z" fill="#5253A3"/>
<path d="M45.9367 47.2276C46.2113 47.3871 46.4324 47.7658 46.4324 48.0781L46.419 52.9152C46.419 53.2274 46.1912 53.3537 45.9166 53.1942L41.6766 50.7624C41.402 50.6029 41.1809 50.2242 41.1809 49.9119L41.1943 45.0749C41.1943 44.7626 41.4153 44.6364 41.69 44.7892L45.93 47.221L45.9367 47.2276Z" fill="#CCCCCC"/>
<path d="M43.5051 49.2475L43.1099 50.3106L41.4487 49.3605L42.4803 47.9187C42.6276 47.7194 42.9893 47.9187 43.13 48.2908L43.5051 49.2475Z" fill="#6CADDF"/>
<path d="M44.1549 50.9086L43.1033 50.3106L43.5052 49.2476L44.1549 50.9086Z" fill="#5253A3"/>
<path d="M45.8159 51.8654L44.1547 50.9153L43.4983 49.2542L44.0007 47.912C44.1547 47.5134 44.7576 47.8589 44.9116 48.4303L45.8159 51.8654Z" fill="#6CADDF"/>
<path d="M43.5117 47.3605C43.5117 47.5931 43.3443 47.6861 43.1433 47.5731C42.9357 47.4535 42.7749 47.1745 42.7749 46.9419C42.7749 46.7094 42.9424 46.6164 43.1433 46.7293C43.351 46.8489 43.5117 47.128 43.5117 47.3605Z" fill="#5253A3"/>
<path d="M61.5437 42.1913C61.8317 42.3574 62.0595 42.7494 62.0595 43.075V44.8423C62.0595 45.1679 61.825 45.3008 61.537 45.1347L51.1078 39.1615C50.8198 38.9954 50.592 38.6033 50.592 38.2778V36.5104C50.592 36.1848 50.8265 36.0519 51.1145 36.218L61.5437 42.1913Z" fill="#CCCCCC"/>
<path d="M61.2021 43.2743L51.637 37.7728C51.5298 37.713 51.436 37.7728 51.436 37.919C51.436 38.0651 51.5231 38.2312 51.637 38.2977L61.2021 43.7992C61.3093 43.859 61.4031 43.7992 61.4031 43.653C61.4031 43.5068 61.316 43.3407 61.2021 43.2743Z" fill="#5253A3"/>
<path d="M61.5437 48.3638C61.8317 48.5299 62.0595 48.9219 62.0595 49.2475V51.0149C62.0595 51.3405 61.825 51.4733 61.537 51.3072L51.1078 45.334C50.8198 45.1679 50.592 44.7759 50.592 44.4503V42.6829C50.592 42.3574 50.8265 42.2245 51.1145 42.3906L61.5437 48.3638Z" fill="#CCCCCC"/>
<path d="M61.2021 49.3471L51.637 43.8457C51.5298 43.7859 51.436 43.8457 51.436 43.9918C51.436 44.138 51.5231 44.3041 51.637 44.3706L61.2021 49.872C61.3093 49.9318 61.4031 49.872 61.4031 49.7259C61.4031 49.5797 61.316 49.4136 61.2021 49.3471Z" fill="#5253A3"/>
<path d="M45.9367 58.5495C46.2113 58.709 46.4324 59.0877 46.4324 59.4L46.419 64.2371C46.419 64.5493 46.1912 64.6756 45.9166 64.5161L41.6766 62.0843C41.402 61.9248 41.1809 61.5461 41.1809 61.2338L41.1943 56.3968C41.1943 56.0845 41.4153 55.9583 41.69 56.1111L45.93 58.5429L45.9367 58.5495Z" fill="#CCCCCC"/>
<path d="M45.7959 60.1907L43.7731 60.3634L41.7234 57.8585C41.7234 57.7788 41.777 57.7456 41.8507 57.7854L45.6754 59.9714C45.7424 60.0113 45.8026 60.1043 45.8026 60.184L45.7959 60.1907Z" fill="#5253A3"/>
<path d="M43.7732 60.5296L45.796 60.3634V62.8019C45.796 62.8816 45.7425 62.9149 45.6688 62.875L41.8441 60.689C41.7771 60.6492 41.7168 60.5561 41.7168 60.4764V58.0247L43.7397 60.4963L43.7732 60.5362V60.5296Z" fill="#5253A3"/>
<path d="M61.3697 77.9974C61.7515 78.2166 62.0596 78.7415 62.0596 79.1801V80.5887C62.0596 81.0272 61.7448 81.1999 61.363 80.9807L42.4873 70.1704C42.1055 69.9511 41.7974 69.4196 41.7974 68.9877V67.5791C41.7974 67.1406 42.1122 66.9678 42.494 67.1871L61.3697 77.9974Z" fill="#CCCCCC"/>
<path d="M60.8741 79.0605L42.7017 68.5891C42.5945 68.5293 42.5007 68.5891 42.5007 68.7352C42.5007 68.8814 42.5878 69.0475 42.7017 69.114L60.8741 79.5854C60.9813 79.6452 61.075 79.5854 61.075 79.4392C61.075 79.293 60.988 79.1269 60.8741 79.0605Z" fill="#5253A3"/>
<path d="M53.6801 62.9813C53.9547 63.1408 54.1758 63.5195 54.1758 63.8318L54.1624 68.6688C54.1624 68.9811 53.9346 69.1073 53.66 68.9479L49.42 66.5161C49.1454 66.3566 48.9243 65.9779 48.9243 65.6656L48.9377 60.8286C48.9377 60.5163 49.1588 60.39 49.4334 60.5428L53.6734 62.9747L53.6801 62.9813Z" fill="#CCCCCC"/>
<path d="M53.3049 67.3267L49.8017 65.3201C49.5874 65.2005 49.4199 64.9015 49.4199 64.6623V62.7488C49.4199 62.5096 49.5941 62.4099 49.8017 62.5295L53.3049 64.5361C53.5193 64.6557 53.6867 64.9547 53.6867 65.1939V67.1074C53.6867 67.3466 53.5126 67.4463 53.3049 67.3267ZM49.795 62.7089C49.6745 62.6358 49.574 62.6956 49.574 62.8351V64.7487C49.574 64.8882 49.6745 65.061 49.795 65.1341L53.2982 67.1406C53.4188 67.2137 53.5193 67.1539 53.5193 67.0144V65.1008C53.5193 64.9613 53.4188 64.7886 53.2982 64.7155L49.795 62.7089Z" fill="#5253A3"/>
<path d="M51.55 66.0111C51.0342 65.7187 50.6189 65.0012 50.6189 64.4165C50.6189 63.8318 51.0342 63.5926 51.55 63.8916C52.0657 64.1839 52.481 64.9015 52.481 65.4862C52.481 66.0709 52.0657 66.3101 51.55 66.0111ZM51.55 64.071C51.1213 63.8251 50.7797 64.0244 50.7797 64.5095C50.7797 64.9945 51.128 65.5859 51.55 65.8317C51.9786 66.0775 52.3203 65.8782 52.3203 65.3932C52.3203 64.9081 51.9719 64.3168 51.55 64.071Z" fill="#5253A3"/>
<path d="M52.6553 64.3168L50.4448 63.0478V62.5893C50.4448 62.4298 50.5587 62.37 50.6994 62.4498L52.4074 63.4265C52.5481 63.5062 52.662 63.6989 52.662 63.8584V64.3168H52.6553ZM50.6056 62.9614L52.5012 64.0444V63.7653C52.5012 63.7055 52.461 63.6391 52.4074 63.6059L50.6994 62.6292C50.6458 62.6026 50.6056 62.6292 50.6056 62.6823V62.9614Z" fill="#5253A3"/>
<path d="M61.5638 67.4861C61.8384 67.6456 62.0594 68.0243 62.0594 68.3366L62.046 73.1736C62.046 73.4859 61.825 73.6122 61.5504 73.4527L57.3104 71.0209C57.0357 70.8614 56.8147 70.4827 56.8147 70.1704L56.8281 65.3334C56.8281 65.0211 57.0558 64.8949 57.3305 65.0543L61.5705 67.4861H61.5638Z" fill="#CCCCCC"/>
<path d="M59.4539 67.3798C58.4827 66.8217 57.699 67.114 57.699 68.0309C57.699 68.6223 58.0272 69.3266 58.5229 69.9046C58.5028 70.0575 58.4023 70.383 57.9535 70.1372C57.9535 70.1372 58.5631 70.8083 59.1458 70.4893C59.2463 70.5624 59.3467 70.6289 59.4472 70.6887C60.4185 71.2468 61.2022 70.9544 61.2022 70.0375C61.2022 69.1206 60.4185 67.9313 59.4472 67.3798H59.4539Z" fill="#5253A3"/>
<path d="M61.2624 55.9848C61.7045 56.2373 62.0662 56.8552 62.0595 57.3602L62.0461 61.4996C62.0461 62.0045 61.6844 62.2105 61.2423 61.9514L49.1988 55.0546C48.7567 54.8021 48.395 54.1842 48.4017 53.6792L48.4151 49.5398C48.4151 49.0349 48.7768 48.8289 49.2189 49.0814L61.2624 55.9782V55.9848Z" fill="#CCCCCC"/>
<path d="M60.9542 56.9748L49.6006 50.4434C49.4934 50.3836 49.3997 50.4434 49.3997 50.5896C49.3997 50.7358 49.4867 50.9019 49.6006 50.9683L60.9542 57.4997C61.0613 57.5595 61.1551 57.4997 61.1551 57.3535C61.1551 57.2073 61.068 57.0412 60.9542 56.9748Z" fill="#5253A3"/>
<path d="M60.9542 58.5428L49.6006 52.0115C49.4934 51.9517 49.3997 52.0115 49.3997 52.1577C49.3997 52.3038 49.4867 52.47 49.6006 52.5364L60.9542 59.0677C61.0613 59.1275 61.1551 59.0677 61.1551 58.9216C61.1551 58.7754 61.068 58.6093 60.9542 58.5428Z" fill="#5253A3"/>
<path d="M60.9542 60.1042L49.6006 53.5729C49.4934 53.5131 49.3997 53.5729 49.3997 53.7191C49.3997 53.8652 49.4867 54.0314 49.6006 54.0978L60.9542 60.6291C61.0613 60.6889 61.1551 60.6291 61.1551 60.483C61.1551 60.3368 61.068 60.1707 60.9542 60.1042Z" fill="#5253A3"/>
<path d="M63.9285 36.6101V39.7063L39.8616 25.9261V22.8298C39.875 21.9793 40.4778 21.6338 41.228 22.0657L62.5821 34.2912C63.3323 34.7231 63.9352 35.7596 63.9285 36.6101Z" fill="#CCCCCC"/>
<path d="M26.5119 12.4116L5.15786 0.18613C4.78275 -0.0264877 4.44114 -0.0464206 4.19331 0.0931096L3.12158 0.711029C3.36942 0.571499 3.71103 0.591432 4.08613 0.804049L25.4402 13.0296C26.1904 13.4614 26.7933 14.4979 26.7866 15.3484L26.6526 63.0013C26.6526 63.4265 26.4985 63.7189 26.2574 63.8584L27.3291 63.2405C27.5703 63.101 27.7176 62.802 27.7243 62.3834L27.8583 14.7305C27.8583 13.88 27.2621 12.8435 26.5119 12.4116Z" fill="#FFD168"/>
<path d="M26.7865 15.3483V18.4446L26.6525 63.0012C26.6525 63.8517 26.043 64.1906 25.2928 63.7653L3.93869 51.5332C3.18849 51.1079 2.58564 50.0714 2.59234 49.221L2.71961 4.66432V1.56807C2.733 0.717604 3.33585 0.372101 4.08605 0.797336L25.4401 13.0228C26.1903 13.4547 26.7932 14.4912 26.7865 15.3417V15.3483Z" fill="#FAAC67"/>
<path d="M26.1837 16.1922V19.1356L26.0565 61.473C26.0565 62.2836 25.4804 62.6092 24.7704 62.1973L4.48133 50.5764C3.77131 50.1711 3.19526 49.1877 3.20196 48.3838L3.32253 6.05298V3.10955C3.33593 2.29895 3.91198 1.97338 4.62199 2.37868L24.911 13.9929C25.6211 14.3982 26.1971 15.3882 26.1904 16.1922H26.1837Z" fill="#333333"/>
<path d="M10.9854 22.77C11.3672 22.9892 11.6753 23.5208 11.6753 23.9527L11.6552 30.4707C11.6552 30.9026 11.3404 31.082 10.9586 30.8627L4.86985 27.3745C4.48805 27.1552 4.17993 26.6237 4.17993 26.1918L4.20003 19.6737C4.20003 19.2419 4.51485 19.0625 4.89665 19.2817L10.9854 22.77Z" fill="#FAAC67"/>
<path d="M7.71667 22.8829C6.64495 22.2717 5.77417 22.7567 5.77417 23.9793C5.77417 25.2018 6.64495 26.6835 7.71667 27.3014C8.78839 27.9127 9.65917 27.421 9.65917 26.2051C9.65917 24.9892 8.78839 23.5009 7.71667 22.8829ZM7.24779 25.8397V23.853L8.7549 25.7134L7.24779 25.8397Z" fill="white"/>
<path d="M11.367 11.7537C11.7622 11.9797 12.0837 12.5311 12.077 12.9763L12.0569 19.9329C12.0569 20.3847 11.7354 20.5641 11.3402 20.3382L5.23809 16.8433C4.84289 16.6174 4.52808 16.0725 4.52808 15.6207L4.54817 8.66415C4.54817 8.21234 4.86969 8.03294 5.26489 8.25885L11.367 11.7537Z" fill="#FAAC67"/>
<path d="M7.87041 14.664L7.29436 16.1921L4.90308 14.8234L6.38339 12.7504C6.59104 12.4581 7.1135 12.757 7.32115 13.2886L7.86371 14.6706L7.87041 14.664Z" fill="white"/>
<path d="M8.80824 17.0559L7.29443 16.1855L7.87048 14.6639L8.80824 17.0559Z" fill="#E6E6E5"/>
<path d="M11.1994 18.4246L8.80812 17.0559L7.87036 14.6639L8.59377 12.7371C8.80812 12.159 9.68559 12.6574 9.89994 13.4879L11.1994 18.4312V18.4246Z" fill="white"/>
<path d="M7.87714 11.9464C7.87714 12.2786 7.63601 12.4182 7.34128 12.2454C7.04656 12.0793 6.80542 11.6674 6.80542 11.3352C6.80542 11.0029 7.04656 10.8634 7.34128 11.0362C7.63601 11.2023 7.87714 11.6142 7.87714 11.9464Z" fill="#E6E6E5"/>
<path d="M24.4019 20.5508C24.6899 20.7169 24.9176 21.1089 24.9176 21.4345V23.2019C24.9176 23.5275 24.6832 23.6603 24.3952 23.4942L13.966 17.521C13.6779 17.3549 13.4502 16.9629 13.4502 16.6373V14.8699C13.4502 14.5444 13.6846 14.4115 13.9727 14.5776L24.4019 20.5508Z" fill="#FAAC67"/>
<path d="M24.0603 21.6338L14.4951 16.1323C14.388 16.0725 14.2942 16.1323 14.2942 16.2785C14.2942 16.4247 14.3813 16.5908 14.4951 16.6572L24.0603 22.1587C24.1674 22.2185 24.2612 22.1587 24.2612 22.0125C24.2612 21.8664 24.1741 21.7003 24.0603 21.6338Z" fill="white"/>
<path d="M24.4019 24.7168C24.6899 24.8829 24.9176 25.2749 24.9176 25.6005V27.3678C24.9176 27.6934 24.6832 27.8263 24.3952 27.6602L13.966 21.687C13.6779 21.5209 13.4502 21.1289 13.4502 20.8033V19.0359C13.4502 18.7103 13.6846 18.5774 13.9727 18.7436L24.4019 24.7168Z" fill="#FAAC67"/>
<path d="M24.0603 25.6935L14.4951 20.192C14.388 20.1322 14.2942 20.192 14.2942 20.3382C14.2942 20.4844 14.3813 20.6505 14.4951 20.7169L24.0603 26.2184C24.1674 26.2782 24.2612 26.2184 24.2612 26.0722C24.2612 25.9261 24.1741 25.76 24.0603 25.6935Z" fill="white"/>
<path d="M8.79483 33.7198C9.06946 33.8793 9.2905 34.258 9.2905 34.5703L9.27711 39.4073C9.27711 39.7196 9.04937 39.8459 8.77474 39.6864L4.53473 37.2546C4.26011 37.0951 4.03906 36.7164 4.03906 36.4041L4.05246 31.5671C4.05246 31.2548 4.2735 31.1286 4.54813 31.2814L8.78813 33.7132L8.79483 33.7198Z" fill="#FAAC67"/>
<path d="M8.65409 35.3676L6.63121 35.5404L4.58154 33.0355C4.58154 32.9557 4.63513 32.9225 4.70881 32.9624L8.53352 35.1484C8.6005 35.1882 8.66079 35.2812 8.66079 35.361L8.65409 35.3676Z" fill="white"/>
<path d="M6.63132 35.6998L8.6542 35.5337V37.9722C8.6542 38.0519 8.60061 38.0851 8.52693 38.0453L4.70222 35.8593C4.63524 35.8194 4.57495 35.7264 4.57495 35.6467V33.1949L6.59783 35.6666L6.63132 35.7065V35.6998Z" fill="white"/>
<path d="M24.2279 56.6958C24.6097 56.9151 24.9178 57.44 24.9178 57.8785V59.2871C24.9178 59.7256 24.603 59.8984 24.2212 59.6791L5.34544 48.8688C4.96364 48.6496 4.65552 48.118 4.65552 47.6861V46.2775C4.65552 45.839 4.97034 45.6663 5.35214 45.8855L24.2279 56.6958Z" fill="#FAAC67"/>
<path d="M23.7322 57.7589L5.55983 47.2875C5.45266 47.2277 5.35889 47.2875 5.35889 47.4337C5.35889 47.5798 5.44596 47.746 5.55983 47.8124L23.7322 58.2838C23.8394 58.3436 23.9332 58.2838 23.9332 58.1376C23.9332 57.9915 23.8461 57.8254 23.7322 57.7589Z" fill="white"/>
<path d="M24.2279 51.9916C24.6097 52.2109 24.9178 52.7358 24.9178 53.1743V54.5829C24.9178 55.0214 24.603 55.1942 24.2212 54.9749L5.34544 44.1647C4.96364 43.9454 4.65552 43.4139 4.65552 42.982V41.5734C4.65552 41.1349 4.97034 40.9621 5.35214 41.1814L24.2279 51.9916Z" fill="#FAAC67"/>
<path d="M23.7322 53.0547L5.55983 42.5833C5.45266 42.5235 5.35889 42.5833 5.35889 42.7295C5.35889 42.8757 5.44596 43.0418 5.55983 43.1082L23.7322 53.5796C23.8394 53.6394 23.9332 53.5796 23.9332 53.4335C23.9332 53.2873 23.8461 53.1212 23.7322 53.0547Z" fill="white"/>
<path d="M16.5382 38.1515C16.8129 38.311 17.0339 38.6897 17.0339 39.002L17.0205 43.839C17.0205 44.1513 16.7928 44.2776 16.5181 44.1181L12.2781 41.6863C12.0035 41.5268 11.7825 41.1481 11.7825 40.8358L11.7959 35.9988C11.7959 35.6865 12.0169 35.5603 12.2915 35.7131L16.5315 38.1449L16.5382 38.1515Z" fill="#FAAC67"/>
<path d="M16.1631 42.4969L12.6599 40.4903C12.4455 40.3707 12.2781 40.0717 12.2781 39.8325V37.919C12.2781 37.6798 12.4522 37.5801 12.6599 37.6997L16.1631 39.7063C16.3774 39.8259 16.5449 40.1249 16.5449 40.3641V42.2776C16.5449 42.5168 16.3707 42.6165 16.1631 42.4969ZM12.6532 37.8858C12.5326 37.8127 12.4321 37.8725 12.4321 38.012V39.9256C12.4321 40.0651 12.5326 40.2378 12.6532 40.3109L16.1564 42.3175C16.2769 42.3906 16.3774 42.3308 16.3774 42.1913V40.2777C16.3774 40.1382 16.2769 39.9654 16.1564 39.8923L12.6532 37.8858Z" fill="white"/>
<path d="M14.4081 41.1813C13.8923 40.889 13.4771 40.1714 13.4771 39.5867C13.4771 39.002 13.8923 38.7628 14.4081 39.0618C14.9239 39.3541 15.3392 40.0717 15.3392 40.6564C15.3392 41.2411 14.9239 41.4803 14.4081 41.1813ZM14.4081 39.2412C13.9794 38.9953 13.6378 39.1947 13.6378 39.6797C13.6378 40.1647 13.9861 40.7561 14.4081 41.0019C14.8368 41.2478 15.1784 41.0484 15.1784 40.5634C15.1784 40.0784 14.8301 39.487 14.4081 39.2412Z" fill="white"/>
<path d="M15.5134 39.487L13.303 38.218V37.7595C13.303 37.6001 13.4168 37.5403 13.5575 37.62L15.2656 38.5967C15.4062 38.6764 15.5201 38.8691 15.5201 39.0286V39.487H15.5134ZM13.4637 38.1316L15.3593 39.2146V38.9356C15.3593 38.8758 15.3192 38.8093 15.2656 38.7761L13.5575 37.7994C13.5039 37.7728 13.4637 37.7994 13.4637 37.8526V38.1316Z" fill="white"/>
<path d="M24.4219 42.6564C24.6966 42.8158 24.9176 43.1946 24.9176 43.5068L24.9042 48.3439C24.9042 48.6562 24.6832 48.7824 24.4085 48.6229L20.1685 46.1911C19.8939 46.0317 19.6729 45.6529 19.6729 45.3407L19.6862 40.5036C19.6862 40.1913 19.914 40.0651 20.1886 40.2246L24.4286 42.6564H24.4219Z" fill="#FAAC67"/>
<path d="M22.3121 42.55C21.3408 41.9919 20.5571 42.2843 20.5571 43.2012C20.5571 43.7925 20.8853 44.4968 21.381 45.0749C21.3609 45.2277 21.2604 45.5533 20.8117 45.3074C20.8117 45.3074 21.4212 45.9785 22.004 45.6596C22.1044 45.7327 22.2049 45.7991 22.3054 45.8589C23.2766 46.417 24.0603 46.1247 24.0603 45.2078C24.0603 44.2908 23.2766 43.1015 22.3054 42.55H22.3121Z" fill="white"/>
<path d="M24.1206 32.1385C24.5627 32.391 24.9244 33.0089 24.9177 33.5138L24.9043 37.6532C24.9043 38.1582 24.5426 38.3642 24.1005 38.105L13.5574 32.0853C13.1154 31.8328 12.7536 31.2149 12.7603 30.7099L12.7737 26.5706C12.7737 26.0656 13.1354 25.8596 13.5775 26.1121L24.1206 32.1318V32.1385Z" fill="#FAAC67"/>
<path d="M23.8124 33.1284L13.9592 27.4741C13.8521 27.4143 13.7583 27.4741 13.7583 27.6203C13.7583 27.7665 13.8454 27.9326 13.9592 27.999L23.8124 33.6533C23.9196 33.7131 24.0133 33.6533 24.0133 33.5072C24.0133 33.361 23.9263 33.1949 23.8124 33.1284Z" fill="white"/>
<path d="M23.8124 34.6965L13.9592 29.0422C13.8521 28.9824 13.7583 29.0422 13.7583 29.1884C13.7583 29.3345 13.8454 29.5007 13.9592 29.5671L23.8124 35.2214C23.9196 35.2812 24.0133 35.2214 24.0133 35.0752C24.0133 34.929 23.9263 34.7629 23.8124 34.6965Z" fill="white"/>
<path d="M23.8124 36.2579L13.9592 30.6036C13.8521 30.5438 13.7583 30.6036 13.7583 30.7498C13.7583 30.8959 13.8454 31.0621 13.9592 31.1285L23.8124 36.7828C23.9196 36.8426 24.0133 36.7828 24.0133 36.6366C24.0133 36.4904 23.9263 36.3243 23.8124 36.2579Z" fill="white"/>
<path d="M26.7866 15.3483V18.4446L2.71973 4.66432V1.56807C2.73312 0.717604 3.33597 0.372101 4.08617 0.797336L25.4403 13.0228C26.1905 13.4547 26.7933 14.4912 26.7866 15.3417V15.3483Z" fill="#FAAC67"/>
<path d="M42.6882 27.1087L21.3341 14.8832C20.959 14.6706 20.6174 14.6507 20.3696 14.7902L19.2979 15.4081C19.5457 15.2686 19.8873 15.2885 20.2624 15.5011L41.6165 27.7266C42.3667 28.1585 42.9695 29.195 42.9628 30.0455L42.8289 77.6984C42.8289 78.1236 42.6748 78.416 42.4337 78.5555L43.5054 77.9376C43.7465 77.798 43.8939 77.4991 43.9006 77.0805L44.0346 29.4276C44.0346 28.5771 43.4384 27.5406 42.6882 27.1087Z" fill="#777DBC"/>
<path d="M42.9628 30.0455V33.1417L42.8288 77.6984C42.8288 78.5489 42.2192 78.8877 41.469 78.4625L20.115 66.2303C19.3648 65.8051 18.7619 64.7686 18.7686 63.9181L18.8959 19.3615V16.2652C18.9093 15.4148 19.5121 15.0693 20.2623 15.5011L41.6164 27.7266C42.3666 28.1585 42.9695 29.195 42.9628 30.0455Z" fill="#5253A3"/>
<path d="M42.36 30.8893V33.8327L42.2327 76.1702C42.2327 76.9808 41.6567 77.3064 40.9467 76.8944L20.6576 65.2735C19.9476 64.8682 19.3715 63.8849 19.3782 63.0809L19.4988 20.7435V17.8C19.5122 16.9894 20.0882 16.6639 20.7983 17.0692L41.0873 28.6834C41.7973 29.0887 42.3734 30.0787 42.3667 30.8827L42.36 30.8893Z" fill="#333333"/>
<path d="M27.2554 37.2479C27.6372 37.4672 27.9453 37.9987 27.9453 38.4306L27.9252 44.9486C27.9252 45.3805 27.6104 45.5599 27.2286 45.3406L21.1399 41.8524C20.7581 41.6331 20.45 41.1016 20.45 40.6697L20.47 34.1516C20.47 33.7198 20.7849 33.5404 21.1667 33.7596L27.2554 37.2479Z" fill="#5253A3"/>
<path d="M23.9933 37.3608C22.9216 36.7496 22.0508 37.2346 22.0508 38.4572C22.0508 39.6797 22.9216 41.1614 23.9933 41.7793C25.065 42.3906 25.9358 41.8989 25.9358 40.683C25.9358 39.4671 25.065 37.9788 23.9933 37.3608ZM23.5177 40.3176V38.3309L25.0248 40.1913L23.5177 40.3176Z" fill="white"/>
<path d="M25.5876 26.4576C25.8622 26.617 26.0832 26.9957 26.0832 27.308L26.0698 32.1451C26.0698 32.4574 25.8421 32.5836 25.5675 32.4241L21.3275 29.9923C21.0528 29.8329 20.8318 29.4541 20.8318 29.1419L20.8452 24.3048C20.8452 23.9925 21.0662 23.8663 21.3409 24.0191L25.5809 26.4509L25.5876 26.4576Z" fill="#5253A3"/>
<path d="M23.156 28.4775L22.7608 29.5405L21.0996 28.5904L22.1311 27.1486C22.2785 26.9493 22.6402 27.1486 22.7809 27.5207L23.156 28.4775Z" fill="white"/>
<path d="M23.8125 30.1385L22.7542 29.5405L23.156 28.4774L23.8125 30.1385Z" fill="#E6E6E5"/>
<path d="M25.4736 31.0886L23.8124 30.1385L23.156 28.4708L23.6584 27.1287C23.8124 26.73 24.4153 27.0755 24.5693 27.6469L25.4736 31.082V31.0886Z" fill="white"/>
<path d="M23.1626 26.5905C23.1626 26.823 22.9951 26.916 22.7942 26.8031C22.5865 26.6835 22.4258 26.4044 22.4258 26.1719C22.4258 25.9393 22.5932 25.8463 22.7942 25.9592C23.0018 26.0788 23.1626 26.3579 23.1626 26.5905Z" fill="#E6E6E5"/>
<path d="M40.585 44.5234C40.873 44.6895 41.1007 45.0815 41.1007 45.4071V47.1745C41.1007 47.5001 40.8663 47.6329 40.5783 47.4668L30.1491 41.4936C29.861 41.3275 29.6333 40.9355 29.6333 40.6099V38.8425C29.6333 38.517 29.8677 38.3841 30.1558 38.5502L40.585 44.5234Z" fill="#5253A3"/>
<path d="M40.2368 45.6064L30.6717 40.1049C30.5645 40.0451 30.4707 40.1049 30.4707 40.2511C30.4707 40.3973 30.5578 40.5634 30.6717 40.6298L40.2368 46.1313C40.3439 46.1911 40.4377 46.1313 40.4377 45.9851C40.4377 45.839 40.3506 45.6729 40.2368 45.6064Z" fill="white"/>
<path d="M40.585 50.696C40.873 50.8621 41.1007 51.2541 41.1007 51.5797V53.347C41.1007 53.6726 40.8663 53.8055 40.5783 53.6394L30.1491 47.6662C29.861 47.5001 29.6333 47.108 29.6333 46.7825V45.0151C29.6333 44.6895 29.8677 44.5566 30.1558 44.7227L40.585 50.696Z" fill="#5253A3"/>
<path d="M40.2368 51.6793L30.6717 46.1778C30.5645 46.118 30.4707 46.1778 30.4707 46.324C30.4707 46.4702 30.5578 46.6363 30.6717 46.7027L40.2368 52.2042C40.3439 52.264 40.4377 52.2042 40.4377 52.058C40.4377 51.9118 40.3506 51.7457 40.2368 51.6793Z" fill="white"/>
<path d="M24.9779 56.7755C25.2526 56.935 25.4736 57.3137 25.4736 57.626L25.4602 62.463C25.4602 62.7753 25.2325 62.9015 24.9578 62.7421L20.7178 60.3103C20.4432 60.1508 20.2222 59.7721 20.2222 59.4598L20.2356 54.6227C20.2356 54.3105 20.4566 54.1842 20.7312 54.337L24.9712 56.7688L24.9779 56.7755Z" fill="#5253A3"/>
<path d="M24.8372 58.4233L22.8143 58.596L20.7646 56.0911C20.7646 56.0114 20.8182 55.9782 20.8919 56.0181L24.7166 58.204C24.7836 58.2439 24.8439 58.3369 24.8439 58.4166L24.8372 58.4233Z" fill="white"/>
<path d="M22.8144 58.7555L24.8373 58.5894V61.0279C24.8373 61.1076 24.7837 61.1408 24.71 61.1009L20.8853 58.915C20.8183 58.8751 20.7581 58.7821 20.7581 58.7024V56.2506L22.7809 58.7223L22.8144 58.7622V58.7555Z" fill="white"/>
<path d="M40.4107 57.7123C40.7925 57.9316 41.1006 58.4565 41.1006 58.895V60.3036C41.1006 60.7421 40.7858 60.9149 40.404 60.6956L21.5283 49.8854C21.1465 49.6661 20.8384 49.1346 20.8384 48.7027V47.2941C20.8384 46.8556 21.1532 46.6828 21.535 46.9021L40.4107 57.7123Z" fill="#5253A3"/>
<path d="M39.9151 58.7755L21.7427 48.304C21.6355 48.2442 21.5417 48.304 21.5417 48.4502C21.5417 48.5964 21.6288 48.7625 21.7427 48.8289L39.9151 59.3004C40.0223 59.3601 40.116 59.3003 40.116 59.1542C40.116 59.008 40.029 58.8419 39.9151 58.7755Z" fill="white"/>
<path d="M32.7211 61.2073C32.9957 61.3667 33.2168 61.7454 33.2168 62.0577L33.2034 66.8948C33.2034 67.2071 32.9756 67.3333 32.701 67.1738L28.461 64.742C28.1864 64.5826 27.9653 64.2038 27.9653 63.8916L27.9787 59.0545C27.9787 58.7422 28.1998 58.616 28.4744 58.7688L32.7144 61.2006L32.7211 61.2073Z" fill="#5253A3"/>
<path d="M32.3393 65.5526L28.8361 63.5461C28.6218 63.4265 28.4543 63.1275 28.4543 62.8883V60.9747C28.4543 60.7355 28.6285 60.6359 28.8361 60.7555L32.3393 62.762C32.5537 62.8816 32.7211 63.1806 32.7211 63.4198V65.3334C32.7211 65.5726 32.547 65.6722 32.3393 65.5526ZM28.8361 60.9415C28.7156 60.8684 28.6151 60.9282 28.6151 61.0677V62.9813C28.6151 63.1208 28.7156 63.2936 28.8361 63.3667L32.3393 65.3732C32.4599 65.4463 32.5604 65.3865 32.5604 65.247V63.3334C32.5604 63.1939 32.4599 63.0212 32.3393 62.9481L28.8361 60.9415Z" fill="white"/>
<path d="M30.591 64.237C30.0752 63.9447 29.6599 63.2271 29.6599 62.6424C29.6599 62.0577 30.0752 61.8185 30.591 62.1175C31.1067 62.4165 31.522 63.1275 31.522 63.7121C31.522 64.2968 31.1067 64.536 30.591 64.237ZM30.591 62.2969C30.1623 62.0511 29.8207 62.2504 29.8207 62.7354C29.8207 63.2205 30.169 63.8118 30.591 64.0577C31.0197 64.3035 31.3613 64.1042 31.3613 63.6191C31.3613 63.1341 31.013 62.5428 30.591 62.2969Z" fill="white"/>
<path d="M31.6963 62.5428L29.4858 61.2737V60.8153C29.4858 60.6558 29.5997 60.596 29.7404 60.6757L31.4484 61.6524C31.5891 61.7322 31.703 61.9249 31.703 62.0843V62.5428H31.6963ZM29.6399 61.1873L31.5355 62.2704V61.9913C31.5355 61.9315 31.4953 61.8651 31.4417 61.8318L29.7337 60.8551C29.6801 60.8285 29.6399 60.8551 29.6399 60.9083V61.1873Z" fill="white"/>
<path d="M40.605 65.7121C40.8797 65.8716 41.1007 66.2503 41.1007 66.5626L41.0873 71.3996C41.0873 71.7119 40.8663 71.8381 40.5916 71.6787L36.3516 69.2469C36.077 69.0874 35.856 68.7087 35.856 68.3964L35.8694 63.5593C35.8694 63.2471 36.0971 63.1208 36.3717 63.2803L40.6117 65.7121H40.605Z" fill="#5253A3"/>
<path d="M38.4883 65.6058C37.5171 65.0476 36.7334 65.34 36.7334 66.2569C36.7334 66.8482 37.0616 67.5525 37.5573 68.1306C37.5372 68.2834 37.4367 68.609 36.9879 68.3631C36.9879 68.3631 37.5975 69.0342 38.1802 68.7153C38.2807 68.7884 38.3812 68.8548 38.4816 68.9146C39.4529 69.4727 40.2366 69.1804 40.2366 68.2635C40.2366 67.3466 39.4529 66.1572 38.4816 65.6058H38.4883Z" fill="white"/>
<path d="M40.2968 34.8825C40.7389 35.135 41.1006 35.7529 41.0939 36.2579L41.0805 40.3973C41.0805 40.9023 40.7188 41.1082 40.2767 40.8491L28.2332 33.9523C27.7911 33.6998 27.4294 33.0819 27.4361 32.5769L27.4495 28.4376C27.4495 27.9326 27.8112 27.7266 28.2533 27.9791L40.2968 34.8759V34.8825Z" fill="#5253A3"/>
<path d="M39.9954 35.8725L28.6419 29.3411C28.5347 29.2814 28.4409 29.3411 28.4409 29.4873C28.4409 29.6335 28.528 29.7996 28.6419 29.866L39.9954 36.3974C40.1026 36.4572 40.1964 36.3974 40.1964 36.2512C40.1964 36.105 40.1093 35.9389 39.9954 35.8725Z" fill="white"/>
<path d="M39.9954 37.4405L28.6419 30.9092C28.5347 30.8494 28.4409 30.9092 28.4409 31.0554C28.4409 31.2016 28.528 31.3677 28.6419 31.4341L39.9954 37.9654C40.1026 38.0252 40.1964 37.9654 40.1964 37.8193C40.1964 37.6731 40.1093 37.507 39.9954 37.4405Z" fill="white"/>
<path d="M39.9954 39.0019L28.6419 32.4706C28.5347 32.4108 28.4409 32.4706 28.4409 32.6168C28.4409 32.763 28.528 32.9291 28.6419 32.9955L39.9954 39.5268C40.1026 39.5866 40.1964 39.5268 40.1964 39.3807C40.1964 39.2345 40.1093 39.0684 39.9954 39.0019Z" fill="white"/>
<path d="M42.9628 30.0455V33.1417L18.9026 19.3615V16.2652C18.916 15.4148 19.5188 15.0693 20.269 15.5011L41.6231 27.7266C42.3733 28.1585 42.9762 29.195 42.9695 30.0455H42.9628Z" fill="#5253A3"/>
<path d="M25.5231 93.3725C25.5402 90.2351 21.1127 87.6679 15.6341 87.6385C10.1554 87.6091 5.7002 90.1286 5.68309 93.266C5.66597 96.4035 10.0934 98.9707 15.5721 99.0001C21.0507 99.0295 25.5059 96.5099 25.5231 93.3725Z" fill="#F3F3F3"/>
<path d="M9.72596 59.0147C9.72596 59.0147 9.67237 58.9947 9.64558 59.0014C9.28387 59.0346 8.93556 59.1343 8.60735 59.2871C8.35281 59.4067 8.11168 59.5662 7.83705 59.6592C7.70308 59.7057 7.54232 59.7854 7.40166 59.7455C7.35477 59.7323 7.30788 59.699 7.261 59.6725C6.50409 59.1476 5.88115 58.4433 5.35199 57.6858C5.03717 57.2407 4.75584 56.7822 4.47452 56.3171C4.33385 56.0845 4.19319 55.852 4.05253 55.6194C3.89177 55.347 3.70422 55.1411 3.95205 54.8553C4.68216 54.0049 5.39218 53.1345 6.0754 52.2441C6.34333 51.8986 6.60457 51.5465 6.75193 51.1412C6.8591 50.8488 6.89929 50.5432 6.93948 50.2376C7.01316 49.6861 7.08684 49.1413 7.10694 48.5831C7.12033 48.1247 6.69834 47.9652 6.28305 47.932C5.17114 47.839 4.07932 48.4303 3.63053 49.4403C3.48317 49.7658 3.376 50.1047 3.20185 50.417C2.94061 50.8887 2.55211 51.2807 2.19711 51.6927C1.37322 52.6627 0.756978 53.779 0.160832 54.8952C0.0268664 55.1477 -0.0803059 55.4533 0.0469612 55.7324C0.194323 56.058 0.482349 56.337 0.723486 56.6028C1.48709 57.4267 2.27748 58.2307 3.09467 59.0014C3.71761 59.5927 4.36065 60.1708 5.11085 60.596C5.54624 60.8485 6.00842 61.0412 6.4773 61.2272C7.30119 61.5594 8.17866 61.8717 9.06283 61.7654C9.06283 61.5063 9.02264 61.2472 9.1834 61.0345C9.31067 60.8618 9.51161 60.7355 9.59869 60.5296C9.63888 60.4233 9.65228 60.3037 9.65898 60.1907C9.68577 59.8253 9.71926 59.4598 9.74605 59.0944C9.74605 59.0612 9.74605 59.028 9.72596 59.008V59.0147Z" fill="#FAB68C"/>
<path d="M6.66478 46.5433C6.51072 46.6031 6.36336 46.6762 6.216 46.7493C5.439 47.148 4.78927 47.7459 4.18642 48.3639C3.83811 48.7293 3.4965 49.1014 3.18168 49.5C2.77309 50.0249 2.40468 50.5897 2.10996 51.1877C1.92241 51.5664 2.41138 52.0581 2.66591 52.3039C3.16159 52.7823 3.77113 53.181 4.44765 53.3205C4.86295 53.4069 5.28494 53.3936 5.70693 53.3471C6.02175 53.3139 6.34996 53.2673 6.63129 53.1212C6.64469 53.1145 6.66478 53.1012 6.67148 53.088C6.67148 53.068 6.67148 53.0547 6.66478 53.0348C6.5844 52.8753 6.47053 52.6826 6.48393 52.4966C6.49732 52.3305 6.64469 52.1445 6.71837 51.9916C6.90592 51.6063 7.06668 51.2143 7.20734 50.8156C7.40159 50.2575 7.56235 49.6794 7.79679 49.1412C7.90396 48.8954 8.03123 48.6496 8.09151 48.3838C8.1451 48.1446 8.1317 47.8921 8.11831 47.6463C8.10491 47.3871 8.09821 47.0948 7.98434 46.8556C7.93745 46.7559 7.87047 46.6895 7.86377 46.5832C7.85707 46.4569 7.87717 46.3241 7.90396 46.1978C7.82358 46.2111 7.7432 46.2244 7.66952 46.2443C7.32791 46.3174 6.99969 46.4171 6.67818 46.55L6.66478 46.5433Z" fill="#F3F3F3"/>
<path d="M7.87054 92.9338C7.85044 93.4454 7.95092 94.1364 8.43989 94.3889C8.75471 94.5483 9.12981 94.555 9.46473 94.4354C9.99389 94.2427 10.3556 93.7577 10.7709 93.3789C11.0656 93.1132 11.4005 92.8939 11.7823 92.7876C12.0771 92.7079 12.3852 92.6946 12.6866 92.6547C13.6779 92.5218 14.6023 92.0833 15.4664 91.585C15.9487 91.3126 16.0357 90.6548 15.6137 90.276C15.3324 90.0236 14.9171 89.997 14.5353 89.9837C13.1086 89.9305 11.6685 89.8907 10.2752 90.203C9.99389 90.2694 9.70586 90.3491 9.45803 90.4887C9.26378 90.595 9.08962 90.7345 8.93556 90.894C8.85518 90.9737 8.82839 91.0468 8.70782 91.0069C8.68103 90.9936 8.51357 90.874 8.55376 90.8342C8.37291 91.0335 8.27244 91.286 8.18536 91.5318C8.0313 91.9637 7.90403 92.4089 7.87724 92.8673C7.87724 92.8939 7.87724 92.9205 7.87724 92.9404L7.87054 92.9338Z" fill="#5253A3"/>
<path d="M12.5459 61.4531C12.432 61.0943 12.3181 60.7355 12.0904 60.4365C11.876 60.1508 11.5746 59.9449 11.2732 59.7522C10.59 59.307 9.49146 58.915 8.89531 59.7256C8.69437 59.9914 8.61399 60.3502 8.48672 60.6558C8.25228 61.2006 7.99105 61.7388 7.76331 62.2903C7.50207 62.9414 7.27433 63.6059 7.11357 64.2902C6.76526 65.7852 6.75187 67.4064 7.38151 68.8084C7.54226 69.1738 7.74991 69.5193 7.85708 69.9047C7.95756 70.2635 7.95756 70.6422 7.96426 71.0143C7.96426 71.0475 7.96426 71.0741 7.96426 71.1073C7.97765 72.6355 7.97095 74.157 7.94416 75.6852C7.93076 76.4493 7.91067 77.2134 7.88388 77.9708C7.87718 78.303 7.89727 78.6087 7.84369 78.9475C7.7901 79.2997 7.70302 79.6452 7.62934 79.9907C7.50877 80.5887 7.3949 81.1867 7.32122 81.798C7.24754 82.3959 7.21405 83.0006 7.23414 83.6052C7.28103 85.1068 7.68293 86.5686 7.97765 88.0369C8.12501 88.7745 8.25228 89.5186 8.29917 90.2761C8.31926 90.6415 8.29917 90.9937 8.29917 91.3591C8.29917 91.678 8.5604 91.8441 8.88192 91.9039C9.14985 91.9504 9.42448 91.9039 9.68571 91.8375C10.0474 91.7445 10.389 91.5983 10.7172 91.4189C11.0053 91.2594 11.2933 91.0402 11.3871 90.7212C11.4407 90.5352 11.4206 90.3425 11.4005 90.1498C11.1325 87.4988 10.9718 84.8078 11.3804 82.17C11.434 81.8312 11.4741 81.4857 11.5478 81.1535C11.6215 80.8345 11.7622 80.6153 11.8961 80.3229C12.1708 79.705 12.3784 79.0605 12.5392 78.4094C12.8674 77.0805 13.0148 75.7184 13.1755 74.363C13.2425 73.8049 13.3162 73.2467 13.4032 72.6953C13.6042 71.4129 13.9056 70.1439 13.9726 68.8482C14.0932 66.33 13.3229 63.865 12.5593 61.4664L12.5459 61.4531Z" fill="#333333"/>
<path d="M14.9373 94.2161C14.7966 94.6812 14.7029 95.2194 14.9775 95.6181C15.1918 95.9304 15.587 96.0699 15.9688 96.1031C16.143 96.1164 16.3238 96.1031 16.498 96.0632C16.7324 95.9968 16.9401 95.8573 17.1477 95.7377C17.3889 95.5981 17.6434 95.4852 17.918 95.432C18.3467 95.3457 18.7888 95.4055 19.2242 95.4121C19.6328 95.4121 20.0414 95.3656 20.45 95.2991C21.0193 95.2061 21.5887 95.0865 22.1045 94.8274C22.6202 94.5683 23.069 94.1563 23.2766 93.6248C23.3503 93.4388 23.3905 93.2328 23.3637 93.0334C23.3101 92.6348 22.9752 92.3159 22.6068 92.1564C22.2317 91.9969 21.8231 91.9637 21.4145 91.9305C20.5237 91.8508 19.6395 91.7445 18.7419 91.7312C17.851 91.7245 16.9468 91.8175 16.1095 92.1298C15.9219 92.1963 15.7411 92.2826 15.5937 92.4155C15.3593 92.6414 15.4129 92.9271 15.299 93.1996C15.1583 93.5318 15.0378 93.8773 14.9373 94.2228V94.2161Z" fill="#8BC1E9"/>
<path d="M18.8489 74.4759C19.0833 72.6886 19.0699 71.0342 18.7149 69.2668C18.1456 66.4695 17.4824 63.659 17.2145 60.8086C17.2748 61.4398 16.6117 62.576 16.1026 62.9414C15.9083 63.0876 15.5064 63.1075 15.272 63.1275C14.6759 63.174 14.0663 63.0677 13.5104 62.855C12.7401 62.5627 12.0769 62.0909 11.3602 61.6989C10.811 61.3999 10.2349 60.8285 9.65216 61.3269C8.56034 62.2504 8.05797 64.0909 8.04458 65.4463C8.00439 68.8748 11.1124 70.9544 12.1841 74.0108C12.4989 74.9078 12.6932 75.8446 12.8874 76.7748C13.0415 77.5323 13.2022 78.2897 13.3563 79.0472C13.5104 79.798 13.6577 80.5554 13.6376 81.3262C13.6175 82.1036 13.4903 82.8743 13.4635 83.6517C13.4434 84.2829 13.5506 84.9274 13.6644 85.5453C13.7649 86.13 13.8989 86.7081 14.0462 87.2861C14.5084 89.0734 15.1112 90.8275 15.3792 92.6481C15.3993 92.7809 15.406 93.0068 15.4864 93.1198C15.5667 93.2261 15.7275 93.2328 15.8615 93.2527C16.2031 93.2992 16.5581 93.2527 16.8863 93.153C17.3351 93.0135 17.7437 92.7544 18.0987 92.4487C18.4068 92.183 18.6546 91.8707 18.5676 91.4587C18.4604 90.9338 18.3398 90.4156 18.246 89.884C18.0719 88.8608 17.9714 87.8243 17.9379 86.7878C17.8977 85.5121 17.9915 84.2364 17.958 82.9607C17.9379 82.2099 17.9111 81.4192 17.9446 80.6485C17.9781 79.8445 18.159 79.087 18.2862 78.303C18.4872 77.0273 18.6881 75.7516 18.8556 74.4759H18.8489Z" fill="#434343"/>
<path d="M17.4424 55.141C17.4692 54.6759 17.6903 54.244 17.8443 53.7989C18.0118 53.3138 18.1056 52.8022 18.119 52.284C18.119 52.0581 18.1123 51.8322 18.0118 51.6262C17.8912 51.3737 17.6501 51.1943 17.4223 51.0348C17.2214 50.8953 17.0271 50.7558 16.8262 50.6163C15.8281 49.9319 14.81 49.2741 13.7852 48.6296C13.2694 48.3107 12.7536 47.9918 12.2379 47.6795C12.0101 47.5399 11.8293 47.4204 11.5747 47.3473C11.3135 47.2742 11.0724 47.1479 10.8178 47.035C10.2887 46.8024 9.73942 46.6961 9.19016 46.5367C8.92893 46.4569 8.6677 46.3905 8.39307 46.3573C7.78352 46.2775 7.14049 46.3905 6.60463 46.6828C6.08886 46.9685 5.68697 47.4137 5.43913 47.9453C5.25828 48.3373 5.1645 48.7691 5.11761 49.201C5.09752 49.3937 5.09082 49.5864 5.09082 49.7791C5.09082 50.6229 5.32526 51.4734 5.70706 52.2175C6.20273 53.1876 6.77878 54.0979 7.39502 54.9816C7.96438 55.7988 8.15863 56.9682 8.21891 57.9383C8.30599 59.2871 8.07155 60.6292 7.8773 61.9581C7.84381 62.1973 7.80362 62.4365 7.84381 62.669C7.94428 63.2736 8.50024 63.6922 9.0294 64.0178C10.1815 64.7155 11.4475 65.2669 12.7871 65.4729C14.1268 65.6789 15.5401 65.5194 16.7257 64.8749C16.9735 64.742 17.2214 64.5759 17.3687 64.3301C17.5496 64.0311 17.5429 63.659 17.5362 63.3069C17.5161 62.0843 17.4491 60.8684 17.4692 59.6459C17.4826 58.8552 17.6166 58.0712 17.6702 57.2805C17.697 56.9217 17.7438 56.5363 17.6367 56.1908C17.5295 55.8387 17.4089 55.5197 17.429 55.141H17.4424Z" fill="#D9D9D8"/>
<path d="M8.10503 46.5366C8.08494 46.6297 8.10503 46.7027 8.10503 46.7958C8.09833 46.922 8.02465 47.035 8.01125 47.1612C7.99786 47.2874 8.03135 47.4137 8.08494 47.5266C8.2189 47.8057 8.46004 48.0183 8.73467 48.1645C9.0093 48.3107 9.31742 48.3838 9.61884 48.4303C10.0006 48.4901 10.3891 48.5034 10.7709 48.5233C11.1126 48.5366 11.4542 48.5499 11.7958 48.5233C12.0168 48.5034 12.2446 48.4502 12.4053 48.2974C12.6063 48.1113 12.5527 47.9319 12.546 47.6994C12.5326 47.3605 12.5326 47.0217 12.5192 46.6828C12.4857 46.045 12.4991 45.4138 12.5594 44.7759C12.5594 44.7294 12.5661 44.6829 12.5393 44.6497C12.5192 44.6231 12.4857 44.6098 12.4589 44.5965C12.0302 44.4238 11.6149 44.2244 11.2197 43.9852C10.9451 43.8191 10.6772 43.6331 10.3824 43.5002C10.1212 43.3872 9.83988 43.3208 9.55856 43.2809C9.25713 43.2344 8.93562 43.2278 8.64759 43.3407C8.40645 43.4338 8.2055 43.6264 8.11173 43.8656C8.03135 44.0783 8.09833 44.2975 8.11843 44.5234C8.19211 45.1945 8.239 45.8789 8.09833 46.5433L8.10503 46.5366Z" fill="#FAB68C"/>
<path d="M14.4617 39.9921C14.5354 40.1249 14.5823 40.2578 14.589 40.3841C14.5957 40.59 14.4416 40.7694 14.4081 40.9754C14.3679 41.2412 14.5555 41.487 14.7564 41.6664C14.9574 41.8458 15.1985 41.992 15.3459 42.2179C15.366 42.2511 15.3861 42.2843 15.3861 42.3176C15.3861 42.4172 15.2722 42.4637 15.1851 42.5036C14.9574 42.6166 14.8167 42.8491 14.7497 43.0949C14.6828 43.3408 14.6828 43.5933 14.6694 43.8391C14.656 44.0717 14.6359 44.2976 14.6091 44.5235C14.5823 44.7294 14.589 44.9155 14.589 45.1281C14.589 45.1547 14.589 45.1813 14.5823 45.2078C14.5689 45.2411 14.5354 45.2743 14.5086 45.2942C14.234 45.5201 13.8924 45.653 13.5373 45.7194C13.189 45.7859 12.8273 45.7925 12.4723 45.7859C12.3852 45.7859 12.3049 45.7859 12.2245 45.746C12.0838 45.6862 12.1106 45.5733 12.0436 45.467C11.9767 45.3607 11.8293 45.2676 11.7288 45.2012C11.4944 45.055 11.2264 44.9553 10.9518 44.9421C10.6102 44.9221 10.2686 45.0085 9.92698 44.9952C9.49829 44.9819 9.0897 44.8158 8.6878 44.6497C8.22562 44.457 7.76344 44.2643 7.38164 43.9454C6.7587 43.4139 6.44388 42.5966 6.35681 41.786C6.20944 40.4704 6.64483 39.0552 7.66297 38.1981C8.07156 37.8526 8.56054 37.6068 9.0696 37.4406C9.74613 37.2147 10.7442 36.9888 11.4073 37.3078C12.1106 37.64 12.7604 38.0054 13.3297 38.5502C13.611 38.8227 13.8656 39.115 14.0933 39.4339C14.2005 39.5868 14.3612 39.7861 14.4684 39.9921H14.4617Z" fill="#FFE5CC"/>
<path d="M8.35284 37.2878C9.2906 36.8958 10.3422 36.7297 11.3403 36.9091C12.5861 37.135 13.6311 38.1649 13.6512 39.4605C13.6646 40.012 13.4904 40.5568 13.2024 41.0219C12.9612 41.4073 12.6263 41.9189 12.2043 42.1116C12.0101 42.1979 11.7957 42.2378 11.6082 42.3375C11.1795 42.57 11.1058 43.0484 11.3135 43.467C11.4273 43.6929 11.5948 43.8856 11.7556 44.0849C12.1441 44.5766 12.4589 45.1281 12.6799 45.7128C12.7 45.7593 12.7134 45.8058 12.7067 45.8589C12.7 45.9254 12.6464 45.9785 12.5928 46.0251C12.1642 46.3905 11.6216 46.6098 11.0656 46.7161C10.5097 46.8157 9.94033 46.8091 9.37767 46.7559C8.26576 46.6563 7.16055 46.4104 6.16251 45.9121C5.82759 45.746 5.33192 45.4736 5.21805 45.0882C5.11758 44.7427 5.13767 44.2843 5.15776 43.9255C5.19795 43.0218 5.30513 42.1116 5.53957 41.2345C5.64004 40.8558 5.68023 40.4571 5.8142 40.0784C6.26298 38.8027 7.08017 37.8326 8.34614 37.3011L8.35284 37.2878Z" fill="#743318"/>
<path d="M32.9756 38.6366C32.9488 38.4904 32.9019 38.3442 32.7814 38.2579C32.6608 38.1715 32.4598 38.1914 32.4063 38.3243C32.3795 38.0652 32.346 37.7994 32.3192 37.5403C32.3125 37.4539 32.2991 37.3675 32.2388 37.3011C32.2053 37.2612 32.1517 37.2346 32.1182 37.1948C32.0312 37.0885 32.0847 36.9224 32.0379 36.7895C31.9977 36.6632 31.857 36.5769 31.7297 36.5968C31.5958 36.6167 31.4886 36.7297 31.4819 36.8626C31.301 36.836 31.1135 36.9489 31.0063 37.0951C30.8991 37.2479 30.8523 37.4273 30.8054 37.6067C30.5307 38.6499 30.2561 39.6997 29.9815 40.7428C29.9681 40.9687 29.8609 41.2079 29.8274 41.4338C29.7203 42.0783 29.8743 42.8225 29.4523 43.3873C29.1375 43.8125 25.152 48.1047 24.9176 48.3306C24.5894 48.6429 24.2478 49.0017 23.8191 49.1811C23.4239 49.3472 22.9885 49.407 22.5732 49.5133C21.8364 49.6993 21.0862 49.8588 20.336 49.9452C19.6193 50.0316 18.9025 50.0515 18.1791 49.9784C17.65 49.9253 17.1208 49.8189 16.5916 49.7857C15.962 49.7525 15.2989 49.8322 14.763 50.1711C14.2807 50.4767 13.919 51.0415 13.8855 51.6063C13.832 52.5232 13.8655 53.4667 14.6424 54.1045C15.1649 54.5364 15.8012 54.6028 16.4577 54.6161C17.2079 54.6294 17.9447 54.4899 18.6748 54.3171C20.9656 53.7789 23.176 52.955 25.3664 52.0913C26.4716 51.6528 27.2285 50.6229 27.8715 49.6794C28.3136 49.0349 28.7356 48.3838 29.1308 47.7193C29.727 46.7293 30.2762 45.7194 30.8924 44.7427C31.3546 44.0052 32.0111 43.467 32.2723 42.6032C32.4331 42.085 32.4732 41.5401 32.5938 41.0086C32.7747 40.2179 33.1297 39.4273 32.9823 38.6299L32.9756 38.6366Z" fill="#FFE5CC"/>
<path d="M15.4931 49.6794C15.1113 49.7458 14.7295 49.8455 14.3946 50.0448C13.9257 50.3305 13.5908 50.8222 13.4435 51.3538C13.2157 52.1909 13.4904 53.0946 14.0664 53.7324C14.7697 54.5098 15.7008 54.6028 16.6921 54.6958C17.9514 54.8088 19.2241 54.7423 20.4633 54.5032C20.5503 54.4832 20.6441 54.4699 20.7245 54.4301C20.8384 54.3769 20.9321 54.2972 21.0125 54.2108C21.5149 53.6925 21.7493 52.955 21.7828 52.2375C21.8096 51.6727 21.7225 51.1013 21.602 50.5498C21.5015 50.098 21.4881 49.6993 20.9522 49.7193C19.78 49.7591 18.6279 49.6395 17.4557 49.593C16.7993 49.5664 16.1362 49.5797 15.4864 49.686L15.4931 49.6794Z" fill="#F3F3F3"/>
</g>
<defs>
<clipPath id="clip0_88_5">
<rect width="65" height="99" fill="white"/>
</clipPath>
</defs>
</svg>
