<svg width="86" height="99" viewBox="0 0 86 99" fill="none" xmlns="http://www.w3.org/2000/svg">
<path d="M33.9693 67.1678L4.15511 49.9029C3.51829 49.5331 3.59587 48.8877 4.3329 48.4595L6.02678 47.48C6.76381 47.0519 7.87906 47.0065 8.51588 47.3762L38.3301 64.6411C38.9669 65.0109 38.8894 65.6563 38.1523 66.0845L36.4584 67.064C35.7214 67.4921 34.6062 67.5375 33.9693 67.1678Z" fill="#F3F3F3"/>
<path d="M82.4098 78.5264C83.0337 78.8897 83.0369 79.4767 82.4163 79.8368L50.0192 98.7267C49.3985 99.0899 48.3867 99.0899 47.7628 98.7267L0.469946 71.3357C-0.153945 70.9724 -0.157178 70.3886 0.463481 70.0253L32.8606 51.1354C33.4812 50.7722 34.4898 50.7722 35.1169 51.1354L82.4066 78.5297L82.4098 78.5264Z" fill="#F3F3F3"/>
<path d="M75.3401 71.4622H74.0762V73.2331H75.3401V71.4622Z" fill="#1F2225"/>
<path d="M79.801 76.3046L49.4695 93.9912C48.8877 94.3285 47.9405 94.3285 47.3554 93.9912L3.08501 68.3452C2.79085 68.1765 2.64538 67.9527 2.64538 67.7289L2.63892 70.2329C2.63892 70.4567 2.78438 70.6805 3.07855 70.8491L47.3522 96.4952C47.9373 96.8325 48.8844 96.8325 49.4663 96.4952L79.7978 78.8086C80.0855 78.6399 80.2309 78.4194 80.2309 78.1988L80.2374 75.6949C80.2374 75.9154 80.0919 76.136 79.8042 76.3046H79.801Z" fill="#C0BFBF"/>
<path d="M79.7944 75.0786C80.3795 75.4159 80.3827 75.9673 79.8009 76.3079L49.4694 93.9945C48.8876 94.3318 47.9404 94.3318 47.3553 93.9945L3.0849 68.3452C2.4998 68.0079 2.4998 67.4565 3.07844 67.1192L33.4099 49.4326C33.9918 49.0953 34.9357 49.0921 35.5208 49.4326L79.7944 75.0786Z" fill="#F3F3F3"/>
<path d="M60.2698 85.0101L18.2816 60.6874C17.9357 60.4863 17.9777 60.136 18.3785 59.9025L33.9338 50.8922C34.3346 50.6586 34.9424 50.6359 35.2883 50.837L77.2765 75.1597C77.6223 75.3608 77.5803 75.7111 77.1795 75.9446L61.6242 84.955C61.2234 85.1885 60.6157 85.2112 60.2698 85.0101Z" fill="#D9D9D8"/>
<path d="M18.3783 60.2397L33.9336 51.2294C34.3344 50.9959 34.9421 50.9732 35.288 51.1743L77.2762 75.497C77.3635 75.5456 77.4249 75.6072 77.4637 75.6721C77.5607 75.4872 77.5025 75.2926 77.2762 75.1629L35.288 50.8402C34.9421 50.6391 34.3344 50.6651 33.9336 50.8954L18.3783 59.9057C18.0777 60.0808 17.9775 60.3208 18.0938 60.5154C18.1456 60.4181 18.2393 60.3208 18.3783 60.2397Z" fill="#C0BFBF"/>
<path d="M35.424 86.0318L16.2741 74.9392C15.9443 74.7478 15.9864 74.417 16.3646 74.1964L27.5558 67.7127C27.934 67.4922 28.5094 67.4695 28.8392 67.6609L47.9891 78.7535C48.3188 78.9448 48.2768 79.2757 47.8985 79.4962L36.7073 85.9799C36.3291 86.2004 35.7537 86.2231 35.424 86.0318Z" fill="#D9D9D8"/>
<path d="M16.3644 74.5498L27.5556 68.0662C27.9339 67.8456 28.5093 67.8229 28.839 68.0143L47.9889 79.1069C48.0632 79.1491 48.115 79.201 48.1538 79.2561C48.2604 79.0745 48.2119 78.8798 47.9889 78.7534L28.839 67.6607C28.5093 67.4694 27.9371 67.4953 27.5556 67.7126L16.3644 74.1963C16.0702 74.365 15.9829 74.6017 16.109 74.7899C16.1607 74.7055 16.2416 74.6212 16.3644 74.5498Z" fill="#C0BFBF"/>
<path d="M37.2213 52.8286L35.8507 53.6297C35.757 53.6848 35.5986 53.6848 35.5016 53.6297L33.2161 52.3064C33.1676 52.2772 33.145 52.2415 33.145 52.2058V52.4523C33.145 52.488 33.1676 52.5269 33.2161 52.5529L35.5016 53.8762C35.5986 53.9313 35.757 53.9313 35.8507 53.8762L37.2213 53.0751C37.2698 53.0459 37.2924 53.0102 37.2924 52.9745V52.728C37.2924 52.7637 37.2698 52.8026 37.2213 52.8286Z" fill="#1F2225"/>
<path d="M37.2212 52.6242C37.3182 52.6793 37.3182 52.7734 37.2212 52.8285L35.8506 53.6297C35.7569 53.6848 35.5985 53.6848 35.5015 53.6297L33.216 52.3063C33.1191 52.2512 33.1191 52.1604 33.216 52.1052L34.5867 51.3041C34.6836 51.249 34.842 51.249 34.9358 51.3041L37.2212 52.6274V52.6242Z" fill="#4E4E4E"/>
<path d="M35.049 53.9572L32.9575 55.1768C32.8443 55.2416 32.6601 55.2416 32.5469 55.1768L30.4393 53.9572C30.3811 53.9248 30.3552 53.8794 30.3552 53.8372V54.0837C30.3552 54.1259 30.3843 54.1713 30.4393 54.2037L32.5437 55.4233C32.6568 55.4881 32.8411 55.4881 32.9542 55.4233L35.0457 54.2037C35.1007 54.1713 35.1298 54.1291 35.1298 54.087V53.8405C35.1298 53.8826 35.1039 53.9248 35.0457 53.9572H35.049Z" fill="#1F2225"/>
<path d="M35.0456 53.7205C35.1588 53.7853 35.1588 53.8924 35.0456 53.9572L32.9541 55.1768C32.841 55.2416 32.6567 55.2416 32.5436 55.1768L30.4359 53.9572C30.3228 53.8924 30.3228 53.7853 30.4359 53.7205L32.5274 52.5009C32.6406 52.4361 32.8248 52.4361 32.938 52.5009L35.0456 53.7205Z" fill="#4E4E4E"/>
<path d="M40.0272 54.4503L38.6501 55.2547C38.5564 55.3098 38.4012 55.3098 38.3075 55.2547L36.1158 53.9832C36.0673 53.9573 36.0447 53.9216 36.0447 53.8827V54.1292C36.0447 54.1649 36.0673 54.2006 36.1158 54.2297L38.3075 55.5012C38.4012 55.5563 38.5532 55.5563 38.6501 55.5012L40.0272 54.6968C40.0757 54.6676 40.0984 54.6319 40.0984 54.5963V54.3497C40.0984 54.3854 40.0757 54.4211 40.0272 54.4503Z" fill="#1F2225"/>
<path d="M40.0276 54.2492C40.1214 54.3043 40.1214 54.3919 40.0276 54.447L38.6506 55.2514C38.5568 55.3066 38.4017 55.3066 38.3079 55.2514L36.1162 53.98C36.0225 53.9248 36.0225 53.8373 36.1162 53.7821L37.4933 52.9778C37.587 52.9226 37.7422 52.9226 37.8359 52.9778L40.0276 54.2492Z" fill="#4E4E4E"/>
<path d="M37.9616 55.6439L35.8701 56.8634C35.7569 56.9283 35.5727 56.9283 35.4595 56.8634L33.3551 55.6439C33.2969 55.6114 33.2678 55.566 33.2678 55.5239V55.7704C33.2678 55.8125 33.2969 55.8579 33.3551 55.8904L35.4595 57.1099C35.5759 57.178 35.7569 57.178 35.8701 57.1099L37.9616 55.8904C38.0165 55.8579 38.0456 55.8158 38.0456 55.7736V55.5271C38.0456 55.5693 38.0197 55.6114 37.9616 55.6439Z" fill="#1F2225"/>
<path d="M37.9582 55.4071C38.0746 55.4752 38.0746 55.579 37.9615 55.6471L35.87 56.8667C35.7568 56.9315 35.5726 56.9315 35.4594 56.8667L33.355 55.6471C33.2386 55.579 33.2386 55.4752 33.3518 55.4071L35.4433 54.1876C35.5564 54.1227 35.7407 54.1227 35.8538 54.1876L37.9582 55.4071Z" fill="#4E4E4E"/>
<path d="M42.8849 56.1045L41.5078 56.9088C41.4141 56.964 41.2589 56.964 41.1652 56.9088L38.9735 55.6406C38.925 55.6115 38.9023 55.5758 38.9023 55.5401V55.7866C38.9023 55.8223 38.925 55.858 38.9735 55.8872L41.1652 57.1553C41.2621 57.2105 41.4141 57.2105 41.5078 57.1553L42.8849 56.351C42.9334 56.3218 42.956 56.2861 42.956 56.2504V56.0039C42.956 56.0396 42.9334 56.0753 42.8849 56.1045Z" fill="#1F2225"/>
<path d="M42.8848 55.9066C42.9818 55.9617 42.9818 56.0525 42.8848 56.1077L41.5077 56.9121C41.414 56.9672 41.2588 56.9672 41.1651 56.9121L38.9734 55.6439C38.8764 55.5887 38.8764 55.4979 38.9734 55.4428L40.3505 54.6384C40.4442 54.5833 40.5994 54.5833 40.6931 54.6384L42.8848 55.9066Z" fill="#4E4E4E"/>
<path d="M45.7423 57.7619L44.3652 58.5663C44.2715 58.6214 44.1163 58.6214 44.0226 58.5663L41.8309 57.2948C41.7824 57.2689 41.7598 57.2332 41.7598 57.1943V57.4408C41.7598 57.4765 41.7824 57.5121 41.8309 57.5413L44.0226 58.8128C44.1163 58.8679 44.2715 58.8679 44.3652 58.8128L45.7423 58.0084C45.7908 57.9824 45.8134 57.9435 45.8134 57.9078V57.6613C45.8134 57.697 45.7908 57.7327 45.7423 57.7619Z" fill="#1F2225"/>
<path d="M45.7425 57.5608C45.8362 57.6159 45.8395 57.7067 45.7425 57.7619L44.3654 58.5662C44.2717 58.6214 44.1165 58.6214 44.0228 58.5662L41.8311 57.2948C41.7373 57.2397 41.7373 57.1521 41.8311 57.097L43.2081 56.2926C43.3019 56.2374 43.457 56.2374 43.5508 56.2926L45.7425 57.564V57.5608Z" fill="#4E4E4E"/>
<path d="M48.6 59.416L47.2229 60.2204C47.1292 60.2755 46.974 60.2755 46.8802 60.2204L44.6885 58.9489C44.6401 58.9197 44.6174 58.8841 44.6174 58.8484V59.0949C44.6174 59.1306 44.6401 59.1662 44.6885 59.1954L46.8802 60.4669C46.974 60.522 47.1259 60.522 47.2229 60.4669L48.6 59.6625C48.6485 59.6333 48.6711 59.5976 48.6711 59.562V59.3154C48.6711 59.3511 48.6485 59.3868 48.6 59.416Z" fill="#1F2225"/>
<path d="M48.5999 59.2149C48.6936 59.27 48.6936 59.3576 48.5999 59.4127L47.2228 60.2171C47.1291 60.2723 46.9739 60.2723 46.8802 60.2171L44.6885 58.9457C44.5915 58.8905 44.5915 58.7997 44.6885 58.7446L46.0655 57.9402C46.1593 57.8851 46.3144 57.8851 46.4082 57.9402L48.5999 59.2117V59.2149Z" fill="#4E4E4E"/>
<path d="M51.4577 61.0702L50.0806 61.8745C49.9868 61.9297 49.8317 61.9297 49.7379 61.8745L47.5462 60.6063C47.4977 60.5772 47.4751 60.5415 47.4751 60.5058V60.7523C47.4751 60.788 47.4977 60.8237 47.5462 60.8529L49.7379 62.121C49.8349 62.1762 49.9868 62.1762 50.0806 62.121L51.4577 61.3167C51.5061 61.2875 51.5288 61.2518 51.5288 61.2161V60.9696C51.5288 61.0053 51.5061 61.041 51.4577 61.0702Z" fill="#1F2225"/>
<path d="M51.4544 60.8691C51.5514 60.9242 51.5514 61.015 51.4544 61.0701L50.0773 61.8745C49.9836 61.9297 49.8284 61.9297 49.7346 61.8745L47.5429 60.6063C47.446 60.5512 47.446 60.4604 47.5429 60.4052L48.92 59.6009C49.0138 59.5457 49.1689 59.5457 49.2627 59.6009L51.4544 60.8691Z" fill="#4E4E4E"/>
<path d="M54.3119 62.7243L52.9348 63.5287C52.8411 63.5839 52.6859 63.5839 52.5922 63.5287L50.4005 62.2573C50.352 62.2313 50.3293 62.1957 50.3293 62.1567V62.4032C50.3293 62.4389 50.352 62.4746 50.4005 62.5038L52.5922 63.7752C52.6859 63.8304 52.8378 63.8304 52.9348 63.7752L54.3119 62.9708C54.3604 62.9417 54.383 62.906 54.383 62.8703V62.6238C54.383 62.6595 54.3604 62.6952 54.3119 62.7243Z" fill="#1F2225"/>
<path d="M54.3123 62.5265C54.4061 62.5816 54.4061 62.6692 54.3123 62.7243L52.9352 63.5287C52.8415 63.5838 52.6863 63.5838 52.5926 63.5287L50.4009 62.2573C50.3071 62.2021 50.3071 62.1146 50.4009 62.0594L51.778 61.255C51.8717 61.1999 52.0269 61.1999 52.1206 61.255L54.3123 62.5265Z" fill="#4E4E4E"/>
<path d="M57.1696 64.3817L55.7925 65.1861C55.6987 65.2413 55.5436 65.2413 55.4498 65.1861L53.2581 63.9179C53.2096 63.8887 53.187 63.8531 53.187 63.8174V64.0639C53.187 64.0996 53.2096 64.1352 53.2581 64.1644L55.4498 65.4326C55.5468 65.4878 55.6987 65.4878 55.7925 65.4326L57.1696 64.6282C57.2181 64.5991 57.2407 64.5634 57.2407 64.5277V64.2812C57.2407 64.3169 57.2181 64.3526 57.1696 64.3817Z" fill="#1F2225"/>
<path d="M57.1695 64.1806C57.2665 64.2358 57.2665 64.3266 57.1695 64.3817L55.7924 65.1861C55.6986 65.2412 55.5435 65.2412 55.4497 65.1861L53.258 63.9179C53.1611 63.8628 53.1611 63.772 53.258 63.7168L54.6351 62.9124C54.7289 62.8573 54.884 62.8573 54.9778 62.9124L57.1695 64.1806Z" fill="#4E4E4E"/>
<path d="M60.0272 66.0359L58.6502 66.8403C58.5564 66.8954 58.4012 66.8954 58.3075 66.8403L56.1158 65.5689C56.0673 65.5429 56.0447 65.5072 56.0447 65.4683V65.7148C56.0447 65.7505 56.0673 65.7862 56.1158 65.8154L58.3075 67.0868C58.4012 67.1419 58.5532 67.1419 58.6502 67.0868L60.0272 66.2824C60.0757 66.2532 60.0984 66.2176 60.0984 66.1819V65.9354C60.0984 65.9711 60.0757 66.0067 60.0272 66.0359Z" fill="#1F2225"/>
<path d="M60.0274 65.8348C60.1212 65.89 60.1212 65.9775 60.0274 66.0327L58.6503 66.837C58.5566 66.8922 58.4014 66.8922 58.3077 66.837L56.116 65.5656C56.0222 65.5105 56.0222 65.4229 56.116 65.3678L57.4931 64.5634C57.5868 64.5082 57.742 64.5082 57.8357 64.5634L60.0274 65.8348Z" fill="#4E4E4E"/>
<path d="M62.8849 67.69L61.5078 68.4944C61.4141 68.5495 61.2589 68.5495 61.1652 68.4944L58.9735 67.2262C58.925 67.197 58.9023 67.1613 58.9023 67.1257V67.3722C58.9023 67.4079 58.925 67.4435 58.9735 67.4727L61.1652 68.7409C61.2621 68.796 61.4141 68.796 61.5078 68.7409L62.8849 67.9365C62.9334 67.9073 62.956 67.8717 62.956 67.836V67.5895C62.956 67.6252 62.9334 67.6608 62.8849 67.69Z" fill="#1F2225"/>
<path d="M62.8816 67.4889C62.9786 67.5441 62.9786 67.6349 62.8816 67.69L61.5045 68.4944C61.4108 68.5495 61.2556 68.5495 61.1619 68.4944L58.9702 67.2262C58.8732 67.1711 58.8732 67.0803 58.9702 67.0251L60.3473 66.2207C60.441 66.1656 60.5962 66.1656 60.6899 66.2207L62.8816 67.4889Z" fill="#4E4E4E"/>
<path d="M65.7426 69.3475L64.3655 70.1518C64.2717 70.207 64.1166 70.207 64.0228 70.1518L61.8311 68.8804C61.7826 68.8544 61.76 68.8188 61.76 68.7798V69.0263C61.76 69.062 61.7826 69.0977 61.8311 69.1269L64.0228 70.3983C64.1166 70.4535 64.2717 70.4535 64.3655 70.3983L65.7426 69.594C65.7911 69.568 65.8137 69.5291 65.8137 69.4934V69.2469C65.8137 69.2826 65.7911 69.3183 65.7426 69.3475Z" fill="#1F2225"/>
<path d="M65.7393 69.1463C65.8331 69.2015 65.8363 69.2923 65.7393 69.3474L64.3622 70.1518C64.2685 70.2069 64.1133 70.2069 64.0196 70.1518L61.8279 68.8804C61.7341 68.8252 61.7341 68.7377 61.8279 68.6825L63.205 67.8781C63.2987 67.823 63.4539 67.823 63.5476 67.8781L65.7393 69.1496V69.1463Z" fill="#4E4E4E"/>
<path d="M68.5968 71.0016L67.2197 71.806C67.126 71.8611 66.9708 71.8611 66.8771 71.806L64.6854 70.5346C64.6369 70.5086 64.6143 70.4697 64.6143 70.434V70.6805C64.6143 70.7162 64.6369 70.7551 64.6854 70.7811L66.8771 72.0525C66.9708 72.1076 67.1228 72.1076 67.2197 72.0525L68.5968 71.2481C68.6453 71.2189 68.6679 71.1833 68.6679 71.1476V70.9011C68.6679 70.9368 68.6453 70.9724 68.5968 71.0016Z" fill="#1F2225"/>
<path d="M68.6006 70.8005C68.6944 70.8557 68.6944 70.9432 68.6006 70.9984L67.2236 71.8028C67.1298 71.8579 66.9746 71.8579 66.8809 71.8028L64.6892 70.5313C64.5955 70.4762 64.5922 70.3854 64.6892 70.3302L66.0663 69.5259C66.16 69.4707 66.3152 69.4707 66.4089 69.5259L68.6006 70.7973V70.8005Z" fill="#4E4E4E"/>
<path d="M67.5881 72.3833V72.1368C67.5881 72.1854 67.6205 72.2341 67.6851 72.273V72.5195C67.6205 72.4806 67.5881 72.4319 67.5881 72.3833Z" fill="#1F2225"/>
<path d="M73.7657 73.8753V74.1218C73.7657 74.1705 73.7334 74.2191 73.6687 74.258V74.0115C73.7334 73.9726 73.7657 73.924 73.7657 73.8753Z" fill="#1F2225"/>
<path d="M73.6686 74.0115L73.6653 74.2548L72.4143 74.9878V74.7413L73.6686 74.0115Z" fill="#1F2225"/>
<path d="M71.9456 74.7413V74.9878L67.6851 72.5195V72.273L71.9456 74.7413Z" fill="#1F2225"/>
<path d="M72.4143 74.7413V74.9878C72.285 75.0624 72.0749 75.0624 71.9456 74.9878V74.7413C72.0749 74.8159 72.285 74.8159 72.4143 74.7413Z" fill="#1F2225"/>
<path d="M73.6686 73.7391C73.7979 73.8137 73.7979 73.9369 73.6686 74.0115L72.4143 74.7413C72.285 74.8159 72.0749 74.8159 71.9489 74.7413L67.6883 72.273C67.559 72.1984 67.559 72.0752 67.6883 72.0006L68.9425 71.2708C69.0718 71.1962 69.282 71.193 69.4113 71.2708L73.6718 73.7391H73.6686Z" fill="#4E4E4E"/>
<path d="M40.8126 57.2947L38.7211 58.5143C38.608 58.5792 38.4237 58.5792 38.3106 58.5143L36.2062 57.2947C36.148 57.2623 36.1189 57.2169 36.1189 57.1747V57.4212C36.1189 57.4667 36.148 57.5088 36.2029 57.5413L38.3074 58.7608C38.4237 58.8289 38.6048 58.8289 38.7179 58.7608L40.8094 57.5413C40.8643 57.5088 40.8934 57.4667 40.8934 57.4245V57.178C40.8934 57.2202 40.8676 57.2623 40.8094 57.2947H40.8126Z" fill="#1F2225"/>
<path d="M40.8096 57.058C40.926 57.1261 40.926 57.2299 40.8128 57.298L38.7213 58.5175C38.6082 58.5824 38.4239 58.5824 38.3108 58.5175L36.2064 57.298C36.0932 57.2331 36.09 57.1261 36.2031 57.058L38.2946 55.8384C38.4078 55.7736 38.592 55.7736 38.7052 55.8384L40.8096 57.058Z" fill="#4E4E4E"/>
<path d="M33.7009 56.4223L31.7128 57.5802C31.5706 57.6613 31.3379 57.6613 31.1956 57.5802L27.7529 55.5855C27.6818 55.5433 27.6462 55.4882 27.6462 55.433V55.6796C27.6462 55.7347 27.6818 55.7898 27.7529 55.832L31.1956 57.8267C31.3379 57.9078 31.5706 57.9078 31.7128 57.8267L33.7009 56.6688C33.772 56.6266 33.8076 56.5747 33.8076 56.5196V56.2731C33.8076 56.3282 33.772 56.3801 33.7041 56.4223H33.7009Z" fill="#1F2225"/>
<path d="M33.6977 56.1207C33.84 56.2018 33.84 56.338 33.6977 56.4191L31.7097 57.577C31.5674 57.6581 31.3347 57.6581 31.1925 57.577L27.7497 55.5823C27.6075 55.4979 27.6075 55.3649 27.7497 55.2839L29.7378 54.1259C29.88 54.0449 30.1095 54.0416 30.255 54.1259L33.6977 56.1207Z" fill="#4E4E4E"/>
<path d="M36.7042 58.1024L34.6127 59.3219C34.4996 59.3868 34.3153 59.39 34.199 59.3219L32.0945 58.1024C32.0364 58.0699 32.0105 58.0245 32.0105 57.9824V58.2289C32.0105 58.2743 32.0396 58.3164 32.0945 58.3489L34.199 59.5684C34.3153 59.6365 34.4996 59.6333 34.6127 59.5684L36.7042 58.3489C36.7624 58.3164 36.7883 58.2743 36.7883 58.2289V57.9824C36.7883 58.0245 36.7592 58.0699 36.7042 58.1024Z" fill="#1F2225"/>
<path d="M36.7009 57.8624C36.8173 57.9305 36.8173 58.0343 36.7009 58.1024L34.6094 59.3219C34.4963 59.3868 34.312 59.39 34.1956 59.3219L32.0912 58.1024C31.9781 58.0375 31.9781 57.9272 32.0912 57.8624L34.1827 56.6428C34.2958 56.5747 34.4833 56.578 34.5965 56.6428L36.7009 57.8624Z" fill="#4E4E4E"/>
<path d="M31.5577 58.5143L29.6149 59.6463C29.4598 59.7371 29.2076 59.7371 29.0524 59.6463L24.9277 57.2559C24.8501 57.2105 24.8113 57.1521 24.8113 57.0905V57.337C24.8113 57.3953 24.8501 57.457 24.9277 57.5024L29.0524 59.8928C29.2076 59.9836 29.4598 59.9836 29.6149 59.8928L31.5577 58.7608C31.6353 58.7154 31.6741 58.657 31.6741 58.5987V58.3522C31.6741 58.4105 31.6353 58.4689 31.5609 58.5143H31.5577Z" fill="#1F2225"/>
<path d="M31.5577 58.19C31.7129 58.2808 31.7129 58.4268 31.5577 58.5176L29.6149 59.6495C29.4597 59.7404 29.2076 59.7404 29.0524 59.6495L24.9276 57.2591C24.7693 57.1683 24.7725 57.0223 24.9276 56.9315L26.8704 55.7996C27.0256 55.7087 27.2745 55.7087 27.4329 55.7996L31.5577 58.19Z" fill="#4E4E4E"/>
<path d="M43.6605 58.9457L41.569 60.1652C41.4559 60.2301 41.2716 60.2301 41.1585 60.1652L39.0541 58.9457C38.9959 58.9133 38.9668 58.8678 38.9668 58.8257V59.0722C38.9668 59.1176 38.9959 59.1598 39.0508 59.1922L41.1553 60.4117C41.2716 60.4798 41.4527 60.4798 41.5658 60.4117L43.6573 59.1922C43.7122 59.1598 43.7413 59.1176 43.7413 59.0754V58.8289C43.7413 58.8711 43.7155 58.9133 43.6573 58.9457H43.6605Z" fill="#1F2225"/>
<path d="M43.6575 58.7089C43.7739 58.777 43.7739 58.8808 43.6607 58.9489L41.5692 60.1685C41.4561 60.2333 41.2718 60.2333 41.1587 60.1685L39.0543 58.9489C38.9411 58.8841 38.9379 58.777 39.051 58.7089L41.1425 57.4894C41.2557 57.4245 41.4399 57.4245 41.5531 57.4894L43.6575 58.7089Z" fill="#4E4E4E"/>
<path d="M39.5812 59.7695L37.4897 60.989C37.3766 61.0539 37.1923 61.0571 37.0759 60.989L34.9715 59.7695C34.9133 59.7371 34.8875 59.6916 34.8875 59.6495V59.896C34.8875 59.9414 34.9165 59.9836 34.9715 60.016L37.0759 61.2355C37.1923 61.3036 37.3766 61.3004 37.4897 61.2355L39.5812 60.016C39.6394 59.9836 39.6652 59.9414 39.6652 59.896V59.6495C39.6652 59.6916 39.6361 59.7371 39.5812 59.7695Z" fill="#1F2225"/>
<path d="M39.5778 59.5295C39.6942 59.5976 39.6942 59.7014 39.5778 59.7695L37.4863 60.989C37.3732 61.0539 37.189 61.0572 37.0726 60.989L34.9682 59.7695C34.855 59.7046 34.855 59.5944 34.9682 59.5295L37.0596 58.3099C37.1728 58.2418 37.3603 58.2451 37.4734 58.3099L39.5778 59.5295Z" fill="#4E4E4E"/>
<path d="M34.5897 60.1393L32.4982 61.3588C32.3851 61.4269 32.2008 61.4269 32.0845 61.3588L29.98 60.1393C29.9219 60.1069 29.896 60.0647 29.896 60.0193V60.2658C29.896 60.308 29.9251 60.3534 29.98 60.3858L32.0845 61.6053C32.2008 61.6734 32.3819 61.6734 32.4982 61.6053L34.5897 60.3858C34.6447 60.3534 34.6738 60.3112 34.6738 60.2658V60.0193C34.6738 60.0615 34.6447 60.1069 34.5897 60.1393Z" fill="#1F2225"/>
<path d="M34.5898 59.8993C34.7062 59.9674 34.7029 60.0744 34.5898 60.1393L32.4983 61.3589C32.3852 61.427 32.2009 61.427 32.0845 61.3589L29.9801 60.1393C29.867 60.0744 29.867 59.9674 29.9801 59.8993L32.0716 58.6798C32.1848 58.6149 32.369 58.6116 32.4822 58.6798L34.5866 59.8993H34.5898Z" fill="#4E4E4E"/>
<path d="M27.4718 59.2895L25.4417 60.4733C25.3124 60.5479 25.1023 60.5479 24.9697 60.4733L22.138 58.8321C22.0733 58.7932 22.041 58.7446 22.041 58.6959V58.9424C22.041 58.9911 22.0733 59.043 22.138 59.0786L24.9697 60.7198C25.0991 60.7944 25.3092 60.7944 25.4385 60.7198L27.4685 59.536C27.5332 59.4971 27.5655 59.4484 27.5655 59.3998V59.1532C27.5655 59.2019 27.5332 59.2538 27.4685 59.2895H27.4718Z" fill="#1F2225"/>
<path d="M27.4718 59.0138C27.6011 59.0884 27.6011 59.2116 27.4718 59.2895L25.4417 60.4733C25.3124 60.5479 25.1023 60.5479 24.9697 60.4733L22.138 58.8322C22.0087 58.7576 22.0055 58.6343 22.138 58.5597L24.1681 57.3758C24.2974 57.3012 24.5107 57.298 24.64 57.3758L27.4718 59.017V59.0138Z" fill="#4E4E4E"/>
<path d="M30.3551 60.9566L28.2636 62.1762C28.1505 62.2443 27.9662 62.2443 27.8531 62.1762L25.7454 60.9566C25.6872 60.9242 25.6614 60.882 25.6614 60.8366V61.0831C25.6614 61.1253 25.6905 61.1707 25.7454 61.2031L27.8531 62.4227C27.9662 62.4875 28.1505 62.4875 28.2636 62.4227L30.3551 61.2031C30.4133 61.1707 30.4392 61.1253 30.4392 61.0831V60.8366C30.4392 60.8788 30.4101 60.9242 30.3551 60.9566Z" fill="#1F2225"/>
<path d="M30.3552 60.7166C30.4683 60.7815 30.4683 60.8885 30.3552 60.9566L28.2637 62.1762C28.1506 62.2443 27.9663 62.2443 27.8532 62.1762L25.7455 60.9566C25.6324 60.8918 25.6324 60.7847 25.7455 60.7166L27.837 59.4971C27.9501 59.429 28.1344 59.429 28.2475 59.4971L30.352 60.7166H30.3552Z" fill="#4E4E4E"/>
<path d="M23.9481 60.4279L21.8566 61.6475C21.7435 61.7123 21.5592 61.7123 21.4461 61.6475L19.3384 60.4279C19.2803 60.3955 19.2544 60.3501 19.2544 60.3079V60.5544C19.2544 60.5966 19.2835 60.642 19.3384 60.6744L21.4429 61.894C21.556 61.9588 21.7403 61.9588 21.8534 61.894L23.9449 60.6744C23.9998 60.642 24.0289 60.5998 24.0289 60.5577V60.3112C24.0289 60.3533 24.0031 60.3955 23.9449 60.4279H23.9481Z" fill="#1F2225"/>
<path d="M23.9482 60.1912C24.0613 60.256 24.0613 60.3631 23.9482 60.4279L21.8567 61.6475C21.7436 61.7123 21.5593 61.7123 21.4462 61.6475L19.3385 60.4279C19.2254 60.3631 19.2254 60.256 19.3385 60.1912L21.43 58.9716C21.5431 58.9068 21.7274 58.9068 21.8405 58.9716L23.9482 60.1912Z" fill="#4E4E4E"/>
<path d="M26.9222 62.1502L24.8308 63.3698C24.7176 63.4346 24.5334 63.4346 24.4202 63.3698L22.3158 62.1502C22.2576 62.1178 22.2285 62.0724 22.2285 62.0302V62.2767C22.2285 62.3221 22.2576 62.3643 22.3126 62.3967L24.417 63.6163C24.5334 63.6844 24.7144 63.6844 24.8275 63.6163L26.919 62.3967C26.974 62.3643 27.0031 62.3221 27.0031 62.28V62.0335C27.0031 62.0756 26.9772 62.1178 26.919 62.1502H26.9222Z" fill="#1F2225"/>
<path d="M26.9192 61.9102C27.0356 61.9783 27.0356 62.0821 26.9224 62.1502L24.8309 63.3698C24.7178 63.4346 24.5335 63.4346 24.4204 63.3698L22.316 62.1502C22.2028 62.0854 22.1996 61.9783 22.3127 61.9102L24.4042 60.6907C24.5174 60.6258 24.7016 60.6258 24.8148 60.6907L26.9192 61.9102Z" fill="#4E4E4E"/>
<path d="M46.5115 60.5999L44.4201 61.8194C44.3069 61.8843 44.1227 61.8843 44.0095 61.8194L41.9051 60.5999C41.8469 60.5674 41.821 60.522 41.821 60.4799V60.7264C41.821 60.7685 41.8501 60.8139 41.9051 60.8464L44.0095 62.0659C44.1259 62.134 44.3069 62.134 44.4201 62.0659L46.5115 60.8464C46.5665 60.8139 46.5956 60.7718 46.5956 60.7296V60.4831C46.5956 60.5253 46.5697 60.5674 46.5115 60.5999Z" fill="#1F2225"/>
<path d="M46.5084 60.3599C46.6248 60.428 46.6248 60.5318 46.5116 60.5999L44.4201 61.8194C44.307 61.8843 44.1227 61.8843 44.0096 61.8194L41.9052 60.5999C41.792 60.535 41.792 60.428 41.9052 60.3631L43.9967 59.1436C44.1098 59.0787 44.2941 59.0787 44.4072 59.1436L46.5116 60.3631L46.5084 60.3599Z" fill="#4E4E4E"/>
<path d="M42.4581 61.4334L40.3666 62.653C40.2535 62.7178 40.0692 62.7211 39.9529 62.653L37.8485 61.4334C37.7903 61.401 37.7644 61.3556 37.7644 61.3134V61.5599C37.7644 61.6053 37.7935 61.6475 37.8485 61.6799L39.9529 62.8995C40.0692 62.9676 40.2535 62.9643 40.3666 62.8995L42.4581 61.6799C42.5163 61.6475 42.5422 61.6053 42.5422 61.5599V61.3134C42.5422 61.3556 42.5131 61.401 42.4581 61.4334Z" fill="#1F2225"/>
<path d="M42.4548 61.1934C42.5712 61.2615 42.5712 61.3653 42.4548 61.4334L40.3633 62.653C40.2502 62.7179 40.0659 62.7211 39.9495 62.653L37.8451 61.4334C37.732 61.3686 37.732 61.2583 37.8451 61.1934L39.9366 59.9739C40.0497 59.9058 40.2372 59.909 40.3504 59.9739L42.4548 61.1934Z" fill="#4E4E4E"/>
<path d="M37.454 61.7966L35.3625 63.0162C35.2494 63.0843 35.0651 63.0843 34.9487 63.0162L32.8443 61.7966C32.7861 61.7642 32.7603 61.722 32.7603 61.6766V61.9231C32.7603 61.9653 32.7893 62.0107 32.8443 62.0431L34.9487 63.2627C35.0651 63.3308 35.2461 63.3308 35.3625 63.2627L37.454 62.0431C37.5089 62.0107 37.538 61.9685 37.538 61.9231V61.6766C37.538 61.7188 37.5089 61.7642 37.454 61.7966Z" fill="#1F2225"/>
<path d="M37.4541 61.5566C37.5704 61.6248 37.5672 61.7318 37.4541 61.7967L35.3626 63.0162C35.2494 63.0843 35.0652 63.0843 34.9488 63.0162L32.8444 61.7967C32.7312 61.7318 32.7312 61.6248 32.8444 61.5566L34.9359 60.3371C35.049 60.2722 35.2333 60.269 35.3464 60.3371L37.4508 61.5566H37.4541Z" fill="#4E4E4E"/>
<path d="M33.2062 62.6076L31.1147 63.8271C31.0016 63.8952 30.8173 63.8952 30.7042 63.8271L28.5965 62.6076C28.5383 62.5751 28.5125 62.533 28.5125 62.4875V62.7341C28.5125 62.7762 28.5415 62.8216 28.5965 62.8541L30.7042 64.0736C30.8173 64.1385 31.0016 64.1385 31.1147 64.0736L33.2062 62.8541C33.2644 62.8216 33.2902 62.7762 33.2902 62.7341V62.4875C33.2902 62.5297 33.2611 62.5751 33.2062 62.6076Z" fill="#1F2225"/>
<path d="M33.2063 62.3675C33.3194 62.4324 33.3194 62.5395 33.2063 62.6076L31.1148 63.8271C31.0016 63.8952 30.8174 63.8952 30.7042 63.8271L28.5966 62.6076C28.4834 62.5427 28.4834 62.4357 28.5966 62.3675L30.6881 61.148C30.8012 61.0799 30.9855 61.0799 31.0986 61.148L33.203 62.3675H33.2063Z" fill="#4E4E4E"/>
<path d="M29.7992 63.8173L27.7077 65.0369C27.5946 65.1017 27.4103 65.1017 27.2972 65.0369L25.1927 63.8173C25.1346 63.7849 25.1055 63.7395 25.1055 63.6973V63.9438C25.1055 63.9892 25.1346 64.0314 25.1895 64.0638L27.2939 65.2834C27.4103 65.3515 27.5913 65.3515 27.7045 65.2834L29.796 64.0638C29.8509 64.0314 29.88 63.9892 29.88 63.9471V63.7006C29.88 63.7427 29.8542 63.7849 29.796 63.8173H29.7992Z" fill="#1F2225"/>
<path d="M29.7962 63.5773C29.9125 63.6454 29.9125 63.7492 29.7994 63.8173L27.7079 65.0369C27.5948 65.1018 27.4105 65.1018 27.2974 65.0369L25.1929 63.8173C25.0798 63.7525 25.0766 63.6454 25.1897 63.5773L27.2812 62.3578C27.3943 62.2929 27.5786 62.2929 27.6917 62.3578L29.7962 63.5773Z" fill="#4E4E4E"/>
<path d="M49.3631 62.2507L47.2716 63.4703C47.1585 63.5352 46.9742 63.5352 46.8611 63.4703L44.7567 62.2507C44.6985 62.2183 44.6726 62.1729 44.6726 62.1307V62.3772C44.6726 62.4194 44.7017 62.4648 44.7567 62.4972L46.8643 63.7168C46.9774 63.7817 47.1617 63.7817 47.2748 63.7168L49.3663 62.4972C49.4213 62.4648 49.4504 62.4226 49.4504 62.3805V62.134C49.4504 62.1761 49.4245 62.2183 49.3663 62.2507H49.3631Z" fill="#1F2225"/>
<path d="M49.3598 62.0107C49.4729 62.0756 49.4729 62.1826 49.3598 62.2475L47.2683 63.4671C47.1551 63.5319 46.9709 63.5319 46.8577 63.4671L44.7533 62.2475C44.6402 62.1826 44.6402 62.0756 44.7533 62.0107L46.8448 60.7912C46.9579 60.7263 47.1422 60.7263 47.2553 60.7912L49.363 62.0107H49.3598Z" fill="#4E4E4E"/>
<path d="M45.3351 63.1005L43.2436 64.3201C43.1305 64.3849 42.9462 64.3882 42.8298 64.3201L40.7254 63.1005C40.6672 63.0681 40.6414 63.0227 40.6414 62.9805V63.227C40.6414 63.2724 40.6705 63.3146 40.7254 63.347L42.8298 64.5666C42.9462 64.6347 43.1305 64.6314 43.2436 64.5666L45.3351 63.347C45.3933 63.3146 45.4191 63.2724 45.4191 63.227V62.9805C45.4191 63.0227 45.39 63.0681 45.3351 63.1005Z" fill="#1F2225"/>
<path d="M45.3317 62.8605C45.4481 62.9287 45.4481 63.0324 45.3317 63.1006L43.2403 64.3201C43.1271 64.385 42.9429 64.3882 42.8265 64.3201L40.7221 63.1006C40.6089 63.0357 40.6089 62.9254 40.7221 62.8605L42.8136 61.641C42.9267 61.5729 43.1142 61.5761 43.2273 61.641L45.3317 62.8605Z" fill="#4E4E4E"/>
<path d="M40.318 63.4573L38.2265 64.6769C38.1134 64.745 37.9291 64.745 37.8127 64.6769L35.7083 63.4573C35.6501 63.4249 35.6243 63.3827 35.6243 63.3373V63.5838C35.6243 63.626 35.6534 63.6714 35.7083 63.7038L37.8127 64.9234C37.9291 64.9915 38.1101 64.9915 38.2265 64.9234L40.318 63.7038C40.373 63.6714 40.402 63.6293 40.402 63.5838V63.3373C40.402 63.3795 40.373 63.4249 40.318 63.4573Z" fill="#1F2225"/>
<path d="M40.3181 63.2174C40.4344 63.2855 40.4312 63.3925 40.3181 63.4574L38.2266 64.6769C38.1134 64.745 37.9292 64.745 37.8128 64.6769L35.7084 63.4574C35.5952 63.3925 35.5952 63.2855 35.7084 63.2174L37.7999 61.9978C37.913 61.9329 38.0973 61.9297 38.2104 61.9978L40.3148 63.2174H40.3181Z" fill="#4E4E4E"/>
<path d="M36.0543 64.2585L33.9628 65.478C33.8497 65.5461 33.6654 65.5461 33.5523 65.478L31.4479 64.2585C31.3897 64.2261 31.3606 64.1807 31.3606 64.1385V64.385C31.3606 64.4272 31.3897 64.4726 31.4479 64.505L33.5523 65.7245C33.6654 65.7894 33.8497 65.7894 33.9628 65.7245L36.0543 64.505C36.1125 64.4726 36.1384 64.4272 36.1384 64.385V64.1385C36.1384 64.1807 36.1093 64.2261 36.0543 64.2585Z" fill="#1F2225"/>
<path d="M36.0575 64.0185C36.1706 64.0834 36.1706 64.1904 36.0575 64.2585L33.966 65.478C33.8529 65.5462 33.6686 65.5462 33.5555 65.478L31.451 64.2585C31.3347 64.1904 31.3347 64.0866 31.451 64.0185L33.5425 62.7989C33.6557 62.7308 33.8399 62.7308 33.9563 62.7989L36.0607 64.0185H36.0575Z" fill="#4E4E4E"/>
<path d="M33.313 65.8835L31.2732 67.0738C31.1439 67.1484 30.9403 67.1484 30.811 67.0738L28.0923 65.4975C28.0277 65.4618 27.9954 65.4099 27.9954 65.3613V65.6078C27.9954 65.6564 28.0277 65.7051 28.0923 65.744L30.811 67.3203C30.9403 67.3949 31.1471 67.3949 31.2732 67.3203L33.313 66.13C33.3776 66.0943 33.4067 66.0456 33.4067 65.997V65.7505C33.4067 65.7991 33.3744 65.8478 33.313 65.8835Z" fill="#1F2225"/>
<path d="M33.313 65.6143C33.4423 65.6889 33.4423 65.8089 33.313 65.8835L31.2732 67.0738C31.1439 67.1484 30.9403 67.1484 30.811 67.0738L28.0924 65.4975C27.9663 65.4229 27.963 65.3029 28.0924 65.2283L30.1321 64.0379C30.2614 63.9633 30.4683 63.9633 30.5944 64.0379L33.313 65.6143Z" fill="#4E4E4E"/>
<path d="M43.182 65.1147L41.0905 66.3342C40.9773 66.4023 40.7931 66.4023 40.6799 66.3342L38.5755 65.1147C38.5173 65.0823 38.4915 65.0401 38.4915 64.9947V65.2412C38.4915 65.2834 38.5205 65.3288 38.5755 65.3612L40.6799 66.5807C40.7931 66.6456 40.9773 66.6456 41.0905 66.5807L43.182 65.3612C43.2369 65.3288 43.266 65.2834 43.266 65.2412V64.9947C43.266 65.0369 43.2369 65.0823 43.182 65.1147Z" fill="#1F2225"/>
<path d="M43.182 64.8747C43.2952 64.9396 43.2952 65.0466 43.182 65.1147L41.0905 66.3343C40.9774 66.4024 40.7931 66.4024 40.68 66.3343L38.5756 65.1147C38.4624 65.0498 38.4624 64.9428 38.5756 64.8747L40.6671 63.6552C40.7802 63.5903 40.9645 63.587 41.0776 63.6552L43.1853 64.8747H43.182Z" fill="#4E4E4E"/>
<path d="M38.9086 65.9094L36.8171 67.1289C36.704 67.197 36.5165 67.1938 36.4034 67.1289L34.2989 65.9094C34.2408 65.8769 34.2117 65.8315 34.2117 65.7894V66.0359C34.2117 66.078 34.2408 66.1234 34.2989 66.1559L36.4034 67.3754C36.5165 67.4403 36.7008 67.4435 36.8171 67.3754L38.9086 66.1559C38.9636 66.1234 38.9927 66.0813 38.9927 66.0359V65.7894C38.9927 65.8315 38.9668 65.8769 38.9086 65.9094Z" fill="#1F2225"/>
<path d="M38.9055 65.6694C39.0186 65.7342 39.0218 65.8413 38.9055 65.9094L36.814 67.1289C36.7008 67.197 36.5133 67.1938 36.4002 67.1289L34.2958 65.9094C34.1794 65.8413 34.1794 65.7375 34.2958 65.6694L36.3873 64.4498C36.5004 64.3817 36.6847 64.3817 36.801 64.4498L38.9055 65.6694Z" fill="#4E4E4E"/>
<path d="M52.2108 63.9017L50.1193 65.1212C50.0061 65.1861 49.8219 65.1861 49.7087 65.1212L47.6043 63.9017C47.5461 63.8692 47.5203 63.8238 47.5203 63.7817V64.0282C47.5203 64.0703 47.5494 64.1158 47.6043 64.1482L49.712 65.3677C49.8251 65.4326 50.0094 65.4326 50.1225 65.3677L52.214 64.1482C52.2689 64.1158 52.298 64.0736 52.298 64.0314V63.7849C52.298 63.8271 52.2722 63.8692 52.214 63.9017H52.2108Z" fill="#1F2225"/>
<path d="M52.2108 63.6617C52.324 63.7266 52.324 63.8336 52.2108 63.8985L50.1193 65.118C50.0062 65.1829 49.822 65.1829 49.7088 65.118L47.6044 63.8985C47.4912 63.8336 47.4912 63.7266 47.6044 63.6617L49.6959 62.4421C49.809 62.3773 49.9933 62.3773 50.1064 62.4421L52.2141 63.6617H52.2108Z" fill="#4E4E4E"/>
<path d="M48.2123 64.7677L46.1208 65.9872C46.0077 66.0521 45.8234 66.0553 45.707 65.9872L43.6026 64.7677C43.5444 64.7352 43.5186 64.6898 43.5186 64.6476V64.8941C43.5186 64.9396 43.5477 64.9817 43.6026 65.0142L45.707 66.2337C45.8234 66.3018 46.0077 66.2986 46.1208 66.2337L48.2123 65.0142C48.2705 64.9817 48.2963 64.9396 48.2963 64.8941V64.6476C48.2963 64.6898 48.2672 64.7352 48.2123 64.7677Z" fill="#1F2225"/>
<path d="M48.2089 64.5277C48.3253 64.5958 48.3253 64.6996 48.2089 64.7677L46.1175 65.9872C46.0043 66.0521 45.8201 66.0553 45.7037 65.9872L43.5993 64.7677C43.4861 64.7028 43.4861 64.5925 43.5993 64.5277L45.6908 63.3081C45.8039 63.24 45.9914 63.2432 46.1045 63.3081L48.2089 64.5277Z" fill="#4E4E4E"/>
<path d="M46.0462 66.7754L43.9547 67.9949C43.8416 68.0631 43.6573 68.0631 43.5442 67.9949L41.4398 66.7754C41.3816 66.743 41.3557 66.7008 41.3557 66.6554V66.9019C41.3557 66.9441 41.3848 66.9895 41.4398 67.0219L43.5474 68.2414C43.6606 68.3063 43.8448 68.3063 43.958 68.2414L46.0494 67.0219C46.1044 66.9895 46.1335 66.9441 46.1335 66.9019V66.6554C46.1335 66.6976 46.1044 66.743 46.0494 66.7754H46.0462Z" fill="#1F2225"/>
<path d="M46.0463 66.5354C46.1594 66.6003 46.1594 66.7073 46.0463 66.7754L43.9548 67.995C43.8417 68.0631 43.6574 68.0631 43.5443 67.995L41.4398 66.7754C41.3267 66.7106 41.3267 66.6035 41.4398 66.5354L43.5313 65.3159C43.6445 65.251 43.8287 65.2478 43.9419 65.3159L46.0463 66.5354Z" fill="#4E4E4E"/>
<path d="M41.7565 67.5603L39.665 68.7799C39.5519 68.848 39.3644 68.8447 39.2513 68.7799L37.1469 67.5603C37.0887 67.5279 37.0596 67.4825 37.0596 67.4403V67.6868C37.0596 67.729 37.0887 67.7744 37.1469 67.8068L39.2513 69.0264C39.3644 69.0912 39.5487 69.0945 39.665 69.0264L41.7565 67.8068C41.8115 67.7744 41.8406 67.7322 41.8406 67.6868V67.4403C41.8406 67.4825 41.8147 67.5279 41.7565 67.5603Z" fill="#1F2225"/>
<path d="M41.7565 67.3203C41.8697 67.3852 41.8729 67.4922 41.7565 67.5603L39.665 68.7799C39.5519 68.848 39.3644 68.8447 39.2513 68.7799L37.1469 67.5603C37.0305 67.4922 37.0305 67.3884 37.1469 67.3203L39.2383 66.1008C39.3515 66.0327 39.5357 66.0327 39.6521 66.1008L41.7565 67.3203Z" fill="#4E4E4E"/>
<path d="M55.0621 65.5526L52.9706 66.7721C52.8575 66.837 52.6732 66.837 52.5601 66.7721L50.4557 65.5526C50.3975 65.5201 50.3684 65.4747 50.3684 65.4326V65.6791C50.3684 65.7212 50.3975 65.7666 50.4557 65.7991L52.5601 67.0186C52.6732 67.0835 52.8575 67.0835 52.9706 67.0186L55.0621 65.7991C55.1171 65.7666 55.1462 65.7245 55.1462 65.6823V65.4358C55.1462 65.478 55.1203 65.5201 55.0621 65.5526Z" fill="#1F2225"/>
<path d="M55.0621 65.3126C55.1752 65.3774 55.1752 65.4845 55.0621 65.5493L52.9706 66.7689C52.8574 66.8338 52.6732 66.8338 52.56 66.7689L50.4556 65.5493C50.3392 65.4812 50.3392 65.3774 50.4524 65.3093L52.5439 64.0898C52.657 64.0249 52.8413 64.0249 52.9544 64.0898L55.0588 65.3093L55.0621 65.3126Z" fill="#4E4E4E"/>
<path d="M51.0892 66.4348L48.9977 67.6544C48.8846 67.7192 48.7003 67.7225 48.584 67.6544L46.4796 66.4348C46.4214 66.4024 46.3955 66.357 46.3955 66.3148V66.5613C46.3955 66.6067 46.4246 66.6489 46.4796 66.6813L48.584 67.9009C48.7003 67.969 48.8846 67.9657 48.9977 67.9009L51.0892 66.6813C51.1474 66.6489 51.1733 66.6067 51.1733 66.5613V66.3148C51.1733 66.357 51.1442 66.4024 51.0892 66.4348Z" fill="#1F2225"/>
<path d="M51.0859 66.1948C51.2023 66.2629 51.2023 66.3667 51.0859 66.4348L48.9944 67.6544C48.8813 67.7193 48.697 67.7225 48.5806 67.6544L46.4762 66.4348C46.3631 66.37 46.3631 66.2597 46.4762 66.1948L48.5677 64.9753C48.6808 64.9072 48.8683 64.9104 48.9815 64.9753L51.0859 66.1948Z" fill="#4E4E4E"/>
<path d="M48.9103 68.4328L46.8188 69.6523C46.7057 69.7204 46.5214 69.7204 46.4083 69.6523L44.3006 68.4328C44.2424 68.4003 44.2166 68.3582 44.2166 68.3127V68.5592C44.2166 68.6014 44.2456 68.6468 44.3006 68.6793L46.405 69.8988C46.5182 69.9637 46.7024 69.9637 46.8156 69.8988L48.907 68.6793C48.962 68.6468 48.9911 68.6014 48.9911 68.5592V68.3127C48.9911 68.3549 48.962 68.4003 48.907 68.4328H48.9103Z" fill="#1F2225"/>
<path d="M48.9104 68.1928C49.0235 68.2576 49.0235 68.3647 48.9104 68.4328L46.8189 69.6523C46.7057 69.7204 46.5215 69.7204 46.4083 69.6523L44.3007 68.4328C44.1875 68.3679 44.1875 68.2609 44.3007 68.1928L46.3922 66.9732C46.5053 66.9083 46.6896 66.9051 46.8027 66.9732L48.9104 68.1928Z" fill="#4E4E4E"/>
<path d="M44.6076 69.2112L42.5161 70.4307C42.403 70.4988 42.2187 70.4988 42.1023 70.4307L39.9979 69.2112C39.9397 69.1788 39.9106 69.1334 39.9106 69.0912V69.3377C39.9106 69.3831 39.9397 69.4253 39.9947 69.4577L42.0991 70.6772C42.2155 70.7453 42.3965 70.7453 42.5129 70.6772L44.6044 69.4577C44.6626 69.4253 44.6884 69.3831 44.6884 69.3377V69.0912C44.6884 69.1334 44.6593 69.1788 44.6044 69.2112H44.6076Z" fill="#1F2225"/>
<path d="M44.6076 68.9712C44.724 69.0393 44.724 69.1431 44.6076 69.2112L42.5161 70.4308C42.403 70.4989 42.2187 70.4989 42.1024 70.4308L39.9979 69.2112C39.8848 69.1463 39.8816 69.0393 39.9979 68.9712L42.0894 67.7517C42.2026 67.6835 42.3901 67.6868 42.5032 67.7517L44.6076 68.9712Z" fill="#4E4E4E"/>
<path d="M57.9132 67.2035L55.8217 68.423C55.7086 68.4879 55.5243 68.4879 55.4112 68.423L53.3068 67.2035C53.2486 67.1711 53.2195 67.1257 53.2195 67.0835V67.33C53.2195 67.3722 53.2486 67.4176 53.3068 67.45L55.4112 68.6695C55.5243 68.7344 55.7086 68.7377 55.8217 68.6695L57.9132 67.45C57.9682 67.4176 57.9973 67.3754 57.9973 67.3332V67.0867C57.9973 67.1289 57.9714 67.1711 57.9164 67.2035H57.9132Z" fill="#1F2225"/>
<path d="M57.9099 66.9635C58.023 67.0284 58.0263 67.1354 57.9131 67.2035L55.8216 68.4231C55.7085 68.4879 55.5242 68.4879 55.4111 68.4231L53.3067 67.2035C53.1903 67.1354 53.1903 67.0316 53.3035 66.9635L55.3949 65.744C55.5081 65.6791 55.6923 65.6791 55.8055 65.744L57.9099 66.9635Z" fill="#4E4E4E"/>
<path d="M53.9662 68.1019L51.8747 69.3215C51.7616 69.3864 51.5773 69.3896 51.4609 69.3215L49.3565 68.1019C49.2983 68.0695 49.2725 68.0241 49.2725 67.9819V68.2284C49.2725 68.2738 49.3016 68.316 49.3565 68.3484L51.4609 69.568C51.5773 69.6361 51.7616 69.6329 51.8747 69.568L53.9662 68.3484C54.0244 68.316 54.0502 68.2738 54.0502 68.2284V67.9819C54.0502 68.0241 54.0211 68.0695 53.9662 68.1019Z" fill="#1F2225"/>
<path d="M53.9628 67.8619C54.0792 67.9301 54.0792 68.0338 53.9628 68.102L51.8714 69.3215C51.7582 69.3864 51.574 69.3896 51.4576 69.3215L49.3532 68.102C49.24 68.0371 49.24 67.9268 49.3532 67.8619L51.4447 66.6424C51.5578 66.5743 51.7453 66.5775 51.8584 66.6424L53.9628 67.8619Z" fill="#4E4E4E"/>
<path d="M51.7711 70.0902L49.6796 71.3098C49.5664 71.3779 49.3822 71.3779 49.269 71.3098L47.1646 70.0902C47.1064 70.0578 47.0806 70.0156 47.0806 69.9702V70.2167C47.0806 70.2589 47.1097 70.3043 47.1646 70.3367L49.2723 71.5563C49.3854 71.6211 49.5697 71.6211 49.6828 71.5563L51.7743 70.3367C51.8293 70.3043 51.8583 70.2589 51.8583 70.2167V69.9702C51.8583 70.0124 51.8293 70.0578 51.7743 70.0902H51.7711Z" fill="#1F2225"/>
<path d="M51.7746 69.8535C51.8877 69.9183 51.8877 70.0254 51.7746 70.0935L49.6831 71.313C49.5699 71.3811 49.3857 71.3811 49.2725 71.313L47.1681 70.0935C47.055 70.0286 47.055 69.9216 47.1681 69.8535L49.2596 68.6339C49.3727 68.5691 49.557 68.5658 49.6701 68.6339L51.7746 69.8535Z" fill="#4E4E4E"/>
<path d="M47.4587 70.8654L45.3672 72.0849C45.254 72.153 45.0698 72.153 44.9534 72.0849L42.849 70.8654C42.7908 70.8329 42.7617 70.7875 42.7617 70.7454V70.9919C42.7617 71.0373 42.7908 71.0794 42.8458 71.1119L44.9502 72.3314C45.0666 72.3995 45.2476 72.3995 45.364 72.3314L47.4555 71.1119C47.5136 71.0794 47.5395 71.0373 47.5395 70.9919V70.7454C47.5395 70.7875 47.5104 70.8329 47.4555 70.8654H47.4587Z" fill="#1F2225"/>
<path d="M47.4555 70.6221C47.5719 70.6902 47.5719 70.794 47.4555 70.8622L45.364 72.0817C45.2509 72.1498 45.0666 72.1498 44.9503 72.0817L42.8458 70.8622C42.7327 70.7973 42.7295 70.6902 42.8458 70.6221L44.9373 69.4026C45.0505 69.3345 45.238 69.3377 45.3511 69.4026L47.4555 70.6221Z" fill="#4E4E4E"/>
<path d="M60.7643 68.8544L58.6728 70.074C58.5597 70.1388 58.3754 70.1388 58.2623 70.074L56.1578 68.8544C56.0997 68.822 56.0706 68.7766 56.0706 68.7344V68.9809C56.0706 69.0231 56.0997 69.0685 56.1578 69.1009L58.2623 70.3205C58.3754 70.3854 58.5597 70.3886 58.6728 70.3205L60.7643 69.1009C60.8192 69.0685 60.8483 69.0263 60.8483 68.9842V68.7377C60.8483 68.7798 60.8225 68.822 60.7675 68.8544H60.7643Z" fill="#1F2225"/>
<path d="M60.761 68.6144C60.8741 68.6793 60.8773 68.7863 60.7642 68.8545L58.6727 70.074C58.5596 70.1389 58.3753 70.1389 58.2622 70.074L56.1578 68.8545C56.0414 68.7863 56.0414 68.6826 56.1545 68.6144L58.246 67.3949C58.3592 67.33 58.5434 67.33 58.6566 67.3949L60.761 68.6144Z" fill="#4E4E4E"/>
<path d="M56.8431 69.7691L54.7517 70.9886C54.6385 71.0535 54.4543 71.0567 54.3379 70.9886L52.2335 69.7691C52.1753 69.7366 52.1494 69.6912 52.1494 69.649V69.8956C52.1494 69.941 52.1785 69.9831 52.2335 70.0156L54.3379 71.2351C54.4543 71.3032 54.6385 71.3 54.7517 71.2351L56.8431 70.0156C56.9013 69.9831 56.9272 69.941 56.9272 69.8956V69.649C56.9272 69.6912 56.8981 69.7366 56.8431 69.7691Z" fill="#1F2225"/>
<path d="M56.8432 69.5291C56.9596 69.5972 56.9596 69.701 56.8432 69.7691L54.7517 70.9886C54.6386 71.0535 54.4543 71.0567 54.338 70.9886L52.2335 69.7691C52.1204 69.7042 52.1204 69.5939 52.2335 69.5291L54.325 68.3095C54.4382 68.2414 54.6257 68.2446 54.7388 68.3095L56.8432 69.5291Z" fill="#4E4E4E"/>
<path d="M54.6353 71.7509L52.5438 72.9704C52.4307 73.0385 52.2464 73.0385 52.1333 72.9704L50.0289 71.7509C49.9707 71.7184 49.9448 71.6763 49.9448 71.6309V71.8774C49.9448 71.9195 49.9739 71.9649 50.0289 71.9974L52.1333 73.2169C52.2464 73.2818 52.4307 73.2818 52.5438 73.2169L54.6353 71.9974C54.6903 71.9649 54.7194 71.9195 54.7194 71.8774V71.6309C54.7194 71.673 54.6903 71.7184 54.6353 71.7509Z" fill="#1F2225"/>
<path d="M54.6352 71.5109C54.7484 71.5757 54.7484 71.6828 54.6352 71.7509L52.5437 72.9704C52.4306 73.0385 52.2463 73.0385 52.1332 72.9704L50.0255 71.7509C49.9124 71.686 49.9124 71.579 50.0255 71.5109L52.117 70.2913C52.2302 70.2265 52.4144 70.2232 52.5276 70.2913L54.6352 71.5109Z" fill="#4E4E4E"/>
<path d="M50.3102 72.5163L48.2187 73.7358C48.1056 73.804 47.9213 73.804 47.8049 73.7358L45.7005 72.5163C45.6423 72.4839 45.6165 72.4417 45.6165 72.3963V72.6428C45.6165 72.685 45.6455 72.7304 45.7005 72.7628L47.8049 73.9824C47.9213 74.0505 48.1023 74.0505 48.2187 73.9824L50.3102 72.7628C50.3684 72.7304 50.3942 72.6882 50.3942 72.6428V72.3963C50.3942 72.4385 50.3651 72.4839 50.3102 72.5163Z" fill="#1F2225"/>
<path d="M50.3068 72.2763C50.4232 72.3444 50.4232 72.4482 50.3068 72.5163L48.2154 73.7359C48.1022 73.804 47.918 73.804 47.8016 73.7359L45.6972 72.5163C45.584 72.4514 45.584 72.3444 45.6972 72.2763L47.7887 71.0568C47.9018 70.9886 48.0861 70.9886 48.1992 71.0568L50.3036 72.2763H50.3068Z" fill="#4E4E4E"/>
<path d="M47.4006 74.3391L45.8684 75.2311C45.6001 75.3868 45.1669 75.3868 44.8986 75.2311L31.8648 67.6803C31.729 67.6025 31.6611 67.4987 31.6611 67.3949V67.6414C31.6611 67.7452 31.729 67.8457 31.8648 67.9268L44.8986 75.4776C45.1669 75.6333 45.6001 75.6333 45.8684 75.4776L47.4006 74.5856C47.5332 74.5078 47.6011 74.4072 47.6011 74.3067V74.0602C47.6011 74.1607 47.5364 74.2613 47.4006 74.3391Z" fill="#1F2225"/>
<path d="M47.3975 73.7748C47.6658 73.9305 47.669 74.1834 47.3975 74.3391L45.8652 75.2311C45.5969 75.3868 45.1637 75.3868 44.8954 75.2311L31.8616 67.6803C31.5901 67.5246 31.5901 67.2716 31.8616 67.116L33.3939 66.224C33.6622 66.0683 34.0953 66.0683 34.3636 66.224L47.3975 73.7748Z" fill="#4E4E4E"/>
<path d="M63.6154 70.5054L61.5239 71.7249C61.4107 71.7898 61.2265 71.7898 61.1133 71.7249L59.0089 70.5054C58.9507 70.4729 58.9216 70.4275 58.9216 70.3854V70.6319C58.9216 70.674 58.9507 70.7195 59.0089 70.7519L61.1133 71.9714C61.2297 72.0395 61.4107 72.0395 61.5239 71.9714L63.6154 70.7519C63.6703 70.7195 63.6994 70.6773 63.6994 70.6351V70.3886C63.6994 70.4308 63.6735 70.4729 63.6154 70.5054Z" fill="#1F2225"/>
<path d="M63.612 70.2686C63.7284 70.3367 63.7284 70.4405 63.6153 70.5086L61.5238 71.7282C61.4107 71.793 61.2264 71.793 61.1133 71.7282L59.0088 70.5086C58.8925 70.4405 58.8925 70.3367 59.0056 70.2686L61.0971 69.0491C61.2102 68.9842 61.3945 68.9842 61.5076 69.0491L63.612 70.2686Z" fill="#4E4E4E"/>
<path d="M59.7201 71.4362L57.6286 72.6558C57.5155 72.7206 57.3312 72.7239 57.2148 72.6558L55.1104 71.4362C55.0522 71.4038 55.0264 71.3584 55.0264 71.3162V71.5627C55.0264 71.6081 55.0555 71.6503 55.1104 71.6827L57.2148 72.9023C57.3312 72.9704 57.5155 72.9671 57.6286 72.9023L59.7201 71.6827C59.7783 71.6503 59.8041 71.6081 59.8041 71.5627V71.3162C59.8041 71.3584 59.7751 71.4038 59.7201 71.4362Z" fill="#1F2225"/>
<path d="M59.7202 71.1962C59.8365 71.2643 59.8365 71.3681 59.7202 71.4362L57.6287 72.6558C57.5155 72.7207 57.3313 72.7239 57.2149 72.6558L55.1105 71.4362C54.9973 71.3714 54.9973 71.2611 55.1105 71.1962L57.202 69.9767C57.3151 69.9086 57.5026 69.9118 57.6158 69.9767L59.7202 71.1962Z" fill="#4E4E4E"/>
<path d="M57.4994 73.4083L55.4079 74.6278C55.2948 74.6959 55.1105 74.6959 54.9974 74.6278L52.8929 73.4083C52.8348 73.3758 52.8057 73.3304 52.8057 73.2883V73.5348C52.8057 73.5769 52.8348 73.6223 52.8929 73.6548L54.9974 74.8743C55.1105 74.9392 55.2948 74.9392 55.4079 74.8743L57.4994 73.6548C57.5543 73.6223 57.5834 73.5769 57.5834 73.5348V73.2883C57.5834 73.3304 57.5543 73.3758 57.4994 73.4083Z" fill="#1F2225"/>
<path d="M57.4994 73.1715C57.6125 73.2364 57.6125 73.3434 57.4994 73.4115L55.4079 74.6311C55.2948 74.6992 55.1105 74.6992 54.9974 74.6311L52.8929 73.4115C52.7766 73.3434 52.7766 73.2396 52.8929 73.1715L54.9844 71.952C55.0976 71.8871 55.2818 71.8839 55.3982 71.952L57.5026 73.1715H57.4994Z" fill="#4E4E4E"/>
<path d="M53.1578 74.1673L51.0663 75.3868C50.9532 75.4549 50.7689 75.4549 50.6558 75.3868L48.5513 74.1673C48.4931 74.1348 48.4673 74.0926 48.4673 74.0472V74.2937C48.4673 74.3359 48.4964 74.3813 48.5513 74.4138L50.6558 75.6333C50.7689 75.6982 50.9532 75.6982 51.0663 75.6333L53.1578 74.4138C53.216 74.3813 53.2418 74.3359 53.2418 74.2937V74.0472C53.2418 74.0894 53.2127 74.1348 53.1578 74.1673Z" fill="#1F2225"/>
<path d="M53.1579 73.9272C53.271 73.9921 53.271 74.0991 53.1579 74.1673L51.0664 75.3868C50.9532 75.4549 50.769 75.4549 50.6558 75.3868L48.5514 74.1673C48.4383 74.1024 48.4383 73.9954 48.5514 73.9272L50.6429 72.7077C50.756 72.6396 50.9403 72.6396 51.0534 72.7077L53.1579 73.9272Z" fill="#4E4E4E"/>
<path d="M66.5797 72.2211L64.4882 73.4407C64.3751 73.5056 64.1908 73.5056 64.0777 73.4407L61.9733 72.2211C61.9151 72.1887 61.886 72.1433 61.886 72.1011V72.3476C61.886 72.393 61.9151 72.4352 61.97 72.4676L64.0745 73.6872C64.1908 73.7553 64.3719 73.7553 64.485 73.6872L66.5765 72.4676C66.6314 72.4352 66.6605 72.393 66.6605 72.3509V72.1044C66.6605 72.1465 66.6347 72.1887 66.5765 72.2211H66.5797Z" fill="#1F2225"/>
<path d="M66.5733 71.9844C66.6896 72.0525 66.6896 72.1563 66.5765 72.2244L64.485 73.4439C64.3719 73.5088 64.1876 73.5088 64.0745 73.4439L61.97 72.2244C61.8569 72.1595 61.8537 72.0525 61.9668 71.9844L64.0583 70.7648C64.1714 70.7 64.3557 70.7 64.4688 70.7648L66.5733 71.9844Z" fill="#4E4E4E"/>
<path d="M62.5971 73.1001L60.5056 74.3197C60.3924 74.3845 60.2082 74.3878 60.0918 74.3197L57.9874 73.1001C57.9292 73.0677 57.9033 73.0223 57.9033 72.9801V73.2266C57.9033 73.272 57.9324 73.3142 57.9874 73.3466L60.0918 74.5662C60.2082 74.6343 60.3924 74.631 60.5056 74.5662L62.5971 73.3466C62.6552 73.3142 62.6811 73.272 62.6811 73.2266V72.9801C62.6811 73.0223 62.652 73.0677 62.5971 73.1001Z" fill="#1F2225"/>
<path d="M62.5971 72.8601C62.7135 72.9282 62.7135 73.032 62.5971 73.1001L60.5056 74.3197C60.3925 74.3845 60.2082 74.3878 60.0919 74.3197L57.9874 73.1001C57.8743 73.0353 57.8743 72.925 57.9874 72.8601L60.0789 71.6406C60.1921 71.5725 60.3796 71.5757 60.4927 71.6406L62.5971 72.8601Z" fill="#4E4E4E"/>
<path d="M60.3634 75.0689L58.2719 76.2884C58.1588 76.3565 57.9745 76.3565 57.8614 76.2884L55.757 75.0689C55.6988 75.0364 55.6697 74.991 55.6697 74.9489V75.1954C55.6697 75.2375 55.6988 75.2829 55.757 75.3154L57.8614 76.5349C57.9745 76.5998 58.1588 76.5998 58.2719 76.5349L60.3634 75.3154C60.4184 75.2829 60.4475 75.2375 60.4475 75.1954V74.9489C60.4475 74.991 60.4184 75.0364 60.3634 75.0689Z" fill="#1F2225"/>
<path d="M60.3634 74.8289C60.4765 74.8937 60.4765 75.0008 60.3634 75.0689L58.2719 76.2884C58.1588 76.3565 57.9745 76.3565 57.8614 76.2884L55.757 75.0689C55.6406 75.0008 55.6406 74.897 55.757 74.8289L57.8484 73.6093C57.9616 73.5445 58.1458 73.5412 58.2622 73.6093L60.3666 74.8289H60.3634Z" fill="#4E4E4E"/>
<path d="M56.106 75.8733L54.0145 77.0928C53.9014 77.161 53.7171 77.161 53.604 77.0928L51.4996 75.8733C51.4414 75.8409 51.4155 75.7987 51.4155 75.7533V75.9998C51.4155 76.042 51.4446 76.0874 51.4996 76.1198L53.604 77.3393C53.7171 77.4042 53.9014 77.4042 54.0145 77.3393L56.106 76.1198C56.1642 76.0874 56.1901 76.042 56.1901 75.9998V75.7533C56.1901 75.7955 56.161 75.8409 56.106 75.8733Z" fill="#1F2225"/>
<path d="M56.1061 75.6333C56.2192 75.6982 56.2192 75.8052 56.1061 75.8733L54.0146 77.0928C53.9015 77.161 53.7172 77.161 53.6041 77.0928L51.4997 75.8733C51.3865 75.8084 51.3865 75.7014 51.4997 75.6333L53.5911 74.4138C53.7043 74.3456 53.8885 74.3456 54.0017 74.4138L56.1093 75.6333H56.1061Z" fill="#4E4E4E"/>
<path d="M51.1633 76.2236L49.1236 77.4139C48.9975 77.4885 48.7874 77.4885 48.6613 77.4139L45.9427 75.8376C45.878 75.7987 45.8457 75.75 45.8457 75.7014V75.9479C45.8457 75.9965 45.878 76.0452 45.9427 76.0841L48.6613 77.6604C48.7874 77.735 48.9975 77.735 49.1236 77.6604L51.1633 76.4701C51.228 76.4344 51.2571 76.3857 51.2571 76.3371V76.0906C51.2571 76.1392 51.228 76.1879 51.1633 76.2236Z" fill="#1F2225"/>
<path d="M51.1601 75.9544C51.2862 76.029 51.2895 76.149 51.1601 76.2236L49.1204 77.4139C48.9943 77.4885 48.7842 77.4885 48.6581 77.4139L45.9395 75.8376C45.8102 75.763 45.8102 75.643 45.9395 75.5684L47.9793 74.378C48.1053 74.3034 48.3122 74.3034 48.4415 74.378L51.1601 75.9544Z" fill="#4E4E4E"/>
<path d="M69.4696 73.898L67.3781 75.1176C67.265 75.1824 67.0807 75.1824 66.9676 75.1176L64.8632 73.898C64.805 73.8656 64.7759 73.8202 64.7759 73.778V74.0245C64.7759 74.0667 64.805 74.1121 64.8632 74.1445L66.9676 75.3641C67.084 75.4322 67.265 75.4322 67.3781 75.3641L69.4696 74.1445C69.5246 74.1121 69.5537 74.0699 69.5537 74.0278V73.7813C69.5537 73.8234 69.5278 73.8656 69.4696 73.898Z" fill="#1F2225"/>
<path d="M69.4664 73.658C69.5827 73.7261 69.5827 73.8299 69.4664 73.898L67.3749 75.1176C67.2617 75.1824 67.0775 75.1824 66.9643 75.1176L64.8599 73.898C64.7435 73.8299 64.7435 73.7261 64.8567 73.658L66.9482 72.4385C67.0613 72.3736 67.2456 72.3736 67.3587 72.4385L69.4631 73.658H69.4664Z" fill="#4E4E4E"/>
<path d="M65.474 74.7672L63.3825 75.9868C63.2694 76.0516 63.0851 76.0549 62.9687 75.9868L60.8643 74.7672C60.8061 74.7348 60.7803 74.6894 60.7803 74.6472V74.8937C60.7803 74.9391 60.8094 74.9813 60.8643 75.0137L62.9687 76.2333C63.0851 76.3014 63.2694 76.2981 63.3825 76.2333L65.474 75.0137C65.5322 74.9813 65.5581 74.9391 65.5581 74.8937V74.6472C65.5581 74.6894 65.529 74.7348 65.474 74.7672Z" fill="#1F2225"/>
<path d="M65.4741 74.5272C65.5905 74.5953 65.5905 74.6991 65.4741 74.7672L63.3826 75.9868C63.2695 76.0517 63.0852 76.0549 62.9688 75.9868L60.8644 74.7672C60.7513 74.7024 60.7513 74.5921 60.8644 74.5272L62.9559 73.3077C63.069 73.2396 63.2565 73.2428 63.3697 73.3077L65.4741 74.5272Z" fill="#4E4E4E"/>
<path d="M63.2275 76.7296L61.136 77.9491C61.0228 78.0172 60.8354 78.014 60.7222 77.9491L58.6178 76.7296C58.5596 76.6971 58.5305 76.6517 58.5305 76.6096V76.8561C58.5305 76.8982 58.5596 76.9436 58.6178 76.9761L60.7222 78.1956C60.8354 78.2605 61.0196 78.2637 61.136 78.1956L63.2275 76.9761C63.2824 76.9436 63.3115 76.9015 63.3115 76.8561V76.6096C63.3115 76.6517 63.2857 76.6971 63.2275 76.7296Z" fill="#1F2225"/>
<path d="M63.2275 76.4896C63.3406 76.5544 63.3406 76.6647 63.2275 76.7296L61.136 77.9491C61.0228 78.0172 60.8354 78.014 60.7222 77.9491L58.6178 76.7296C58.5014 76.6615 58.5014 76.5577 58.6178 76.4896L60.7093 75.27C60.8224 75.2052 61.0067 75.2019 61.1231 75.27L63.2275 76.4896Z" fill="#4E4E4E"/>
<path d="M58.9506 77.5209L56.8591 78.7405C56.746 78.8086 56.5585 78.8054 56.4454 78.7405L54.3409 77.5209C54.2828 77.4885 54.2537 77.4431 54.2537 77.4009V77.6474C54.2537 77.6896 54.2828 77.735 54.3409 77.7674L56.4454 78.987C56.5585 79.0519 56.7428 79.0551 56.8591 78.987L58.9506 77.7674C59.0056 77.735 59.0347 77.6928 59.0347 77.6474V77.4009C59.0347 77.4431 59.0088 77.4885 58.9506 77.5209Z" fill="#1F2225"/>
<path d="M58.9475 77.2809C59.0606 77.3458 59.0638 77.4528 58.9475 77.521L56.856 78.7405C56.7428 78.8086 56.5553 78.8054 56.4422 78.7405L54.3378 77.521C54.2214 77.4528 54.2214 77.349 54.3378 77.2809L56.4293 76.0614C56.5424 75.9933 56.7267 75.9933 56.843 76.0614L58.9475 77.2809Z" fill="#4E4E4E"/>
<path d="M54.1051 77.9037L52.0233 79.1168C51.9069 79.1849 51.7162 79.1849 51.6031 79.1168L49.392 77.8356C49.3338 77.7999 49.3047 77.7577 49.3047 77.7123V77.9588C49.3047 78.0043 49.3338 78.0464 49.392 78.0821L51.6031 79.3633C51.7194 79.4314 51.9069 79.4314 52.0233 79.3633L54.1051 78.1502C54.1633 78.1178 54.1924 78.0724 54.1924 78.0302V77.7837C54.1924 77.8291 54.1633 77.8713 54.1083 77.9037H54.1051Z" fill="#1F2225"/>
<path d="M54.1051 77.6604C54.2215 77.7285 54.2215 77.8356 54.1051 77.9037L52.0233 79.1167C51.9069 79.1849 51.7162 79.1849 51.6031 79.1167L49.392 77.8356C49.2756 77.7675 49.2756 77.6604 49.392 77.5923L51.4738 76.3793C51.5901 76.3112 51.7776 76.3112 51.894 76.3793L54.1051 77.6604Z" fill="#4E4E4E"/>
<path d="M55.8735 80.2649L54.881 80.8422C54.797 80.8909 54.6612 80.8909 54.5772 80.8422L52.2497 79.493C52.2077 79.467 52.1851 79.4378 52.1851 79.4054V79.6519C52.1851 79.6843 52.2045 79.7168 52.2465 79.7395L54.574 81.0887C54.658 81.1374 54.7938 81.1374 54.8778 81.0887L55.8702 80.5114C55.9122 80.4887 55.9316 80.4563 55.9316 80.4238V80.1773C55.9316 80.2098 55.9122 80.239 55.8702 80.2649H55.8735Z" fill="#1F2225"/>
<path d="M55.8701 80.0865C55.9542 80.1352 55.9574 80.213 55.8701 80.2617L54.8777 80.839C54.7937 80.8876 54.6579 80.8876 54.5739 80.839L52.2464 79.4897C52.1623 79.4411 52.1623 79.3632 52.2464 79.3146L53.2388 78.7372C53.3228 78.6886 53.4554 78.6886 53.5394 78.7372L55.8669 80.0865H55.8701Z" fill="#4E4E4E"/>
<path d="M76.048 75.2927L74.6289 76.1198C74.5448 76.1684 74.4123 76.1684 74.3283 76.1198L72.6635 75.1565C72.6214 75.1338 72.6021 75.1013 72.6021 75.0689V75.3154C72.6021 75.3478 72.6214 75.3803 72.6635 75.403L74.3283 76.3663C74.4123 76.4149 74.5481 76.4149 74.6289 76.3663L76.048 75.5392C76.09 75.5165 76.1094 75.4841 76.1094 75.4516V75.2051C76.1094 75.2376 76.09 75.2668 76.048 75.2927Z" fill="#1F2225"/>
<path d="M76.0447 75.1143C76.1288 75.1629 76.1288 75.2408 76.0447 75.2894L74.6256 76.1165C74.5416 76.1652 74.409 76.1652 74.325 76.1165L72.6602 75.1532C72.5762 75.1046 72.5762 75.0267 72.6602 74.9781L74.0793 74.151C74.1634 74.1023 74.2991 74.1023 74.3799 74.151L76.0447 75.1143Z" fill="#4E4E4E"/>
<path d="M73.9078 76.5382L71.9359 77.6864C71.7905 77.7707 71.5513 77.7707 71.4058 77.6864L67.7303 75.5587C67.656 75.5165 67.6172 75.4582 67.6172 75.403V75.6495C67.6172 75.7079 67.6527 75.763 67.7271 75.8052L71.4026 77.9329C71.5513 78.0172 71.7872 78.0172 71.9327 77.9329L73.9046 76.7847C73.9789 76.7426 74.0145 76.6874 74.0145 76.6323V76.3858C74.0145 76.4409 73.9789 76.4961 73.9046 76.5382H73.9078Z" fill="#1F2225"/>
<path d="M73.9047 76.2301C74.0534 76.3144 74.0534 76.4539 73.9047 76.5382L71.9328 77.6864C71.7873 77.7707 71.5481 77.7707 71.4026 77.6864L67.7272 75.5587C67.5785 75.4744 67.5752 75.3349 67.7239 75.2473L69.6958 74.0991C69.8413 74.0148 70.0805 74.0148 70.2292 74.0991L73.9047 76.2268V76.2301Z" fill="#4E4E4E"/>
<path d="M68.351 76.4344L66.2595 77.6539C66.1463 77.7188 65.9621 77.7221 65.8457 77.6539L63.7413 76.4344C63.6831 76.402 63.6572 76.3566 63.6572 76.3144V76.5609C63.6572 76.6063 63.6863 76.6485 63.7413 76.6809L65.8457 77.9004C65.9621 77.9686 66.1463 77.9653 66.2595 77.9004L68.351 76.6809C68.4091 76.6485 68.435 76.6063 68.435 76.5609V76.3144C68.435 76.3566 68.4059 76.402 68.351 76.4344Z" fill="#1F2225"/>
<path d="M68.351 76.1944C68.4674 76.2625 68.4674 76.3663 68.351 76.4344L66.2595 77.654C66.1464 77.7188 65.9621 77.7221 65.8458 77.654L63.7413 76.4344C63.6282 76.3695 63.6282 76.2593 63.7413 76.1944L65.8328 74.9749C65.946 74.9068 66.1335 74.91 66.2466 74.9749L68.351 76.1944Z" fill="#4E4E4E"/>
<path d="M66.0915 78.387L64 79.6065C63.8869 79.6746 63.6994 79.6714 63.5862 79.6065L61.4818 78.387C61.4236 78.3545 61.3945 78.3091 61.3945 78.267V78.5135C61.3945 78.5556 61.4236 78.601 61.4818 78.6335L63.5862 79.853C63.6994 79.9179 63.8836 79.9211 64 79.853L66.0915 78.6335C66.1464 78.601 66.1755 78.5589 66.1755 78.5135V78.267C66.1755 78.3091 66.1497 78.3545 66.0915 78.387Z" fill="#1F2225"/>
<path d="M66.0915 78.147C66.2046 78.2118 66.2046 78.3221 66.0915 78.387L64 79.6065C63.8869 79.6746 63.6994 79.6714 63.5862 79.6065L61.4818 78.387C61.3654 78.3189 61.3654 78.2151 61.4818 78.147L63.5733 76.9274C63.6864 76.8626 63.8707 76.8593 63.9871 76.9274L66.0915 78.147Z" fill="#4E4E4E"/>
<path d="M71.2282 78.1015L69.1367 79.3211C69.0235 79.3859 68.8393 79.3892 68.7229 79.3211L66.6185 78.1015C66.5603 78.0691 66.5344 78.0237 66.5344 77.9815V78.228C66.5344 78.2734 66.5635 78.3156 66.6185 78.348L68.7229 79.5676C68.8393 79.6357 69.0235 79.6324 69.1367 79.5676L71.2282 78.348C71.2863 78.3156 71.3122 78.2734 71.3122 78.228V77.9815C71.3122 78.0237 71.2831 78.0691 71.2282 78.1015Z" fill="#1F2225"/>
<path d="M71.2282 77.8615C71.3446 77.9296 71.3446 78.0334 71.2282 78.1015L69.1367 79.3211C69.0236 79.3859 68.8393 79.3892 68.723 79.3211L66.6185 78.1015C66.5054 78.0367 66.5054 77.9264 66.6185 77.8615L68.71 76.642C68.8232 76.5739 69.0107 76.5771 69.1238 76.642L71.2282 77.8615Z" fill="#4E4E4E"/>
<path d="M68.4448 79.7232L66.3081 80.9687C66.2079 81.0271 66.043 81.0271 65.946 80.9687L64.3459 80.0411C64.2942 80.0119 64.2683 79.973 64.2683 79.9341V80.1806C64.2683 80.2195 64.2942 80.2584 64.3459 80.2876L65.946 81.2152C66.0462 81.2736 66.2111 81.2736 66.3081 81.2152L68.4448 79.9697C68.4965 79.9406 68.5192 79.9016 68.5192 79.8627V79.6162C68.5192 79.6551 68.4933 79.694 68.4448 79.7232Z" fill="#1F2225"/>
<path d="M68.448 79.5124C68.5482 79.5708 68.5482 79.6649 68.448 79.7233L66.3113 80.9687C66.2111 81.0271 66.0462 81.0271 65.9492 80.9687L64.3491 80.0411C64.2489 79.9827 64.2456 79.8854 64.3491 79.8303L66.4858 78.5848C66.586 78.5264 66.7509 78.5264 66.8543 78.5848L68.4545 79.5124H68.448Z" fill="#4E4E4E"/>
<path d="M65.4871 81.4488L63.638 82.5288C63.4602 82.6326 63.1661 82.6326 62.985 82.5288L57.2827 79.227C57.1922 79.1751 57.147 79.1038 57.147 79.0356V79.2821C57.147 79.3503 57.1922 79.4216 57.2827 79.4735L62.985 82.7753C63.1661 82.8791 63.4602 82.8791 63.638 82.7753L65.4871 81.6953C65.5776 81.6434 65.6196 81.5753 65.6196 81.5072V81.2607C65.6196 81.3288 65.5744 81.3969 65.4871 81.4488Z" fill="#1F2225"/>
<path d="M65.4871 81.0693C65.6681 81.1731 65.6681 81.345 65.4871 81.4488L63.638 82.5289C63.4602 82.6327 63.1661 82.6327 62.985 82.5289L57.2827 79.227C57.1017 79.1232 57.1017 78.9513 57.2827 78.8476L59.1318 77.7675C59.3096 77.6637 59.607 77.6637 59.7848 77.7675L65.4871 81.0693Z" fill="#4E4E4E"/>
<path d="M59.9852 81.3093L57.9034 82.5224C57.7871 82.5905 57.5963 82.5905 57.4832 82.5224L55.2721 81.2412C55.2139 81.2088 55.1848 81.1634 55.1848 81.118V81.3645C55.1848 81.4099 55.2139 81.4521 55.2721 81.4877L57.4832 82.7689C57.5996 82.837 57.7871 82.837 57.9034 82.7689L59.9852 81.5558C60.0434 81.5234 60.0725 81.478 60.0725 81.4358V81.1893C60.0725 81.2347 60.0434 81.2769 59.9885 81.3093H59.9852Z" fill="#1F2225"/>
<path d="M59.982 81.0661C60.0984 81.1342 60.0984 81.2412 59.982 81.3093L57.9003 82.5224C57.7839 82.5905 57.5932 82.5905 57.48 82.5224L55.2689 81.2412C55.1525 81.1731 55.1525 81.0661 55.2689 80.998L57.3507 79.7849C57.4671 79.7168 57.6546 79.7168 57.771 79.7849L59.982 81.0661Z" fill="#4E4E4E"/>
<path d="M61.7147 83.6478L60.7223 84.2252C60.6382 84.2738 60.5025 84.2738 60.4217 84.2252L58.091 82.8759C58.0489 82.8532 58.0295 82.8208 58.0295 82.7883V83.0348C58.0295 83.0673 58.0489 83.0997 58.091 83.1224L60.4217 84.4717C60.5025 84.5203 60.6415 84.5203 60.7223 84.4717L61.7147 83.8943C61.7567 83.8716 61.7761 83.8392 61.7761 83.8068V83.5603C61.7761 83.5927 61.7567 83.6219 61.7147 83.6478Z" fill="#1F2225"/>
<path d="M61.7146 83.4727C61.7987 83.5213 61.7987 83.5992 61.7146 83.6478L60.7222 84.2252C60.6382 84.2738 60.5024 84.2738 60.4216 84.2252L58.0909 82.8759C58.0068 82.8272 58.0068 82.7494 58.0909 82.7007L59.0833 82.1234C59.1673 82.0748 59.3031 82.0748 59.3839 82.1234L61.7146 83.4727Z" fill="#4E4E4E"/>
<path d="M38.6047 50.4121L37.6931 50.9408H37.3828V51.1905C37.3893 51.2197 37.4054 51.2457 37.441 51.2684L73.8724 72.3735C73.9564 72.4222 74.1051 72.4157 74.2053 72.3606L75.3464 71.6989L38.608 50.4154L38.6047 50.4121Z" fill="#1F2225"/>
<path d="M73.8691 72.1368L37.4377 51.0316C37.3537 50.983 37.3634 50.8954 37.4604 50.8403L38.6015 50.1786L75.3399 71.4621L74.1988 72.1238C74.1018 72.1822 73.9531 72.1854 73.8659 72.1368H73.8691Z" fill="#4E4E4E"/>
<path d="M85.054 34.4478L40.7836 8.80182C40.512 8.64614 40.2566 8.62343 40.0498 8.71749L38.7632 9.30131C38.9701 9.20725 39.2254 9.22996 39.497 9.38564L83.7706 35.0317C84.3557 35.369 84.776 36.2188 84.7113 36.9291L81.2395 73.8753C81.2039 74.2548 81.0358 74.5175 80.7966 74.6245L82.0832 74.0407C82.3224 73.9337 82.4905 73.6709 82.5261 73.2915L85.9979 36.3453C86.0658 35.6349 85.6423 34.7884 85.0572 34.4478H85.054Z" fill="#4E4E4E"/>
<path d="M83.7674 35.0316C84.3525 35.369 84.7728 36.2187 84.7081 36.9291L81.2363 73.8753C81.1684 74.5823 80.6415 74.8807 80.0564 74.5402L35.7828 48.8942C35.1977 48.5569 34.7774 47.7071 34.8453 47L38.3171 10.0538C38.385 9.34347 38.9119 9.04508 39.497 9.38239L83.7707 35.0284L83.7674 35.0316Z" fill="#1F2225"/>
<path d="M83.0853 35.5539C83.6445 35.8782 84.0454 36.6891 83.984 37.3669L80.9583 69.529C80.8936 70.2069 80.3893 70.4891 79.8301 70.1648L36.9335 45.3037C36.3743 44.9793 35.9734 44.1717 36.0381 43.4938L39.0638 11.3317C39.1285 10.6538 39.6327 10.3684 40.1887 10.6928L83.0853 35.5539Z" fill="url(#paint0_linear_88_607)"/>
<g style="mix-blend-mode:multiply">
<path d="M52.4242 73.5379L50.727 74.5175C49.99 74.9456 48.8748 74.9943 48.2347 74.6245L19.1155 57.765L23.4666 55.2286L52.5987 72.1011C53.2355 72.4644 53.1547 73.1131 52.4242 73.5379Z" fill="#BDBDBD"/>
</g>
<path d="M42.9657 18.7041L41.4108 17.8024C41.1619 17.6565 40.9874 17.2737 41.0262 16.9429C41.0649 16.6121 41.2977 16.4629 41.5466 16.6088L43.1015 17.5105C43.3504 17.6565 43.5249 18.0392 43.4862 18.37C43.4474 18.7009 43.2146 18.8501 42.9657 18.7041Z" fill="#426DB5"/>
<path d="M40.5866 39.6244L39.0317 38.7227C38.7828 38.5768 38.6082 38.194 38.647 37.8632C38.6858 37.5324 38.9185 37.3832 39.1674 37.5291L40.7223 38.4308C40.9712 38.5768 41.1458 38.9595 41.107 39.2903C41.0682 39.6212 40.8355 39.7704 40.5866 39.6244Z" fill="#426DB5"/>
<path d="M44.9668 42.1608L41.8505 40.3542C41.6016 40.2082 41.4271 39.8255 41.4658 39.4947C41.5046 39.1638 41.7374 39.0146 41.9863 39.1606L45.1025 40.9672C45.3514 41.1132 45.526 41.4959 45.4872 41.8267C45.4484 42.1575 45.2157 42.3067 44.9668 42.1608Z" fill="#B7D2EE"/>
<path d="M56.2066 48.6704L46.2502 42.9035C46.0013 42.7576 45.8267 42.3748 45.8655 42.044C45.9043 41.7132 46.137 41.564 46.386 41.7099L56.3423 47.4768C56.5913 47.6227 56.7658 48.0055 56.727 48.3363C56.6882 48.6671 56.4555 48.8163 56.2066 48.6704Z" fill="#FAAC67"/>
<path d="M49.1109 22.2622L44.3913 19.528C44.1424 19.382 43.9678 18.9993 44.0066 18.6684C44.0454 18.3376 44.2782 18.1884 44.5271 18.3344L49.2467 21.0686C49.4956 21.2146 49.6701 21.5973 49.6313 21.9281C49.5925 22.2589 49.3598 22.4081 49.1109 22.2622Z" fill="#B7D2EE"/>
<path d="M64.7469 31.3212L50.5559 23.099C50.3069 22.953 50.1324 22.5703 50.1712 22.2395C50.21 21.9087 50.4427 21.7595 50.6916 21.9054L64.8827 30.1276C65.1316 30.2735 65.3062 30.6563 65.2674 30.9871C65.2286 31.3179 64.9959 31.4671 64.7469 31.3212Z" fill="#FAAC67"/>
<path d="M44.1974 21.5973L42.6425 20.6956C42.3936 20.5497 42.219 20.1669 42.2578 19.8361C42.2966 19.5053 42.5294 19.3561 42.7783 19.502L44.3332 20.4037C44.5821 20.5497 44.7566 20.9324 44.7178 21.2632C44.6791 21.5941 44.4463 21.7433 44.1974 21.5973Z" fill="#426DB5"/>
<path d="M50.3426 25.1586L45.623 22.4244C45.3741 22.2784 45.1995 21.8957 45.2383 21.5649C45.2771 21.234 45.5098 21.0848 45.7588 21.2308L50.4783 23.965C50.7273 24.111 50.9018 24.4937 50.863 24.8245C50.8242 25.1554 50.5915 25.3046 50.3426 25.1586Z" fill="#B7D2EE"/>
<path d="M65.9786 34.2143L51.7875 25.9921C51.5386 25.8462 51.3641 25.4634 51.4029 25.1326C51.4417 24.8018 51.6744 24.6526 51.9233 24.7985L66.1144 33.0207C66.3633 33.1667 66.5379 33.5494 66.4991 33.8802C66.4603 34.211 66.2276 34.3602 65.9786 34.2143Z" fill="#FAAC67"/>
<path d="M43.9452 23.8126L42.3903 22.9109C42.1414 22.7649 41.9669 22.3822 42.0056 22.0514C42.0444 21.7205 42.2772 21.5713 42.5261 21.7173L44.081 22.619C44.3299 22.7649 44.5044 23.1477 44.4656 23.4785C44.4269 23.8093 44.1941 23.9585 43.9452 23.8126Z" fill="#426DB5"/>
<path d="M43.7094 25.9143L42.1545 25.0126C41.9056 24.8667 41.731 24.484 41.7698 24.1531C41.8086 23.8223 42.0413 23.6731 42.2903 23.819L43.8451 24.7207C44.094 24.8667 44.2686 25.2494 44.2298 25.5802C44.191 25.9111 43.9583 26.0603 43.7094 25.9143Z" fill="#426DB5"/>
<path d="M42.746 34.3959L41.1911 33.4943C40.9422 33.3483 40.7676 32.9656 40.8064 32.6347C40.8452 32.3039 41.078 32.1547 41.3269 32.3007L42.8817 33.2024C43.1307 33.3483 43.3052 33.731 43.2664 34.0619C43.2276 34.3927 42.9949 34.5419 42.746 34.3959Z" fill="#426DB5"/>
<path d="M42.5099 36.4588L40.955 35.5571C40.7061 35.4112 40.5315 35.0284 40.5703 34.6976C40.6091 34.3668 40.8419 34.2176 41.0908 34.3635L42.6457 35.2652C42.8946 35.4112 43.0691 35.7939 43.0303 36.1247C42.9916 36.4556 42.7588 36.6048 42.5099 36.4588Z" fill="#426DB5"/>
<path d="M41.8407 42.3489L40.2858 41.4472C40.0369 41.3013 39.8624 40.9185 39.9012 40.5877C39.9399 40.2569 40.1727 40.1077 40.4216 40.2536L41.9765 41.1553C42.2254 41.3013 42.3999 41.684 42.3612 42.0148C42.3224 42.3456 42.0896 42.4948 41.8407 42.3489Z" fill="#426DB5"/>
<path d="M46.0948 44.8107L43.0659 43.056C42.817 42.91 42.6424 42.5273 42.6812 42.1965C42.72 41.8656 42.9527 41.7164 43.2016 41.8624L46.2306 43.6171C46.4795 43.763 46.654 44.1458 46.6152 44.4766C46.5765 44.8074 46.3437 44.9566 46.0948 44.8107Z" fill="#B7D2EE"/>
<path d="M57.8324 51.6122L47.4816 45.6151C47.2327 45.4691 47.0582 45.0864 47.097 44.7555C47.1357 44.4247 47.3685 44.2755 47.6174 44.4215L57.9682 50.4186C58.2171 50.5646 58.3916 50.9473 58.3528 51.2781C58.3141 51.609 58.0813 51.7582 57.8324 51.6122Z" fill="#FAAC67"/>
<path d="M64.0455 48.9363L62.4907 48.0347C62.2418 47.8887 62.0672 47.506 62.106 47.1752C62.1448 46.8443 62.3775 46.6951 62.6264 46.8411L64.1813 47.7428C64.4302 47.8887 64.6048 48.2714 64.566 48.6023C64.5272 48.9331 64.2945 49.0823 64.0455 48.9363Z" fill="#426DB5"/>
<path d="M42.6198 27.2669L41.0649 26.3652C40.816 26.2192 40.6414 25.8365 40.6802 25.5057C40.719 25.1748 40.9517 25.0256 41.2007 25.1716L42.7555 26.0733C43.0044 26.2192 43.179 26.6019 43.1402 26.9328C43.1014 27.2636 42.8687 27.4128 42.6198 27.2669Z" fill="#426DB5"/>
<path d="M46.9225 29.761L43.9453 28.0355C43.6963 27.8896 43.5218 27.5068 43.5606 27.176C43.5994 26.8452 43.8321 26.696 44.081 26.8419L47.0582 28.5675C47.3072 28.7134 47.4817 29.0961 47.4429 29.427C47.4041 29.7578 47.1714 29.907 46.9225 29.761Z" fill="#B7D2EE"/>
<path d="M62.9334 39.0373L60.8322 37.821C60.5833 37.6751 60.4087 37.2924 60.4475 36.9615C60.4863 36.6307 60.7191 36.4815 60.968 36.6275L63.0692 37.8438C63.3181 37.9897 63.4926 38.3724 63.4538 38.7033C63.4151 39.0341 63.1823 39.1833 62.9334 39.0373Z" fill="#B7D2EE"/>
<path d="M53.1129 33.3451L48.2673 30.5395C48.0184 30.3935 47.8438 30.0108 47.8826 29.68C47.9214 29.3491 48.1541 29.1999 48.403 29.3459L53.2487 32.1515C53.4976 32.2974 53.6722 32.6802 53.6334 33.011C53.5946 33.3418 53.3619 33.491 53.1129 33.3451Z" fill="#FAAC67"/>
<path d="M42.358 29.5697L40.8032 28.668C40.5543 28.5221 40.3797 28.1394 40.4185 27.8085C40.4573 27.4777 40.69 27.3285 40.9389 27.4744L42.4938 28.3761C42.7427 28.5221 42.9173 28.9048 42.8785 29.2356C42.8397 29.5665 42.607 29.7157 42.358 29.5697Z" fill="#426DB5"/>
<path d="M41.4044 37.9638L39.8495 37.0621C39.6006 36.9161 39.4261 36.5334 39.4649 36.2026C39.5037 35.8717 39.7364 35.7225 39.9853 35.8685L41.5402 36.7702C41.7891 36.9161 41.9637 37.2988 41.9249 37.6297C41.8861 37.9605 41.6533 38.1097 41.4044 37.9638Z" fill="#426DB5"/>
<path d="M46.6605 32.0607L43.6833 30.3351C43.4344 30.1892 43.2598 29.8065 43.2986 29.4756C43.3374 29.1448 43.5702 28.9956 43.8191 29.1416L46.7963 30.8671C47.0452 31.013 47.2197 31.3958 47.181 31.7266C47.1422 32.0574 46.9094 32.2066 46.6605 32.0607Z" fill="#B7D2EE"/>
<path d="M45.9365 38.4438L43.9614 37.2988C43.7125 37.1529 43.5379 36.7701 43.5767 36.4393C43.6155 36.1085 43.8482 35.9593 44.0971 36.1052L46.0723 37.2502C46.3212 37.3961 46.4957 37.7789 46.4569 38.1097C46.4181 38.4405 46.1854 38.5897 45.9365 38.4438Z" fill="#B7D2EE"/>
<path d="M54.393 43.3414L52.4179 42.1965C52.169 42.0505 51.9944 41.6678 52.0332 41.337C52.072 41.0061 52.3048 40.8569 52.5537 41.0029L54.5288 42.1478C54.7777 42.2938 54.9523 42.6765 54.9135 43.0073C54.8747 43.3382 54.6419 43.4874 54.393 43.3414Z" fill="#B7D2EE"/>
<path d="M68.3771 47.1395L42.1381 31.9407C41.8892 31.7947 41.7147 31.412 41.7534 31.0812C41.7922 30.7503 42.025 30.6011 42.2739 30.7471L68.5129 45.9459C68.7618 46.0919 68.9363 46.4746 68.8976 46.8054C68.8588 47.1363 68.626 47.2855 68.3771 47.1395Z" fill="#F3F3F3"/>
<path d="M51.7487 35.009L48.0053 32.8423C47.7564 32.6964 47.5818 32.3137 47.6206 31.9828C47.6594 31.652 47.8922 31.5028 48.1411 31.6488L51.8844 33.8154C52.1333 33.9613 52.3079 34.3441 52.2691 34.6749C52.2303 35.0057 51.9976 35.1549 51.7487 35.009Z" fill="#FAAC67"/>
<path d="M51.0245 41.3889L47.2812 39.2222C47.0323 39.0763 46.8577 38.6935 46.8965 38.3627C46.9353 38.0319 47.168 37.8827 47.417 38.0286L51.1603 40.1953C51.4092 40.3412 51.5838 40.724 51.545 41.0548C51.5062 41.3856 51.2734 41.5348 51.0245 41.3889Z" fill="#FAAC67"/>
<path d="M61.0974 47.227L55.8154 44.1652C55.5665 44.0193 55.3919 43.6365 55.4307 43.3057C55.4695 42.9749 55.7022 42.8257 55.9511 42.9716L61.2332 46.0335C61.4821 46.1794 61.6567 46.5621 61.6179 46.893C61.5791 47.2238 61.3463 47.373 61.0974 47.227Z" fill="#F3F3F3"/>
<path d="M59.5392 37.0685L54.6935 34.2629C54.4446 34.117 54.2701 33.7343 54.3089 33.4034C54.3477 33.0726 54.5804 32.9234 54.8293 33.0693L59.675 35.8749C59.9239 36.0209 60.0984 36.4036 60.0597 36.7345C60.0209 37.0653 59.7881 37.2145 59.5392 37.0685Z" fill="#F3F3F3"/>
<path d="M50.0936 27.3739L45.374 24.6397C45.1251 24.4937 44.9505 24.111 44.9893 23.7801C45.0281 23.4493 45.2608 23.3001 45.5097 23.4461L50.2293 26.1803C50.4782 26.3262 50.6528 26.709 50.614 27.0398C50.5752 27.3706 50.3425 27.5198 50.0936 27.3739Z" fill="#B7D2EE"/>
<path d="M60.2408 33.251L55.5212 30.5168C55.2723 30.3708 55.0977 29.9881 55.1365 29.6573C55.1753 29.3264 55.408 29.1772 55.657 29.3232L60.3765 32.0574C60.6255 32.2034 60.8 32.5861 60.7612 32.9169C60.7224 33.2478 60.4897 33.397 60.2408 33.251Z" fill="#B7D2EE"/>
<path d="M53.9274 29.5956L51.5385 28.2107C51.2896 28.0647 51.115 27.682 51.1538 27.3512C51.1926 27.0203 51.4254 26.8711 51.6743 27.0171L54.0632 28.4021C54.3121 28.548 54.4866 28.9307 54.4478 29.2616C54.4091 29.5924 54.1763 29.7416 53.9274 29.5956Z" fill="#FAAC67"/>
<path d="M69.5441 38.6417L61.8376 34.1754C61.5887 34.0295 61.4141 33.6467 61.4529 33.3159C61.4917 32.9851 61.7244 32.8359 61.9734 32.9818L69.6799 37.4481C69.9288 37.594 70.1033 37.9767 70.0645 38.3076C70.0258 38.6384 69.793 38.7876 69.5441 38.6417Z" fill="#FAAC67"/>
<path d="M41.6276 44.2236L40.0727 43.322C39.8238 43.176 39.6492 42.7933 39.688 42.4624C39.7268 42.1316 39.9596 41.9824 40.2085 42.1284L41.7633 43.0301C42.0123 43.176 42.1868 43.5587 42.148 43.8896C42.1092 44.2204 41.8765 44.3696 41.6276 44.2236Z" fill="#426DB5"/>
<path d="M47.7725 47.7817L43.0529 45.0474C42.804 44.9015 42.6294 44.5187 42.6682 44.1879C42.707 43.8571 42.9398 43.7079 43.1887 43.8538L47.9083 46.5881C48.1572 46.734 48.3317 47.1168 48.293 47.4476C48.2542 47.7784 48.0214 47.9276 47.7725 47.7817Z" fill="#B7D2EE"/>
<path d="M57.9197 53.6621L53.2001 50.9279C52.9512 50.7819 52.7767 50.3992 52.8155 50.0683C52.8542 49.7375 53.087 49.5883 53.3359 49.7343L58.0555 52.4685C58.3044 52.6145 58.479 52.9972 58.4402 53.328C58.4014 53.6588 58.1686 53.808 57.9197 53.6621Z" fill="#B7D2EE"/>
<path d="M51.6064 50.0035L49.2175 48.6185C48.9686 48.4726 48.794 48.0898 48.8328 47.759C48.8716 47.4282 49.1043 47.279 49.3532 47.4249L51.7421 48.8099C51.991 48.9558 52.1656 49.3386 52.1268 49.6694C52.088 50.0002 51.8553 50.1494 51.6064 50.0035Z" fill="#FAAC67"/>
<path d="M67.2231 59.0494L59.5165 54.5832C59.2676 54.4372 59.0931 54.0545 59.1319 53.7237C59.1707 53.3928 59.4034 53.2436 59.6523 53.3896L67.3588 57.8558C67.6077 58.0018 67.7823 58.3845 67.7435 58.7154C67.7047 59.0462 67.472 59.1954 67.2231 59.0494Z" fill="#FAAC67"/>
<path d="M53.6429 27.6593L6.0688 0.0996427C5.86838 -0.0171217 5.69059 -0.0268521 5.56129 0.0477474L4.00317 0.955915C4.13248 0.881316 4.3135 0.891046 4.51069 1.00781L52.0816 28.5675C52.4727 28.7945 52.7928 29.3459 52.7895 29.8L52.6893 65.3774C52.6893 65.6012 52.6085 65.7602 52.4824 65.8348L54.0405 64.9266C54.1666 64.852 54.2474 64.6931 54.2474 64.4693L54.3476 28.8918C54.3476 28.441 54.0308 27.8863 53.6397 27.6593H53.6429Z" fill="#747474"/>
<path d="M52.7993 29.7935L52.7896 33.4553L52.6958 65.3709C52.6958 65.8218 52.379 66.0034 51.9847 65.7796L4.41701 38.22C4.0194 37.9897 3.7026 37.4383 3.70584 36.9875L3.79312 5.07185L3.80281 1.40999C3.80605 0.95915 4.12607 0.777517 4.51722 1.00132L52.0913 28.5577C52.4792 28.788 52.7993 29.3394 52.7993 29.7902V29.7935Z" fill="#1F2225"/>
<path d="M51.933 29.9265L51.9233 33.4488L51.8361 64.2422C51.8361 64.6703 51.5257 64.8487 51.1443 64.6314L14.4834 43.3998L5.25434 38.0546C4.87613 37.8307 4.57227 37.2923 4.57227 36.8642L4.65955 6.08056L4.66924 2.54844C4.66924 2.11057 4.97957 1.93218 5.36102 2.14949L14.4834 7.43633L51.251 28.7361C51.6195 28.9502 51.933 29.4886 51.933 29.9265Z" fill="url(#paint1_linear_88_607)"/>
<path d="M14.4834 7.43633V43.3998L5.25434 38.0546C4.87613 37.8307 4.57227 37.2923 4.57227 36.8642L4.65955 6.08056L4.66924 2.54844C4.66924 2.11057 4.97957 1.93218 5.36102 2.14949L14.4834 7.43633Z" fill="#FAAC67"/>
<path d="M52.7994 29.7935L52.7897 33.4553L3.79321 5.07185L3.80291 1.40999C3.80614 0.95915 4.12617 0.777517 4.51731 1.00132L52.0914 28.5577C52.4794 28.788 52.7994 29.3394 52.7994 29.7902V29.7935Z" fill="#1F2225"/>
<path d="M11.2314 7.27094C11.2314 7.91315 11.684 8.69482 12.24 9.01592C12.796 9.33703 13.2486 9.08079 13.2486 8.43859C13.2486 7.79638 12.796 7.01471 12.24 6.69361C11.684 6.37251 11.2314 6.62874 11.2314 7.27094Z" fill="#426DB5"/>
<path d="M8.41577 5.63947C8.41577 6.28168 8.86833 7.06335 9.42434 7.38445C9.98035 7.70556 10.4329 7.44932 10.4329 6.80712C10.4329 6.16491 9.98035 5.38324 9.42434 5.06214C8.86833 4.74104 8.41577 4.99727 8.41577 5.63947Z" fill="#426DB5"/>
<path d="M5.59692 4.00477C5.59692 4.64697 6.04949 5.42865 6.60549 5.74975C7.1615 6.07085 7.61406 5.81462 7.61406 5.17241C7.61406 4.53021 7.1615 3.74854 6.60549 3.42743C6.04949 3.10633 5.59692 3.36257 5.59692 4.00477Z" fill="#426DB5"/>
<path d="M49.4891 57.4277L35.2592 49.1829C35.0006 49.0337 34.7937 48.6347 34.7937 48.2909V44.3436C34.7937 43.9998 35.0038 43.8409 35.2592 43.9901L49.4891 52.235C49.7477 52.3842 49.9546 52.7831 49.9546 53.1269V57.0742C49.9546 57.418 49.7445 57.5769 49.4891 57.4277Z" fill="#426DB5"/>
<path d="M18.4335 19.7907C18.4335 20.2578 18.1038 20.4459 17.6965 20.2123C17.2892 19.9756 16.9595 19.408 16.9595 18.9377C16.9595 18.4674 17.2892 18.2825 17.6965 18.516C18.1038 18.7528 18.4335 19.3204 18.4335 19.7907Z" fill="white"/>
<path d="M31.8165 28.162L20.0983 21.3735C19.8624 21.2372 19.6716 20.8675 19.6716 20.5529C19.6716 20.235 19.8624 20.0923 20.0983 20.2285L31.8165 27.0171C32.0525 27.1533 32.2432 27.5231 32.2432 27.8377C32.2432 28.1555 32.0525 28.2982 31.8165 28.162Z" fill="white"/>
<path d="M31.797 42.3068L17.3925 33.9614C17.1565 33.8251 16.9658 33.4554 16.9658 33.1408C16.9658 32.8229 17.1565 32.6802 17.3925 32.8164L31.797 41.1618C32.033 41.2981 32.2237 41.6678 32.2237 41.9824C32.2237 42.3003 32.033 42.443 31.797 42.3068Z" fill="white"/>
<path d="M31.797 44.6907L17.3925 36.3453C17.1565 36.209 16.9658 35.8393 16.9658 35.5247C16.9658 35.2068 17.1565 35.0641 17.3925 35.2003L31.797 43.5457C32.033 43.682 32.2237 44.0517 32.2237 44.3663C32.2237 44.6842 32.033 44.8269 31.797 44.6907Z" fill="white"/>
<path d="M31.797 47.1784L17.3925 38.833C17.1565 38.6968 16.9658 38.327 16.9658 38.0124C16.9658 37.6945 17.1565 37.5518 17.3925 37.6881L31.797 46.0335C32.033 46.1697 32.2237 46.5394 32.2237 46.8541C32.2237 47.1719 32.033 47.3146 31.797 47.1784Z" fill="white"/>
<path d="M49.6637 50.7786L35.2592 42.4332C35.0232 42.297 34.8325 41.9272 34.8325 41.6126C34.8325 41.2948 35.0232 41.1521 35.2592 41.2883L49.6637 49.6337C49.8997 49.7699 50.0904 50.1397 50.0904 50.4543C50.0904 50.7721 49.8997 50.9149 49.6637 50.7786Z" fill="white"/>
<path d="M49.6637 48.3655L35.2592 40.0201C35.0232 39.8839 34.8325 39.5142 34.8325 39.1995C34.8325 38.8817 35.0232 38.739 35.2592 38.8752L49.6637 47.2206C49.8997 47.3568 50.0904 47.7266 50.0904 48.0412C50.0904 48.3591 49.8997 48.5018 49.6637 48.3655Z" fill="white"/>
<path d="M49.6637 38.4697L35.2592 30.1243C35.0232 29.9881 34.8325 29.6183 34.8325 29.3037C34.8325 28.9859 35.0232 28.8432 35.2592 28.9794L49.6637 37.3248C49.8997 37.461 50.0904 37.8308 50.0904 38.1454C50.0904 38.4632 49.8997 38.606 49.6637 38.4697Z" fill="white"/>
<path d="M24.9989 35.6674L17.4411 31.2887C17.176 31.1363 16.9626 30.7244 16.9626 30.3676V21.847C16.9626 21.4935 17.176 21.3281 17.4411 21.4838L24.9989 25.8624C25.264 26.0149 25.4773 26.4268 25.4773 26.7836V35.3041C25.4773 35.6577 25.264 35.8231 24.9989 35.6674Z" fill="#426DB5"/>
<path d="M12.715 21.5421L6.01386 17.6597C5.77788 17.5235 5.58716 17.157 5.58716 16.8424V9.28512C5.58716 8.97051 5.77788 8.82455 6.01386 8.96078L12.715 12.8432C12.951 12.9794 13.1417 13.3459 13.1417 13.6605V21.2178C13.1417 21.5324 12.951 21.6784 12.715 21.5421Z" fill="white"/>
<path d="M12.715 23.8775L6.01386 19.995C5.77788 19.8588 5.58716 19.4923 5.58716 19.1777V19.2036C5.58716 18.889 5.77788 18.7431 6.01386 18.8793L12.715 22.7617C12.951 22.8979 13.1417 23.2644 13.1417 23.5791V23.5531C13.1417 23.8677 12.951 24.0137 12.715 23.8775Z" fill="white"/>
<path d="M12.715 36.4783L6.01386 32.5959C5.77788 32.4596 5.58716 32.0931 5.58716 31.7785V31.8077C5.58716 31.4931 5.77788 31.3471 6.01386 31.4834L12.715 35.3658C12.951 35.502 13.1417 35.8685 13.1417 36.1831V36.1539C13.1417 36.4686 12.951 36.6145 12.715 36.4783Z" fill="white"/>
<path d="M12.715 38.8363L6.01386 34.9538C5.77788 34.8176 5.58716 34.4511 5.58716 34.1365V34.1624C5.58716 33.8478 5.77788 33.7019 6.01386 33.8381L12.715 37.7205C12.951 37.8567 13.1417 38.2232 13.1417 38.5379V38.5119C13.1417 38.8265 12.951 38.9725 12.715 38.8363Z" fill="white"/>
<path d="M12.715 41.1942L6.01386 37.3118C5.77788 37.1756 5.58716 36.8091 5.58716 36.4945V36.5204C5.58716 36.2058 5.77788 36.0598 6.01386 36.1961L12.715 40.0785C12.951 40.2147 13.1417 40.5812 13.1417 40.8958V40.8699C13.1417 41.1845 12.951 41.3305 12.715 41.1942Z" fill="white"/>
<path d="M49.4891 45.2388L35.2592 36.994C35.0006 36.8448 34.7937 36.4458 34.7937 36.102V32.1547C34.7937 31.8109 35.0038 31.652 35.2592 31.8012L49.4891 40.0461C49.7477 40.1953 49.9546 40.5942 49.9546 40.938V44.8853C49.9546 45.2291 49.7445 45.388 49.4891 45.2388Z" fill="#426DB5"/>
<defs>
<linearGradient id="paint0_linear_88_607" x1="36.0316" y1="40.432" x2="83.9904" y2="40.432" gradientUnits="userSpaceOnUse">
<stop stop-color="#61AEE0"/>
<stop offset="0.05" stop-color="#5CA4D6"/>
<stop offset="0.34" stop-color="#416EA0"/>
<stop offset="0.48" stop-color="#37598C"/>
<stop offset="0.6" stop-color="#304C82"/>
<stop offset="0.83" stop-color="#273A74"/>
<stop offset="1" stop-color="#24346F"/>
</linearGradient>
<linearGradient id="paint1_linear_88_607" x1="4.5755" y1="33.3872" x2="51.933" y2="33.3872" gradientUnits="userSpaceOnUse">
<stop stop-color="#61AEE0"/>
<stop offset="0.05" stop-color="#5CA4D6"/>
<stop offset="0.34" stop-color="#416EA0"/>
<stop offset="0.48" stop-color="#37598C"/>
<stop offset="0.6" stop-color="#304C82"/>
<stop offset="0.83" stop-color="#273A74"/>
<stop offset="1" stop-color="#24346F"/>
</linearGradient>
</defs>
</svg>
